<svg xmlns="http://www.w3.org/2000/svg" preserveAspectRatio="none" width="144.1302mm" height="95.5126mm" viewBox="0 0 408.5582 270.7444"><defs><style>.a{opacity:0.6;}.b{fill:#fff;}.c{fill:none;stroke:#f79f79;stroke-miterlimit:8;stroke-width:6px;}</style></defs><g class="a"><path class="b" d="M6.132,137.5818C7.6736,90.9689.1178,41.56,5.3139,7.4269c49.7612-6.06,275.757-9.071,342.32,14.575,66.5665,23.646,59.1461,65.389,57.0591,127.3-.1948,89.714-2.2057,98.729-19.87,108.738-59.8714,27.5724-213.8743-12.7954-286.24-1.513C12.3247,254.53,3.118,293.52,6.132,137.5818Z"/></g><path vector-effect="non-scaling-stroke" class="c" d="M5.6692,137.454C7.2108,90.841-.345,41.432,4.8511,7.299c49.7612-6.06,275.757-9.071,342.32,14.575,66.5665,23.646,59.1461,65.389,57.0591,127.3-.1948,89.714-2.2057,98.7291-19.87,108.738-59.8713,27.5725-213.8742-12.7954-286.24-1.5129C11.8619,254.402,2.6552,293.3917,5.6692,137.454Z"/></svg>