<svg width="580" height="125" xmlns="http://www.w3.org/2000/svg" preserveAspectRatio="none" vector-effect="non-scaling-stroke" xmlns:xlink="http://www.w3.org/1999/xlink" overflow="hidden"><g transform="translate(-592 -488)"><path d="M780.357 603.989C680.749 602.906 624.924 618.188 601.672 600.126 590.372 576.179 594.437 532.63 606.297 517.32 626.738 500.697 667.407 497.882 715.236 493.862 763.065 489.841 821.286 493.655 893.274 493.196 1084.98 493.26 1093.34 490.688 1114.73 496.449 1131.29 501.714 1145.44 499.073 1163.66 514.422 1168.35 528.383 1166.55 544.72 1168 559.87 1158.77 581.504 1133.35 587.249 1112.76 594.635 1091.72 599.157 1039.79 603.967 780.357 603.989Z" stroke="#E3F09B" stroke-width="6" stroke-miterlimit="8" fill="none" fill-rule="evenodd"/></g></svg>