<svg xmlns="http://www.w3.org/2000/svg" version="1.1" xmlns:xlink="http://www.w3.org/1999/xlink" xmlns:svgjs="http://svgjs.com/svgjs" width="156.1" height="157.3"><svg version="1.1" id="SvgjsSvg1000" xmlns="http://www.w3.org/2000/svg" xmlns:xlink="http://www.w3.org/1999/xlink" x="0px" y="0px" viewBox="0 0 156.1 157.3" style="enable-background:new 0 0 156.1 157.3;" xml:space="preserve">
<style type="text/css">
	.st0{fill:#FFFFFF;}
	.st1{fill-rule:evenodd;clip-rule:evenodd;fill:#F7D08A;}
	.st2{fill-rule:evenodd;clip-rule:evenodd;fill:#5B5941;}
	.st3{fill-rule:evenodd;clip-rule:evenodd;fill:#D45113;}
	.st4{fill:#5B5941;}
	.st5{fill-rule:evenodd;clip-rule:evenodd;fill:#F79F79;}
	.st6{fill-rule:evenodd;clip-rule:evenodd;fill:#E3F09B;}
</style>
<ellipse class="st0" cx="78.1" cy="78.7" rx="78.1" ry="78.7"></ellipse>
<path class="st1" d="M66.2,8.8c-4.6-0.1-3.6,10.2-2.3,19.6c0.1,0.5,1,0.5,1.3-0.3c0.3-0.8,0.5-1.8,0.9-2.8
	C68.4,18.3,71.4,9,66.2,8.8z"></path>
<path class="st1" d="M41.3,23.4c-0.2-1.6-0.5-4.6-1.9-4.2c-1.5,0.4-2.5,2.1-1,3.3c0.7,0.5,1.5,1.1,2.1,1.8c0.5,0.7,0.9,0.1,0.9-0.7
	C41.3,23.6,41.3,23.5,41.3,23.4L41.3,23.4z"></path>
<path class="st1" d="M128.1,46.5c-0.3,0.6-0.5,0.9,0.1,1.3c0.5,0.4,0.5,0.3,1.3-0.3c0.3-0.2,0.7-0.5,1.4-0.8
	c10.6-6.3,2.1-12.6-0.8-8.6c-1.1,1.5-1,2.8-1.2,5.5C128.8,44.5,128.6,45.6,128.1,46.5z"></path>
<path class="st1" d="M111.5,83.6c1.6-0.5,3.2-0.8,4.9-0.9c14.1-1.6,11.2-10.2,7.7-11.2c-2-0.5-4.6,0.8-6.3,2.4
	c-3.7,3.3-6.1,8.5-6.6,9.3C111,83.3,111.2,83.8,111.5,83.6z"></path>
<path class="st1" d="M90.9,124.9c2.7,4.9,4.6,11.5,1.7,16.5c-3.7,6.5-18.7-0.3-12.2-20.2c4.3-10.5,4.2-8.5,7.2-13
	c0.2-0.3,0.5-0.3,1,0.1c0.3,0.2,0.3,0.3,0.1,0.6c-0.5,0.9-0.7,1.8-1,2.8C86.6,116.3,87.9,119.2,90.9,124.9z"></path>
<path class="st1" d="M46.7,106.6c-0.3-1.5-0.5-2.7-0.5-3.4c-0.4-3.7-0.2-3.7-0.6-3.7c-1.1-0.1-1.2,1.4-1.2,2.7
	c0.5,9.7-3.5,17.4-6.3,23c-1.6,3.1-2.8,5.6-2.9,7.5c-0.2,4.6,5.5,5.9,9.1,3.1C50.7,130.6,48,114.4,46.7,106.6L46.7,106.6z"></path>
<path class="st1" d="M115.6,128.4c-2.2-3.7-1.6-7.7-2.1-10.8c-0.2-0.7,0.8-0.9,1.3-0.5c1.6,1.6,3.3,3.1,5.1,4.4
	c2.5,1.9,4.8,3.6,5.7,5.9C127.3,131.9,119.1,134.3,115.6,128.4z"></path>
<path class="st1" d="M56.1,139.9c-1-5.7-3.2-7.9-3.3-9.9c-0.1-0.8-0.5-1.1-1.1-0.9c-0.4,0.1-0.4,0.3-0.3,0.7c0.1,0.6,0.1,1.4-0.1,2
	c-0.2,0.7-0.5,1.5-0.7,2.2c-0.7,1.7-1.2,3.7-1.3,5.5c0,2.4,0.7,5.1,3,5.7C55.8,146.2,56.7,143.1,56.1,139.9L56.1,139.9z"></path>
<path class="st2" d="M106.1,143.9c-3.7,3.4-7.8-1.5-9.4-5.9c-0.8-2.6-1.3-5.3-1.2-8c0-0.5,0.2-0.6,0.4-0.7l0,0c0,0,0.1,0.1,0.2,0.5
	c0.1,0.2,0.2,0.5,0.4,1c1,3.3,3.2,4.1,5.3,5c1.7,0.7,3.6,1.5,4.8,3.6C107.4,140.8,107.3,142.7,106.1,143.9L106.1,143.9z"></path>
<path class="st3" d="M39.5,100c0-0.2,0-0.2,0-0.2l0,0V100L39.5,100L39.5,100L39.5,100z"></path>
<path class="st2" d="M125.8,93.4c5.9,1.9,11.2,3.7,16,2.1c9.9-3.4,7.4-20.1-14-14.5c-4.5,1.2-8.9,2.7-13.1,4.8
	c-0.5,0.2-0.9,0.5-1.5,0.6c-1.3,0.5-2.3,0.9-3,1.2c-1.8,0.7-2.1,0.8-1.8,1.7c0.3,0.7,1.2,0.7,2,0.7
	C115.9,90.1,121.1,91.8,125.8,93.4L125.8,93.4z"></path>
<path class="st4" d="M90.6,19.1c3.9,0.4,7.6,1.8,10.8,4.1c3,2.3,5.6,5.1,7.5,8.4c2,3.4,3.4,7.1,4.2,11c0.9,3.9,1.2,7.9,0.9,11.9
	c-0.7,14.6-4.7,26.9-11.7,36.7c-7,9.9-17.1,17.6-30.3,23.1c0.5,2.8,1,5.6,1.5,8.4c0.5,2.8,0.9,5.8,1.4,8.7c0.5,2.5,0.1,4.9-0.9,7.2
	c-1.1,2.3-3.1,3.9-5.6,4.5c-2,0.5-4.1,0.5-6-0.4c-2-0.7-3.7-2.1-4.6-4c-2.1-4.9-3.9-11.5-5.6-19.8c-1.6-8.3-2.9-17.3-4-27.1
	s-1.9-19.8-2.6-29.9c-0.5-10.2-0.9-19.7-1-28.4c0-3,0.9-5.2,2.7-6.9c1.6-1.6,3.7-2.4,6-2.5c2.2-0.1,4.4,0.5,6.2,1.8
	c2,1.5,3.3,3.7,3.6,6.1c1.7-2.1,3.6-4,5.6-5.8c2-1.7,4.2-3.2,6.6-4.4c2.3-1.2,4.8-2,7.3-2.6C85.3,19,88,18.8,90.6,19.1z M95.6,53.7
	c0-4.3-0.6-7.6-1.9-9.9c-1-2-2.7-3.7-4.8-4.4c-2.1-0.5-4.3-0.4-6.2,0.6c-2.5,1.2-4.6,3-6.1,5.3c-2.5,3.3-4.3,6.9-5.6,10.8
	c-1.3,4-2.1,8.1-2.5,12.3c-0.4,4.4-0.5,8.9-0.3,13.4c0.2,4.6,0.5,9.1,0.9,13.5c0.7-0.5,1.6-0.9,2.4-1.3c0.9-0.5,1.7-0.9,2.6-1.4
	c3.1-1.6,5.9-3.9,8.2-6.6c2.7-2.9,4.9-6.2,6.9-9.6c2-3.6,3.6-7.3,4.8-11.2C95,61.5,95.6,57.5,95.6,53.7L95.6,53.7z"></path>
<path class="st2" d="M140.5,68c2.3-2.7-6.2-8.3-11.2,3.2c-0.4,0.9-0.4,1.2,0.2,1.5c0.5,0.3,0.7,0.2,1.3-0.2c1-0.5,2.1-1,3.2-1.4
	C136.1,70.4,139.1,69.6,140.5,68L140.5,68z"></path>
<path class="st2" d="M117.9,54.4c2.4-12.2-2.5-19.5,0.9-25.7c2.2-4.1,7.6-3.7,9.1,1.6c1.1,4.7,0.3,11.3-4.8,18.8
	c-4,5.9-4.1,5.9-4.6,5.9l0,0C118,55.1,117.8,54.9,117.9,54.4z"></path>
<path class="st2" d="M20.6,46.7c-9.1-8,4.9-16.1,5.9-3c0,0.5,0.1,1,0.1,1.4c0,1.4,0.2,2.7,0.5,4.1c0.2,0.5,0.3,1.1-0.2,1.5
	c-0.4,0.2-0.6,0-0.9-0.2c0,0,0,0-0.1,0C24.2,49.3,22.4,48.1,20.6,46.7L20.6,46.7z"></path>
<path class="st2" d="M55.2,13.5c-3.8-2.2-7.8,2.1-6.6,5.4c1,3,5.4,2.9,9.3,4.3c0.7,0.3,1.5-0.7,1.3-1.6c-0.1-0.2-0.1-0.4-0.2-0.5
	C59,21,59,20.9,58.9,20.7c-0.2-0.5-0.3-1-0.4-1.6C58,17.3,57.6,14.9,55.2,13.5L55.2,13.5z"></path>
<path class="st2" d="M17,70.6C2.1,71.3,8.6,55,17.2,67c0.5,0.8,1.3,1.6,2.1,2.1c0.5,0.3,0.6,0.5,0.5,0.8c-0.3,0.8-0.9,0.8-2.1,0.7
	C17.5,70.6,17.3,70.6,17,70.6z"></path>
<path class="st2" d="M29.9,128.9c-3.1-0.2-5.5-2.1-5.2-5.7c1-10.8,15.5-24.5,18.7-29.8c0.4-0.5,1.6-0.3,1.3,0.6
	c-1.9,4.2-3.3,6.5-4.3,12.6c-0.2,0.8-0.3,1.8-0.5,2.8C38.8,117.3,37.2,129.1,29.9,128.9z"></path>
<path class="st2" d="M12,103.1c-1.2,0.1-2.3-0.7-2.4-2c0-0.1,0-0.2,0-0.3c-0.2-1.6,1.8-1.8,3.8-2.1c0.8-0.1,1.6-0.2,2.3-0.4h0.1
	c0.2-0.1,0.4-0.1,0.5,0.1c0.2,0.3,0.3,0.5,0.1,0.8c0,0.1-0.1,0.1-0.2,0.2C15.6,100.3,13.8,103.1,12,103.1L12,103.1z"></path>
<path class="st5" d="M91.1,10.4c-3.3-4.6-9,0.4-9.8,4.5c-0.1,0.5,0.2,0.8,0.5,1.1c0.4,0.3,0.6,0.2,0.9,0c0.9-0.4,1.7-0.7,2.7-0.9
	C88.7,14,92.8,12.7,91.1,10.4L91.1,10.4z"></path>
<path class="st5" d="M78.8,138.1c0.6,0.6,0,10.3-3.2,11.6c-2.5,0.6-4.8-1.9-4.3-4.9c0.5-3,2.4-2,5.9-6
	C77.7,138,78.3,137.5,78.8,138.1L78.8,138.1z"></path>
<path class="st5" d="M117.8,26.8c-1,2.3-2.1,4.8-1.9,7.1c0,0.5-0.1,0.7-0.7,0.6c-0.7-0.1-0.5-0.3-1.2-1.1c-0.2-0.2-0.4-0.4-0.5-0.5
	c-2.1-2.4-4.4-5.1-4-8.2c0.5-7.7,11-6.7,9.7-1.3C118.8,24.6,118.3,25.7,117.8,26.8L117.8,26.8z"></path>
<path class="st5" d="M38.5,34.3c1.4-0.2,2.8-0.1,4.2,0.3c0.4,0.2,0.6-0.1,0.8-0.4l0,0c0.3-0.3-2.9-7.9-5.7-10.2
	c-3.7-3.2-9.1,0.5-7.7,5.8C31.4,34.8,35.1,34.6,38.5,34.3L38.5,34.3z"></path>
<path class="st5" d="M17.7,46.8c-6.8,0-14.1,14.8,16.7,26.2c2.1,0.8,3.8,1.4,5.1,1.9c4.1,1.6,4.7,1.7,4.8,1.6c0-0.1,0.1-0.1,0.1-0.2
	c0.2-0.4,0.2-0.7-0.2-0.9c-1-0.6-1.9-1.4-2.7-2.2C29.4,62.5,26.9,47.1,17.7,46.8L17.7,46.8z"></path>
<path class="st5" d="M23.8,94c-3.7,2.3-9,7.1-9,11.2c-0.1,3.7,3.9,5.8,7.6,5.1c10-1.7,15.2-21.4,23.5-24.7c0.6-0.3-0.3-1.3-1.6-0.5
	C37.5,88.4,30.4,90,23.8,94L23.8,94z"></path>
<path class="st5" d="M12.4,87.4c-2.6-0.6-5.5-1-4.9,1.8c1.2,6.8,10.3,5.4,16.9-0.5c0.3-0.3,0.3-0.6,0-0.9c-0.2-0.2-0.4-0.2-0.5-0.2
	C20,88.4,16.2,88.4,12.4,87.4z"></path>
<path class="st5" d="M98.2,105.4c0.5-1.8,0.9-3.7,1.6-5.5c0.4-1,1.8-1.5,2.2-0.1c1.1,4.2,2.7,8.3,4.4,12.3
	c2.8,6.8,5.5,12.8,3.4,17.1c-3.7,7.4-17.7,4-11.6-23.5L98.2,105.4L98.2,105.4z"></path>
<path class="st5" d="M48.7,134c0-0.5-0.9-0.4-1.1,0.1c-1.1,1.8-2.8,2.2-3.7,4.4C42.4,141.5,48.8,142.6,48.7,134z"></path>
<path class="st5" d="M130.2,105.5c11.2,11.2-6.9,23.3-15.5,4.2c-1.3-2.9-3.1-8.5-6.1-12.3c-1.1-1.5-2.5-2.6-4-3.4
	c-0.5-0.3-0.7-0.4-0.3-0.6c0.4-0.4,0.9-0.4,1.4-0.2C108.8,94.9,122.1,97.2,130.2,105.5L130.2,105.5z"></path>
<path class="st5" d="M141.4,78.7c-2.4-0.6-5-1.3-7.2-0.8c-0.5,0.1-0.7,0-0.7-0.6c0-0.6,0.3-0.5,0.9-1.2c0.2-0.2,0.4-0.4,0.5-0.5
	c2.1-2.2,4.5-4.6,7.6-4.7c7.7-0.5,8,9.1,2.5,8.5C143.7,79.2,142.5,79,141.4,78.7L141.4,78.7z"></path>
<path class="st5" d="M117.6,64.6c-1,1.6-1.9,3.3-2.7,5c-0.5,0.9,0.3,2.4,1.5,1.6c3.7-2.2,7.8-4,11.9-5.5c6.9-2.7,13-5.1,14.5-9.7
	c2.7-7.8-9.7-15.5-25,8.3L117.6,64.6z"></path>
<path class="st6" d="M95,109.8c-0.4-1.6-0.5-3.3-0.4-4.9c0-0.5-0.2-0.5-0.5-0.5l0,0c-0.3,0-0.3,0-2.6,4.5c-1.6,3.2-3.3,7.4-1.4,8.7
	c1.4,0.9,3.6,0.2,4.7-2.2C95.5,113.3,95.3,111.7,95,109.8L95,109.8z"></path>
<path class="st6" d="M101.4,18.7c7.6,2.7,9-0.7,6.7-3.1c-4.4-5.5-16.9-0.6-16.6,0.9c0.2,0.6,0.7,1,1.4,1
	C95.9,16.9,98.7,17.7,101.4,18.7z"></path>
<path class="st6" d="M105.1,98.4c-1.4-1.1-1.6-1.9-1.8-1.8c-0.2,0-0.4,0.5-0.2,0.9c0.9,2,1.8,4.1,2.5,6.3c0.5,1.6,1.2,3.2,1.6,4.1
	c2.7,6.7,5,2.2,4.5-0.6C111.1,104,107.6,100.4,105.1,98.4L105.1,98.4z"></path>
<path class="st6" d="M24.1,33.8c0.1,1.8,2.8,2.3,4.4,3.4c0.3,0.2,0.5,0.4,0.8,0.1l0.1-0.1c0.3-0.2,0.5-0.4,0.5-0.6
	c-0.2-0.5-0.3-1.1-0.3-1.7c0-1.2-0.5-2.4-1.4-3.2C26.7,30.6,24.1,32.3,24.1,33.8L24.1,33.8z"></path>
<path class="st6" d="M44.6,68.6c-0.8-3.7-1.1-7.5-0.9-11.2c0.1-5.2-0.6-16.5-4.3-20.2c-2.1-2.2-4.6-1.9-6.6-0.2
	c-12.2,10.4,7.7,31,10.6,33.5C44.2,71.1,44.8,69.7,44.6,68.6L44.6,68.6z"></path>
<path class="st6" d="M72.4,18.7c1.2-1,4.6-2.8,6.1-5.9c2.5-5.7-5.5-7.6-7-1.9c-1.1,4.3,0,6.7-0.2,7.1v0.1c-0.1,0.2-0.2,0.4,0.1,0.5
	l0,0C71.8,18.8,72.1,18.9,72.4,18.7L72.4,18.7z"></path>
<path class="st6" d="M141.3,108.2c1.7-1.3,2.7-5.5-2.7-7.8c-3.7-1.6-7.7-1.6-9.1-1.2c-0.3,0-0.4,0.3-0.5,0.6c0,0.3,0.2,0.4,0.5,0.5
	h0.1c1.8,0.6,3.3,2.6,4.8,4.5C136.3,107.7,138.4,110.3,141.3,108.2L141.3,108.2z"></path>
<path class="st6" d="M18.5,118.7c3.3,3,5.6-1.2,6.2-4.6c0.1-0.3-0.1-0.5-0.3-0.6c-0.5-0.3-0.6-0.1-1.8,0.4c-0.1,0.1-0.3,0.1-0.5,0.2
	c-1.4,0.5-4.1,1.8-4.2,3.3C18,117.9,18.2,118.4,18.5,118.7L18.5,118.7z"></path>
<path class="st6" d="M36.3,77.4c-11.6-3.7-26.8-8.7-28.4,1C5.8,91.6,32,85.1,44.6,81.6c1.4-0.4,0.5-1.6-0.1-1.7
	C42.2,79.3,39.4,78.4,36.3,77.4z"></path>
<path class="st6" d="M110.7,136.4c-0.6,3.6,4.7,3.8,5.4,1.2c0.9-3-1.6-7.5-2.2-7.3h-0.1c-0.3,0.1-0.5,0.1-0.5,0.4
	c-0.3,1-0.6,2-1.2,2.8C111.4,134.4,110.9,135.4,110.7,136.4z"></path>
<path class="st6" d="M80.5,141.8c0.1-0.5,0.9-0.1,1.1,0.3c0.7,2,2.3,2.7,2.8,5C85.3,150.4,78.8,150.2,80.5,141.8z"></path>
</svg><style>@media (prefers-color-scheme: light) { :root { filter: none; } }
</style></svg>