<svg xmlns="http://www.w3.org/2000/svg" width="98.7512mm" height="99mm" viewBox="0 0 279.9246 280.6298"><defs><style>.a{fill:#fff;}.b{fill:none;stroke:#000;stroke-miterlimit:10;stroke-width:3px;}.b,.c,.d,.e,.f,.h{fill-rule:evenodd;}.c{fill:#f79f79;}.d{fill:#f7d08a;}.e,.g{fill:#5b5941;}.f{fill:#d45113;}.h{fill:#e3f09b;}.i{fill:#1d1d1b;}</style></defs><circle class="a" cx="140.315" cy="140.3149" r="140.315"/><path class="b" d="M261.754,116.8828a124.2379,124.2379,0,0,1,.1576,46.6266"/><path class="c" d="M104.1124,54.6186a93.0569,93.0569,0,0,0,0,171.3912A93.006,93.006,0,0,0,206.08,74.5491a93.1066,93.1066,0,0,0-101.9678-19.93ZM106.9,219.4219a85.9028,85.9028,0,0,1,0-158.2139,85.8513,85.8513,0,0,1,94.1218,139.8125A85.9482,85.9482,0,0,1,106.9,219.4219Z"/><path class="d" d="M128.48,64.2861c-4.9865-.0946-3.94,11.0609-2.5012,21.3862.0783.5619,1.0978.6269,1.3828-.2923.2929-.9446.6313-1.9781.9878-3.0638C130.86,74.658,134.2179,64.41,128.48,64.2861Z"/><path class="d" d="M101.2613,80.267c-.1878-1.7692-.5267-4.96-2.1306-4.5972-1.6279.3671-2.6544,2.2661-1.1027,3.6173a10.0857,10.0857,0,0,1,2.2534,1.9569c.4617.7667.9855.1426,1.0038-.7638-.0084-.0678-.0155-.14-.024-.2132Z"/><path class="d" d="M196.2518,105.4251c-.3089.7027-.4594,1.0475.1089,1.4446.5138.3611.6371.2778,1.4231-.2566.3378-.23.8-.5441,1.468-.9429,11.5678-6.8879,2.31-13.846-.9061-9.4257-1.151,1.5835-1.0677,3.0918-1.2823,6.0283a8.7269,8.7269,0,0,1-.8116,3.1523Z"/><path class="d" d="M178.0319,146.0682a20.6991,20.6991,0,0,1,5.3731-1.0239c15.4047-1.6723,12.3238-11.1474,8.3722-12.3179-2.1951-.65-4.9878.8673-6.8912,2.5959-4.0171,3.6474-6.6948,9.2973-7.245,10.2295C177.5345,145.7328,177.7293,146.1947,178.0319,146.0682Z"/><path class="d" d="M155.4908,191.25c2.8558,5.4468,4.9568,12.6208,1.9223,17.989-4.04,7.1454-20.5441-.3226-13.3381-22.092,4.7481-11.4837,4.5611-9.3458,7.9356-14.2215.2251-.3238.6457-.2682,1.1435.0674.3416.2292.3252.2624.0929.745a16.3606,16.3606,0,0,0-1.11,3.0856C150.7643,181.8824,152.1625,184.9072,155.4908,191.25Z"/><path class="d" d="M107.1834,171.2623c-.2725-1.5982-.49-2.87-.5732-3.6794-.4137-4.0183-.1695-4.04-.7271-4.0649-1.2242-.055-1.3159,1.5319-1.2581,2.8507.473,10.6062-3.7839,18.9971-6.9239,25.1884-1.7127,3.3772-3.0935,6.0994-3.1952,8.1707-.24,4.9628,6.0232,6.4142,9.88,3.38,7.26-5.7126,4.247-23.3572,2.797-31.8456Z"/><path class="d" d="M182.5255,195.0431c-2.3879-4.0974-1.655-8.3675-2.3164-11.8052-.1592-.8275.9487-.9591,1.3854-.4834a40.56,40.56,0,0,0,5.5607,4.7832c2.72,2.0626,5.1963,3.9411,6.1658,6.4069C195.2637,198.885,186.2733,201.4736,182.5255,195.0431Z"/><path class="d" d="M117.5011,207.5953c-1.0886-6.218-3.5044-8.6155-3.64-10.7644-.0593-.9389-.4786-1.1662-1.2114-1.018-.401.0805-.3671.3092-.3022.76a4.5431,4.5431,0,0,1-.1355,2.1813c-.2457.8105-.5379,1.6153-.8288,2.4172a17.3071,17.3071,0,0,0-1.42,6.0289c-.0254,2.5951.8048,5.6038,3.3321,6.2335,3.8432.9573,4.8259-2.3,4.2061-5.8382Z"/><path class="e" d="M172.0583,211.8934c-4.0927,3.7413-8.541-1.5811-10.2667-6.382a26.1526,26.1526,0,0,1-1.3418-8.7669c-.0426-.4906.19-.7274.444-.7569a.17.17,0,0,1,.0463-.0017c.0491.0105.0729.089.1925.4853.0727.2407.1808.5995.3522,1.1322,1.1449,3.5611,3.4521,4.53,5.8123,5.5224,1.9324.8114,3.9,1.6388,5.2955,3.9138a3.749,3.749,0,0,1-.5343,4.8538Z"/><path class="f" d="M99.316,163.9231c.02-.1807.0452-.1934.048-.1948-.0014,0-.0056-.0014-.0141-.01-.0169.0367-.031.0664-.0409.09-.0311.0649-.04.0861-.0339.0946s.02.0084.0409.02Z"/><path class="e" d="M193.6954,156.7783c6.3555,2.1478,12.1716,4.1147,17.4972,2.32,10.8407-3.6541,8.0642-22.0032-15.2733-15.86a79.7748,79.7748,0,0,0-14.26,5.156q-.7824.3415-1.5791.688c-1.4308.6206-2.5183,1.0349-3.33,1.3422-1.98.7529-2.3089.878-1.9547,1.851.2894.7932,1.25.82,2.1925.825,5.9454.0406,11.507,1.92,16.7072,3.6776Z"/><path class="g" d="M155.2048,75.5867a23.9658,23.9658,0,0,1,11.8116,4.5039,30.5322,30.5322,0,0,1,8.22,9.1591,41.0769,41.0769,0,0,1,4.6279,11.9844A46.1106,46.1106,0,0,1,180.9,114.2107q-1.2437,23.9693-12.7784,40.15-11.5371,16.1835-33.0859,25.3418.8277,4.5805,1.5879,9.2363.7587,4.6583,1.4512,9.541a13.6,13.6,0,0,1-.9668,7.9385,8.816,8.816,0,0,1-6.0791,4.8857,10.1094,10.1094,0,0,1-6.5616-.3818,9.3374,9.3374,0,0,1-5.0429-4.3506q-3.4542-8.09-6.0782-21.6787-2.6264-13.5849-4.4209-29.6162-1.7958-16.03-2.7627-32.7471-.9682-16.7152-1.1054-31.0664,0-4.8838,2.9013-7.4805a10.2585,10.2585,0,0,1,6.5616-2.748,11.1727,11.1727,0,0,1,6.8388,1.9844,9.312,9.312,0,0,1,3.8682,6.7177,50.3663,50.3663,0,0,1,6.1475-6.26,35.6139,35.6139,0,0,1,7.1836-4.8086,33.73,33.73,0,0,1,8.0127-2.8242A27.1883,27.1883,0,0,1,155.2048,75.5867Zm5.5264,37.708q0-7.0211-2.1416-10.84a9.5308,9.5308,0,0,0-5.3184-4.8086,9.36,9.36,0,0,0-6.8388.6875,17.6411,17.6411,0,0,0-6.7,5.8008,39.9188,39.9188,0,0,0-6.0781,11.7549A61.15,61.15,0,0,0,130.96,129.4a109.1342,109.1342,0,0,0-.2754,14.5791q.3427,7.4825,1.0362,14.8086a25.3409,25.3409,0,0,1,2.5556-1.374,30.2486,30.2486,0,0,0,2.8321-1.5264,32.451,32.451,0,0,0,8.98-7.1748,57.4473,57.4473,0,0,0,7.5283-10.5342,60.5156,60.5156,0,0,0,5.1806-12.289A44.005,44.005,0,0,0,160.7312,113.2947Z"/><path class="e" d="M209.7147,128.9721c2.5076-2.9366-6.7712-9.1366-12.1791,3.5279-.4236.9923-.3541,1.3036.1644,1.574.5473.2874.7655.1653,1.4235-.2053a17.4967,17.4967,0,0,1,3.5113-1.5155c2.3123-.7527,5.5314-1.5655,7.08-3.3811Z"/><path class="e" d="M185.0286,114.1065c2.5574-13.2811-2.6619-21.3222.9951-28.1247,2.4348-4.53,8.3487-4.1169,9.8589,1.8063,1.2209,5.0778.3078,12.45-5.2157,20.5749-4.4319,6.5187-4.4506,6.5172-4.9608,6.4924-.0131-.0008-.0273-.0014-.0417-.0029-.5744-.0227-.7445-.1787-.6357-.7459Z"/><path class="e" d="M78.7367,105.7551c-9.8885-8.7827,5.3923-17.5985,6.4758-3.2788.0288.59.0507,1.0955.07,1.5358a15.0605,15.0605,0,0,0,.5885,4.48c.18.6258.33,1.247-.2183,1.5863-.3993.2459-.7.0247-.9744-.1773-.0235-.0168-.0455-.0325-.0677-.0495a70.1686,70.1686,0,0,1-5.8738-4.0961Z"/><path class="e" d="M116.5081,69.4511c-4.1759-2.4316-8.4558,2.3109-7.2488,5.8821,1.1216,3.3176,5.9224,3.2461,10.15,4.6781.7609.2569,1.5945-.824,1.368-1.7164a4.4154,4.4154,0,0,0-.2362-.6343c-.0566-.1352-.1207-.2851-.1911-.4642a11.3267,11.3267,0,0,1-.39-1.6827c-.3617-1.9721-.8329-4.5362-3.4521-6.0626Z"/><path class="e" d="M74.6815,131.8325c-16.3018.7257-9.2253-17.0827.2372-4.0268a8.472,8.472,0,0,0,2.3283,2.2619c.4913.3332.7257.4928.5831.9474-.2725.8754-1,.86-2.3056.83C75.2661,131.84,74.9851,131.8325,74.6815,131.8325Z"/><path class="e" d="M88.7863,195.5755c-3.3536-.1734-6.04-2.3206-5.6913-6.2331,1.052-11.7868,17.0323-26.8227,20.5338-32.5635.3853-.6329,1.7936-.2565,1.369.6822-2.1012,4.6484-3.5923,7.1315-4.6819,13.834-.15.9294-.3,1.966-.4594,3.0718C98.6207,182.9605,96.7721,195.8008,88.7863,195.5755Z"/><path class="e" d="M69.2723,167.2965a2.4127,2.4127,0,0,1-2.65-2.4835c-.1525-1.7932,2.0331-2.0388,4.1877-2.28a15.2294,15.2294,0,0,0,2.5443-.4235c.0353-.01.072-.024.11-.0382.1864-.0677.3939-.1426.5464.0579a.81.81,0,0,1,.0833.9347c-.0424.0607-.0974.1454-.1652.2471-.7017,1.0561-2.684,4.0409-4.6565,3.9858Z"/><path class="c" d="M155.7288,66.0016c-3.5887-5.0055-9.8063.4206-10.682,4.8976-.11.5628.2272.8534.5941,1.1508.3525.2843.6569.1524,1.0236-.0381A20.3851,20.3851,0,0,1,149.622,70.97c3.4529-1.0544,7.9319-2.4232,6.1067-4.9686Z"/><path class="c" d="M142.3325,205.5929c.7.7164.0063,11.32-3.5074,12.7041-2.6593.6639-5.2332-2.0954-4.6712-5.4441.5522-3.2941,2.6034-2.2362,6.354-6.6184.6007-.7011,1.2324-1.2478,1.8246-.6416Z"/><path class="c" d="M184.92,83.969c-1.0857,2.4551-2.307,5.2164-2.1053,7.7547.0486.6181-.1414.7953-.8264.701-.8055-.1121-.6046-.331-1.3175-1.1725-.1764-.2077-.3573-.4187-.5381-.631-2.2582-2.6371-4.77-5.5716-4.3947-8.99.63-8.4481,11.9816-7.2843,10.5987-1.375A23.12,23.12,0,0,1,184.92,83.969Z"/><path class="c" d="M98.1975,92.1881a10.8589,10.8589,0,0,1,4.583.2923c.401.168.6552-.1356.8881-.4137l.024-.0283c.2881-.3431-3.1754-8.5575-6.1573-11.1216-4.0239-3.4591-9.9059.6043-8.4432,6.3183,1.395,5.4486,5.4556,5.1874,9.1054,4.953Z"/><path class="c" d="M75.5233,105.8817c-7.3786-.0917-15.4138,16.1635,18.3152,28.5276,2.3367.857,4.168,1.5347,5.6053,2.067,4.5,1.6675,5.1407,1.9061,5.35,1.7014a.91.91,0,0,0,.1186-.2033c.2316-.4292.1963-.8232-.1807-1.0476a22.2586,22.2586,0,0,1-3.0074-2.45c-13.382-11.5452-16.234-28.2946-26.2007-28.5953Z"/><path class="c" d="M82.1792,157.4055c-4.1058,2.485-9.8241,7.77-9.82,12.2794-.14,4.0818,4.3077,6.3338,8.2836,5.65,10.9282-1.8778,16.5645-23.3939,25.7151-27.0154.7073-.281-.3474-1.3865-1.8313-.6495-7.452,3.7077-15.0989,5.3483-22.3476,9.7351Z"/><path class="c" d="M69.692,150.2557c-2.8464-.7469-5.9611-1.0787-5.3963,2.0049,1.3455,7.3645,11.2585,5.899,18.49-.4631a.7287.7287,0,0,0-.6029-1.2439A28.4662,28.4662,0,0,1,69.692,150.2557Z"/><path class="c" d="M163.4979,169.8405a48.973,48.973,0,0,1,1.7536-5.9854c.383-1.0719,2.046-1.56,2.3918-.1054a86.4754,86.4754,0,0,0,4.8485,13.4289c3.1341,7.3832,5.9611,14.0437,3.6638,18.7133-3.9794,8.09-19.4369,4.3947-12.7292-25.7469l.0715-.3045Z"/><path class="c" d="M109.4484,201.1106c-.0008-.54-.9833-.3516-1.2487.0716-1.232,1.9729-3.0694,2.4-4.1417,4.7553C102.5093,209.3382,109.4871,210.5364,109.4484,201.1106Z"/><path class="c" d="M198.5317,169.9432c12.2478,12.2638-7.5153,25.4776-16.8951,4.5729-1.4343-3.1967-3.3888-9.3081-6.7075-13.53a12.7652,12.7652,0,0,0-4.4183-3.7377c-.5853-.3076-.7666-.4034-.3354-.652a1.411,1.411,0,0,1,1.5106-.214c3.4367,2.0074,17.8725,4.5762,26.8457,13.5612Z"/><path class="c" d="M210.6557,140.64c-2.5659-.6712-5.4518-1.4263-7.9385-.9311-.6056.12-.8048-.0286-.7974-.6554.01-.7373.2516-.584.9949-1.3283.1834-.1842.3695-.3728.5569-.5614,2.3262-2.3543,4.9148-4.9736,8.3449-5.0591,8.44-.48,8.7129,9.8589,2.6914,9.3482a24.8636,24.8636,0,0,1-3.8522-.8129Z"/><path class="c" d="M184.7,125.2823a48.9878,48.9878,0,0,0-3.019,5.4577c-.4921,1.0264.3308,2.5517,1.6081,1.7736A86.47,86.47,0,0,1,196.243,126.51c7.4514-2.9682,14.1731-5.6461,15.8747-10.5642,2.948-8.52-10.554-16.9032-27.2513,9.072l-.1661.2651Z"/><path class="h" d="M160.0032,174.63a20.4906,20.4906,0,0,1-.3633-5.3692c.0494-.5871-.2128-.6264-.5981-.6278-.0108-.0008-.0224,0-.0321,0-.2532-.0093-.2884-.0108-2.818,4.9-1.8286,3.5488-3.6436,8.1371-1.5476,9.4645,1.53.9684,3.9439.1985,5.0728-2.4467.9269-2.0573.6312-3.8438.2863-5.92Z"/><path class="h" d="M167.0239,75.0269c8.3153,2.8622,9.8017-.7794,7.2617-3.4408-4.8346-6.032-18.4713-.7039-18.1284,1.0141a1.5352,1.5352,0,0,0,1.4952,1.0958C160.9681,73.18,164.0134,73.99,167.0239,75.0269Z"/><path class="h" d="M171.047,162.2126c-1.48-1.2217-1.6875-2.0744-1.9682-2.0237-.2123.0374-.41.5943-.1671,1.0407a63.2688,63.2688,0,0,1,2.7386,6.8891c.6475,1.7988,1.2562,3.4908,1.716,4.5364,2.85,7.3133,5.4973,2.3919,4.8862-.7458-.6944-3.57-4.4926-7.4564-7.2055-9.6967Z"/><path class="h" d="M82.5127,91.677c.13,2.0213,3.1031,2.51,4.7555,3.69.2832.2023.5563.3846.95.1486l.1141-.0674c.3158-.1824.63-.3647.5032-.7417a8.3935,8.3935,0,0,1-.33-1.8757,4.3565,4.3565,0,0,0-1.53-3.4786c-1.6911-1.3332-4.458.544-4.4621,2.3247Z"/><path class="h" d="M104.8683,129.657a46.96,46.96,0,0,1-1.0322-12.3387c.0565-5.6829-.7144-18.0187-4.7072-22.1386-2.3311-2.4059-4.9925-2.1179-7.2149-.2189-13.3086,11.3814,8.4093,33.9041,11.6341,36.6107.9446.7921,1.6039-.7737,1.32-1.9145Z"/><path class="h" d="M135.3465,75.0761c1.287-1.1493,4.9731-3.1078,6.6659-6.4006,2.6639-6.2-6.0182-8.2955-7.6087-2.1207-1.2135,4.7064-.0361,7.3261-.2174,7.8443-.008.026-.0186.0507-.0286.0772-.0752.2006-.1541.412.1125.5418l.0165.0081c.3381.1666.72.3531,1.06.05Z"/><path class="h" d="M210.6444,172.9312c1.8721-1.39,2.9982-5.9887-2.9419-8.4659-4.1428-1.7291-8.4178-1.82-10.0449-1.3378-.336.0339-.449.34-.4787.7125-.0295.349.2188.4362.4631.5226.0247.0092.0506.0181.0754.0273,1.9618.7234,3.5842,2.8248,5.1509,4.8563,2.3829,3.089,4.6406,6.015,7.7761,3.685Z"/><path class="h" d="M76.3871,184.4871c3.589,3.26,6.1093-1.2778,6.8294-4.9981a.5769.5769,0,0,0-.35-.7314c-.49-.2513-.7356-.15-1.9625.3642-.1384.0579-.2881.12-.4519.1878-1.5361.6368-4.5449,1.9626-4.63,3.6286a1.8723,1.8723,0,0,0,.5648,1.5489Z"/><path class="h" d="M95.7733,139.2653c-12.7114-4.1072-29.32-9.4739-31.0182,1.0632-2.3169,14.3746,26.2516,7.2769,40.1066,3.5227,1.4966-.4052.5224-1.7437-.1214-1.8976-2.4765-.59-5.5841-1.5955-8.967-2.6883Z"/><path class="h" d="M177.1828,203.73c-.6674,3.935,5.0534,4.1862,5.8679,1.2558.9649-3.3013-1.6944-8.1851-2.4484-8.0187-.0333.0079-.0688.0136-.1051.0221-.28.0559-.5949.1206-.6433.43a9.8405,9.8405,0,0,1-1.3236,3.14A10.246,10.246,0,0,0,177.1828,203.73Z"/><path class="h" d="M144.2019,209.6384c.1086-.5287,1.0337-.1481,1.2093.32.8131,2.1792,2.5281,2.9645,3.1083,5.4868C149.3577,219.0863,142.2812,218.8665,144.2019,209.6384Z"/><path d="M11.5212,100.7483l.5948-1.67,8.1054,2.8867a7.8532,7.8532,0,0,1-1.413-3.0166,5.33,5.33,0,0,1,.207-2.8965,4.5493,4.5493,0,0,1,1.7373-2.291,5.0843,5.0843,0,0,1,2.7871-.8828,13.5473,13.5473,0,0,1,4.5078,1.0009l7.3818,2.6289-.5947,1.67-6.8418-2.4366a20.46,20.46,0,0,0-3.372-1,4.0825,4.0825,0,0,0-2.543.3653,3.31,3.31,0,0,0-1.48,1.8847,4.1264,4.1264,0,0,0,.1406,3.1075,5.5991,5.5991,0,0,0,2.1788,2.5576,22.1711,22.1711,0,0,0,3.8164,1.6279l5.26,1.8731-.5947,1.67Z"/><path d="M41.2263,75.0588l1.5127-.8349a8.9983,8.9983,0,0,1,1.335,2.78,6.6987,6.6987,0,0,1,.164,2.625,6.9268,6.9268,0,0,1-.9628,2.6,6.3062,6.3062,0,0,1-4.8047,3.2666,9.02,9.02,0,0,1-9.3125-5.2421,6.3691,6.3691,0,0,1,.3359-6.167,6.575,6.575,0,0,1,5.4248-3.3086,8.84,8.84,0,0,1,5.2461,1.372l-6.373,10.6319a6.5676,6.5676,0,0,0,4.5185.92,4.6738,4.6738,0,0,0,3.3379-2.2705,5.3683,5.3683,0,0,0,.7061-1.9639,5.2766,5.2766,0,0,0-.0508-2.0029A9.0629,9.0629,0,0,0,41.2263,75.0588ZM37.71,72.9514A6.83,6.83,0,0,0,35.031,72.55a4.98,4.98,0,0,0-2.2187.7617,5.0606,5.0606,0,0,0-1.6973,1.7168,4.7858,4.7858,0,0,0-.5566,3.7315,6.7,6.7,0,0,0,1.873,2.999Z"/><path d="M40.5076,59.0237l1.1718-1.38,1.6954,1.44a6.7577,6.7577,0,0,1-.3916-2.5752,3.159,3.159,0,0,1,.7168-1.85,3.0168,3.0168,0,0,1,1.4111-.8613l.66,1.7734a2.2612,2.2612,0,0,0-.8085.542,2.4425,2.4425,0,0,0-.4942,1.8232,5.2407,5.2407,0,0,0,1.0928,2.5723,26.3281,26.3281,0,0,0,3.7959,3.6572l3.9248,3.333-1.1719,1.38Z"/><path d="M62.1238,57.8108,48.5359,41.6682l1.3564-1.1416,5.4688,6.498a7.6851,7.6851,0,0,1,.4512-3.333,6.2332,6.2332,0,0,1,1.831-2.52A6.4258,6.4258,0,0,1,62.97,39.7512a8.2946,8.2946,0,0,1,5.2451,3.0205A8.1714,8.1714,0,0,1,70.25,48.4289,6.5024,6.5024,0,0,1,67.9119,53.45a5.9152,5.9152,0,0,1-2.8457,1.3526,7.386,7.386,0,0,1-3.3887-.2745l1.8018,2.1407Zm4.46-5.711a4.9416,4.9416,0,0,0,1.5694-2.373,5.6585,5.6585,0,0,0,.0674-3.01A6.7842,6.7842,0,0,0,64.2419,42a5.7854,5.7854,0,0,0-3.0048-.4609,4.8364,4.8364,0,0,0-2.5811,1.1025,5.1169,5.1169,0,0,0-1.584,2.4043,5.4464,5.4464,0,0,0-.1181,2.9785,6.81,6.81,0,0,0,1.4736,2.8389,6.4292,6.4292,0,0,0,4.05,2.37A4.968,4.968,0,0,0,66.5837,52.1Z"/><path d="M70.6677,24.6916a1.3406,1.3406,0,0,1,1.1309-.1269,1.6582,1.6582,0,0,1,.96.7607,1.6417,1.6417,0,0,1,.2187,1.1924,1.3447,1.3447,0,0,1-.64.9414,1.3294,1.3294,0,0,1-1.12.12,1.6379,1.6379,0,0,1-.9521-.749,1.6576,1.6576,0,0,1-.2266-1.2041A1.33,1.33,0,0,1,70.6677,24.6916Zm2.4854,5.8213,1.5176-.916,7.8662,13.0342-1.5176.916Z"/><path d="M84.3982,24.19l1.7383-.7324L94.7048,31.89l-.0966-12.001,1.75-.7363.0976,16.4765-.3027.128Z"/><path d="M113.8689,13.9416a6.5509,6.5509,0,0,1,5.6855,1.417,8.4134,8.4134,0,0,1,2.9834,4.9951,8.3915,8.3915,0,0,1-.831,5.8692,6.8053,6.8053,0,0,1-10.1328,2.11,8.3876,8.3876,0,0,1-3.1045-5.0488,8.3865,8.3865,0,0,1,.7441-5.7578A6.5463,6.5463,0,0,1,113.8689,13.9416Zm.3848,1.878a4.8985,4.8985,0,0,0-3.3516,2.542,6.3778,6.3778,0,0,0-.6641,4.5976,6.7087,6.7087,0,0,0,1.337,2.8662,5.436,5.436,0,0,0,2.3652,1.7578A5.1067,5.1067,0,0,0,119.239,26.48a5.4474,5.4474,0,0,0,1.4658-2.5566,6.72,6.72,0,0,0,.0821-3.1612,6.3669,6.3669,0,0,0-2.4522-3.9482A4.9,4.9,0,0,0,114.2537,15.82Z"/><path d="M132.3884,11.8362l1.81-.0743.09,2.2237a6.7606,6.7606,0,0,1,1.628-2.0342,3.15,3.15,0,0,1,1.8457-.7266,3.0125,3.0125,0,0,1,1.59.4532l-.8554,1.6875a2.29,2.29,0,0,0-.9473-.2276,2.4436,2.4436,0,0,0-1.6748.874,5.236,5.236,0,0,0-1.1514,2.5459,26.4574,26.4574,0,0,0-.1142,5.2706l.21,5.1445-1.8095.0742Z"/><path d="M159.97,23.301l1.3779,1.043a9.0236,9.0236,0,0,1-1.998,2.3486,6.6958,6.6958,0,0,1-2.3321,1.2168,6.9263,6.9263,0,0,1-2.7666.1758,6.3041,6.3041,0,0,1-4.9365-3.0635,9.0241,9.0241,0,0,1,1.0069-10.64,6.3692,6.3692,0,0,1,5.7714-2.1973,6.574,6.574,0,0,1,5.2266,3.6133,8.8287,8.8287,0,0,1,.8779,5.3506l-12.3037-1.5039a6.5638,6.5638,0,0,0,.9942,4.5019,4.6764,4.6764,0,0,0,3.4306,2.1279,5.365,5.365,0,0,0,2.0811-.1523,5.2854,5.2854,0,0,0,1.81-.8594A9.0576,9.0576,0,0,0,159.97,23.301Zm.498-4.0693a6.838,6.838,0,0,0-.7216-2.6114,4.9793,4.9793,0,0,0-1.5977-1.7177,5.061,5.061,0,0,0-2.2578-.8545,4.7846,4.7846,0,0,0-3.6358,1.0078,6.7142,6.7142,0,0,0-1.98,2.93Z"/><path d="M190.2166,21.4573l1.5957.7724-1.2207,2.5186a7.4063,7.4063,0,0,1,3.2177-1.1,5.9366,5.9366,0,0,1,3.0909.6123,6.5006,6.5006,0,0,1,3.499,4.292,8.1506,8.1506,0,0,1-.5742,5.9726,8.3135,8.3135,0,0,1-4.3487,4.2285,6.4229,6.4229,0,0,1-5.5117-.0674,6.1912,6.1912,0,0,1-2.3916-1.998,7.8287,7.8287,0,0,1-1.26-3.1143l-3.5693,7.3663-1.5957-.7735Zm5.7275,4.4394a4.9709,4.9709,0,0,0-4.2578-.0918,6.4173,6.4173,0,0,0-3.3418,3.2891,6.8031,6.8031,0,0,0-.7285,3.11,5.4062,5.4062,0,0,0,.8506,2.85,5.1457,5.1457,0,0,0,2.1308,1.9336,4.8324,4.8324,0,0,0,2.7715.4356,5.7724,5.7724,0,0,0,2.7988-1.1836,6.738,6.738,0,0,0,2.6875-5.5313A5.6609,5.6609,0,0,0,198.05,27.81,4.95,4.95,0,0,0,195.9441,25.8967Z"/><path d="M219.0252,37.9934a6.5486,6.5486,0,0,1,2.6259,5.2373,8.8165,8.8165,0,0,1-6.8437,8.708,6.8044,6.8044,0,0,1-8.1992-6.3154,8.796,8.796,0,0,1,6.664-8.8291A6.5487,6.5487,0,0,1,219.0252,37.9934ZM217.85,39.508a4.899,4.899,0,0,0-4.1113-.8886,6.3843,6.3843,0,0,0-3.9228,2.49,6.7048,6.7048,0,0,0-1.3047,2.88,5.4471,5.4471,0,0,0,.206,2.94,5.1031,5.1031,0,0,0,4.2881,3.3027,5.4491,5.4491,0,0,0,2.8946-.5517,6.6922,6.6922,0,0,0,2.4521-1.9971,6.3643,6.3643,0,0,0,1.4014-4.4316A4.9073,4.9073,0,0,0,217.85,39.508Z"/><path d="M232.3611,49.7453l1.168,1.4L227.7449,61.469l11.3037-3.7051.206.2471L233.6,68.4885l11.2452-3.7744,1.1806,1.415-15.5234,5.1553-.21-.2519,5.5479-10.3643-11.1895,3.6006-.2119-.2529Z"/><path d="M248.1267,90.7385l-.0879,1.7256a9.01,9.01,0,0,1-3.0664-.332,6.6919,6.6919,0,0,1-2.3164-1.2452,6.9286,6.9286,0,0,1-1.7012-2.1894,6.3076,6.3076,0,0,1-.2412-5.8047,9.023,9.023,0,0,1,9.3653-5.1475,6.3707,6.3707,0,0,1,5.0625,3.5381,6.573,6.573,0,0,1-.0508,6.3535,8.832,8.832,0,0,1-3.9317,3.7344l-5.6718-11.0224a6.561,6.561,0,0,0-3.1651,3.3535,4.6794,4.6794,0,0,0,.168,4.0342,5.3836,5.3836,0,0,0,1.2969,1.6347,5.272,5.272,0,0,0,1.7285,1.0137A9.0525,9.0525,0,0,0,248.1267,90.7385Zm3.6455-1.876a6.8346,6.8346,0,0,0,1.7539-2.0644,4.9864,4.9864,0,0,0,.5225-2.2871,5.0607,5.0607,0,0,0-.5625-2.3477,4.7887,4.7887,0,0,0-2.877-2.44,6.7148,6.7148,0,0,0-3.5361.0088Z"/><path d="M262.1189,98.5852l.5518,1.7246-2.1192.6777a6.7788,6.7788,0,0,1,2.3936,1.0293,3.1454,3.1454,0,0,1,1.19,1.586,3.0084,3.0084,0,0,1-.0146,1.6533l-1.8536-.377a2.2773,2.2773,0,0,0-.0322-.9736,2.4506,2.4506,0,0,0-1.2871-1.3828,5.2449,5.2449,0,0,0-2.7607-.4326,26.4025,26.4025,0,0,0-5.1114,1.29l-4.9043,1.5693-.5517-1.7246Z"/><path class="i" d="M11.5212,100.7483l.5948-1.67,8.1054,2.8867a7.8532,7.8532,0,0,1-1.413-3.0166,5.33,5.33,0,0,1,.207-2.8965,4.5493,4.5493,0,0,1,1.7373-2.291,5.0843,5.0843,0,0,1,2.7871-.8828,13.5473,13.5473,0,0,1,4.5078,1.0009l7.3818,2.6289-.5947,1.67-6.8418-2.4366a20.46,20.46,0,0,0-3.372-1,4.0825,4.0825,0,0,0-2.543.3653,3.31,3.31,0,0,0-1.48,1.8847,4.1264,4.1264,0,0,0,.1406,3.1075,5.5991,5.5991,0,0,0,2.1788,2.5576,22.1711,22.1711,0,0,0,3.8164,1.6279l5.26,1.8731-.5947,1.67Z"/><path class="i" d="M41.2263,75.0588l1.5127-.8349a8.9983,8.9983,0,0,1,1.335,2.78,6.6987,6.6987,0,0,1,.164,2.625,6.9268,6.9268,0,0,1-.9628,2.6,6.3062,6.3062,0,0,1-4.8047,3.2666,9.02,9.02,0,0,1-9.3125-5.2421,6.3691,6.3691,0,0,1,.3359-6.167,6.575,6.575,0,0,1,5.4248-3.3086,8.84,8.84,0,0,1,5.2461,1.372l-6.373,10.6319a6.5676,6.5676,0,0,0,4.5185.92,4.6738,4.6738,0,0,0,3.3379-2.2705,5.3683,5.3683,0,0,0,.7061-1.9639,5.2766,5.2766,0,0,0-.0508-2.0029A9.0629,9.0629,0,0,0,41.2263,75.0588ZM37.71,72.9514A6.83,6.83,0,0,0,35.031,72.55a4.98,4.98,0,0,0-2.2187.7617,5.0606,5.0606,0,0,0-1.6973,1.7168,4.7858,4.7858,0,0,0-.5566,3.7315,6.7,6.7,0,0,0,1.873,2.999Z"/><path class="i" d="M40.5076,59.0237l1.1718-1.38,1.6954,1.44a6.7577,6.7577,0,0,1-.3916-2.5752,3.159,3.159,0,0,1,.7168-1.85,3.0168,3.0168,0,0,1,1.4111-.8613l.66,1.7734a2.2612,2.2612,0,0,0-.8085.542,2.4425,2.4425,0,0,0-.4942,1.8232,5.2407,5.2407,0,0,0,1.0928,2.5723,26.3281,26.3281,0,0,0,3.7959,3.6572l3.9248,3.333-1.1719,1.38Z"/><path class="i" d="M62.1238,57.8108,48.5359,41.6682l1.3564-1.1416,5.4688,6.498a7.6851,7.6851,0,0,1,.4512-3.333,6.2332,6.2332,0,0,1,1.831-2.52A6.4258,6.4258,0,0,1,62.97,39.7512a8.2946,8.2946,0,0,1,5.2451,3.0205A8.1714,8.1714,0,0,1,70.25,48.4289,6.5024,6.5024,0,0,1,67.9119,53.45a5.9152,5.9152,0,0,1-2.8457,1.3526,7.386,7.386,0,0,1-3.3887-.2745l1.8018,2.1407Zm4.46-5.711a4.9416,4.9416,0,0,0,1.5694-2.373,5.6585,5.6585,0,0,0,.0674-3.01A6.7842,6.7842,0,0,0,64.2419,42a5.7854,5.7854,0,0,0-3.0048-.4609,4.8364,4.8364,0,0,0-2.5811,1.1025,5.1169,5.1169,0,0,0-1.584,2.4043,5.4464,5.4464,0,0,0-.1181,2.9785,6.81,6.81,0,0,0,1.4736,2.8389,6.4292,6.4292,0,0,0,4.05,2.37A4.968,4.968,0,0,0,66.5837,52.1Z"/><path class="i" d="M70.6677,24.6916a1.3406,1.3406,0,0,1,1.1309-.1269,1.6582,1.6582,0,0,1,.96.7607,1.6417,1.6417,0,0,1,.2187,1.1924,1.3447,1.3447,0,0,1-.64.9414,1.3294,1.3294,0,0,1-1.12.12,1.6379,1.6379,0,0,1-.9521-.749,1.6576,1.6576,0,0,1-.2266-1.2041A1.33,1.33,0,0,1,70.6677,24.6916Zm2.4854,5.8213,1.5176-.916,7.8662,13.0342-1.5176.916Z"/><path class="i" d="M84.3982,24.19l1.7383-.7324L94.7048,31.89l-.0966-12.001,1.75-.7363.0976,16.4765-.3027.128Z"/><path class="i" d="M113.8689,13.9416a6.5509,6.5509,0,0,1,5.6855,1.417,8.4134,8.4134,0,0,1,2.9834,4.9951,8.3915,8.3915,0,0,1-.831,5.8692,6.8053,6.8053,0,0,1-10.1328,2.11,8.3876,8.3876,0,0,1-3.1045-5.0488,8.3865,8.3865,0,0,1,.7441-5.7578A6.5463,6.5463,0,0,1,113.8689,13.9416Zm.3848,1.878a4.8985,4.8985,0,0,0-3.3516,2.542,6.3778,6.3778,0,0,0-.6641,4.5976,6.7087,6.7087,0,0,0,1.337,2.8662,5.436,5.436,0,0,0,2.3652,1.7578A5.1067,5.1067,0,0,0,119.239,26.48a5.4474,5.4474,0,0,0,1.4658-2.5566,6.72,6.72,0,0,0,.0821-3.1612,6.3669,6.3669,0,0,0-2.4522-3.9482A4.9,4.9,0,0,0,114.2537,15.82Z"/><path class="i" d="M132.3884,11.8362l1.81-.0743.09,2.2237a6.7606,6.7606,0,0,1,1.628-2.0342,3.15,3.15,0,0,1,1.8457-.7266,3.0125,3.0125,0,0,1,1.59.4532l-.8554,1.6875a2.29,2.29,0,0,0-.9473-.2276,2.4436,2.4436,0,0,0-1.6748.874,5.236,5.236,0,0,0-1.1514,2.5459,26.4574,26.4574,0,0,0-.1142,5.2706l.21,5.1445-1.8095.0742Z"/><path class="i" d="M159.97,23.301l1.3779,1.043a9.0236,9.0236,0,0,1-1.998,2.3486,6.6958,6.6958,0,0,1-2.3321,1.2168,6.9263,6.9263,0,0,1-2.7666.1758,6.3041,6.3041,0,0,1-4.9365-3.0635,9.0241,9.0241,0,0,1,1.0069-10.64,6.3692,6.3692,0,0,1,5.7714-2.1973,6.574,6.574,0,0,1,5.2266,3.6133,8.8287,8.8287,0,0,1,.8779,5.3506l-12.3037-1.5039a6.5638,6.5638,0,0,0,.9942,4.5019,4.6764,4.6764,0,0,0,3.4306,2.1279,5.365,5.365,0,0,0,2.0811-.1523,5.2854,5.2854,0,0,0,1.81-.8594A9.0576,9.0576,0,0,0,159.97,23.301Zm.498-4.0693a6.838,6.838,0,0,0-.7216-2.6114,4.9793,4.9793,0,0,0-1.5977-1.7177,5.061,5.061,0,0,0-2.2578-.8545,4.7846,4.7846,0,0,0-3.6358,1.0078,6.7142,6.7142,0,0,0-1.98,2.93Z"/><path class="i" d="M190.2166,21.4573l1.5957.7724-1.2207,2.5186a7.4063,7.4063,0,0,1,3.2177-1.1,5.9366,5.9366,0,0,1,3.0909.6123,6.5006,6.5006,0,0,1,3.499,4.292,8.1506,8.1506,0,0,1-.5742,5.9726,8.3135,8.3135,0,0,1-4.3487,4.2285,6.4229,6.4229,0,0,1-5.5117-.0674,6.1912,6.1912,0,0,1-2.3916-1.998,7.8287,7.8287,0,0,1-1.26-3.1143l-3.5693,7.3663-1.5957-.7735Zm5.7275,4.4394a4.9709,4.9709,0,0,0-4.2578-.0918,6.4173,6.4173,0,0,0-3.3418,3.2891,6.8031,6.8031,0,0,0-.7285,3.11,5.4062,5.4062,0,0,0,.8506,2.85,5.1457,5.1457,0,0,0,2.1308,1.9336,4.8324,4.8324,0,0,0,2.7715.4356,5.7724,5.7724,0,0,0,2.7988-1.1836,6.738,6.738,0,0,0,2.6875-5.5313A5.6609,5.6609,0,0,0,198.05,27.81,4.95,4.95,0,0,0,195.9441,25.8967Z"/><path class="i" d="M219.0252,37.9934a6.5486,6.5486,0,0,1,2.6259,5.2373,8.8165,8.8165,0,0,1-6.8437,8.708,6.8044,6.8044,0,0,1-8.1992-6.3154,8.796,8.796,0,0,1,6.664-8.8291A6.5487,6.5487,0,0,1,219.0252,37.9934ZM217.85,39.508a4.899,4.899,0,0,0-4.1113-.8886,6.3843,6.3843,0,0,0-3.9228,2.49,6.7048,6.7048,0,0,0-1.3047,2.88,5.4471,5.4471,0,0,0,.206,2.94,5.1031,5.1031,0,0,0,4.2881,3.3027,5.4491,5.4491,0,0,0,2.8946-.5517,6.6922,6.6922,0,0,0,2.4521-1.9971,6.3643,6.3643,0,0,0,1.4014-4.4316A4.9073,4.9073,0,0,0,217.85,39.508Z"/><path class="i" d="M232.3611,49.7453l1.168,1.4L227.7449,61.469l11.3037-3.7051.206.2471L233.6,68.4885l11.2452-3.7744,1.1806,1.415-15.5234,5.1553-.21-.2519,5.5479-10.3643-11.1895,3.6006-.2119-.2529Z"/><path class="i" d="M248.1267,90.7385l-.0879,1.7256a9.01,9.01,0,0,1-3.0664-.332,6.6919,6.6919,0,0,1-2.3164-1.2452,6.9286,6.9286,0,0,1-1.7012-2.1894,6.3076,6.3076,0,0,1-.2412-5.8047,9.023,9.023,0,0,1,9.3653-5.1475,6.3707,6.3707,0,0,1,5.0625,3.5381,6.573,6.573,0,0,1-.0508,6.3535,8.832,8.832,0,0,1-3.9317,3.7344l-5.6718-11.0224a6.561,6.561,0,0,0-3.1651,3.3535,4.6794,4.6794,0,0,0,.168,4.0342,5.3836,5.3836,0,0,0,1.2969,1.6347,5.272,5.272,0,0,0,1.7285,1.0137A9.0525,9.0525,0,0,0,248.1267,90.7385Zm3.6455-1.876a6.8346,6.8346,0,0,0,1.7539-2.0644,4.9864,4.9864,0,0,0,.5225-2.2871,5.0607,5.0607,0,0,0-.5625-2.3477,4.7887,4.7887,0,0,0-2.877-2.44,6.7148,6.7148,0,0,0-3.5361.0088Z"/><path class="i" d="M262.1189,98.5852l.5518,1.7246-2.1192.6777a6.7788,6.7788,0,0,1,2.3936,1.0293,3.1454,3.1454,0,0,1,1.19,1.586,3.0084,3.0084,0,0,1-.0146,1.6533l-1.8536-.377a2.2773,2.2773,0,0,0-.0322-.9736,2.4506,2.4506,0,0,0-1.2871-1.3828,5.2449,5.2449,0,0,0-2.7607-.4326,26.4025,26.4025,0,0,0-5.1114,1.29l-4.9043,1.5693-.5517-1.7246Z"/><path d="M31.8933,172.6257l.5947,1.67-8.1064,2.8887a7.8323,7.8323,0,0,1,3.002,1.4434,5.3335,5.3335,0,0,1,1.67,2.375,4.5464,4.5464,0,0,1,.1025,2.873,5.0878,5.0878,0,0,1-1.6016,2.4473,13.5636,13.5636,0,0,1-4.1259,2.0722l-7.3809,2.629-.5947-1.67,6.8408-2.4355a20.4317,20.4317,0,0,0,3.2441-1.3574,4.0819,4.0819,0,0,0,1.7413-1.8887,3.3241,3.3241,0,0,0-.045-2.3984,4.1272,4.1272,0,0,0-2.0732-2.3184,5.5856,5.5856,0,0,0-3.3047-.6035,22.0553,22.0553,0,0,0-3.9863,1.15l-5.2588,1.873-.5947-1.67Z"/><path d="M32.2429,210.9558l.0244,1.7285a9.0111,9.0111,0,0,1-3.082-.1328,6.6706,6.6706,0,0,1-2.3916-1.0938,6.9078,6.9078,0,0,1-1.8389-2.0742,6.3067,6.3067,0,0,1-.6162-5.7773,9.02,9.02,0,0,1,9.0127-5.7422,6.3707,6.3707,0,0,1,5.28,3.2031,6.5722,6.5722,0,0,1,.36,6.3438,8.8275,8.8275,0,0,1-3.6826,3.98l-6.372-10.6308a6.5566,6.5566,0,0,0-2.9414,3.5508,4.6739,4.6739,0,0,0,.4287,4.0136,5.4063,5.4063,0,0,0,1.3994,1.5489,5.2642,5.2642,0,0,0,1.79.8984A8.9983,8.9983,0,0,0,32.2429,210.9558Zm3.5166-2.1074a6.8361,6.8361,0,0,0,1.6172-2.1739A4.9835,4.9835,0,0,0,37.75,204.36a5.055,5.055,0,0,0-.7129-2.3067,4.7871,4.7871,0,0,0-3.0283-2.25,6.69,6.69,0,0,0-3.5284.2383Z"/><path d="M48.032,215.2156l1.1719,1.3808-1.6953,1.44a6.715,6.715,0,0,1,2.6044.0312,3.1452,3.1452,0,0,1,1.709,1.0059,3.02,3.02,0,0,1,.6221,1.5312l-1.8574.3653a2.2807,2.2807,0,0,0-.4033-.8868,2.4488,2.4488,0,0,0-1.72-.7812,5.2309,5.2309,0,0,0-2.7148.6621,26.28,26.28,0,0,0-4.2236,3.1543l-3.9239,3.334-1.1719-1.3809Z"/><path d="M48.8367,238.5261,62.43,222.3874l1.3555,1.1426-5.4717,6.4961a7.67,7.67,0,0,1,3.3613-.123,6.233,6.233,0,0,1,2.795,1.375,6.4282,6.4282,0,0,1,2.3066,5.0078,8.2954,8.2954,0,0,1-2.083,5.6816,8.17,8.17,0,0,1-5.2285,2.9688,6.4989,6.4989,0,0,1-5.3467-1.4493,5.9432,5.9432,0,0,1-1.8174-2.5722,7.4081,7.4081,0,0,1-.3056-3.3867l-1.8038,2.1406Zm6.3877,3.4219a4.9435,4.9435,0,0,0,2.6054,1.1426,5.6708,5.6708,0,0,0,2.9766-.4454,6.7845,6.7845,0,0,0,3.9707-4.7246,5.77,5.77,0,0,0-.0576-3.039,4.8343,4.8343,0,0,0-1.5254-2.3555,5.127,5.127,0,0,0-2.6387-1.1523,5.445,5.445,0,0,0-2.9551.3925A6.7938,6.7938,0,0,0,55.0535,233.7a6.43,6.43,0,0,0-1.6455,4.3946A4.9642,4.9642,0,0,0,55.2244,241.948Z"/><path d="M78.2527,241.6648l1.5176.916L71.905,255.614l-1.5175-.916Zm3.9922-4.9121a1.3463,1.3463,0,0,1,.64.9414,1.6654,1.6654,0,0,1-.2256,1.2051,1.6344,1.6344,0,0,1-.9531.748,1.344,1.344,0,0,1-1.1308-.127,1.3258,1.3258,0,0,1-.628-.9355,1.6338,1.6338,0,0,1,.2178-1.1914,1.6529,1.6529,0,0,1,.96-.76A1.329,1.329,0,0,1,82.2449,236.7527Z"/><path d="M88.2293,247.3425l1.7382.7324-.0459,12.0215,8.5176-8.4531,1.75.7363-11.72,11.584-.3027-.1289Z"/><path d="M116.0418,256.2566a6.5485,6.5485,0,0,1,4.6455,3.57,8.8175,8.8175,0,0,1-2.3633,10.82,6.806,6.806,0,0,1-10.1328-2.1113,8.7941,8.7941,0,0,1,2.15-10.85A6.5485,6.5485,0,0,1,116.0418,256.2566Zm-.3975,1.8769a4.8936,4.8936,0,0,0-4.0879.9922,6.3735,6.3735,0,0,0-2.4443,3.9492,6.7122,6.7122,0,0,0,.081,3.1621,5.442,5.442,0,0,0,1.4658,2.5547,5.1086,5.1086,0,0,0,5.3,1.1055,5.4441,5.4441,0,0,0,2.3643-1.76,6.6931,6.6931,0,0,0,1.3369-2.8652,6.36,6.36,0,0,0-.6709-4.6A4.9,4.9,0,0,0,115.6443,258.1335Z"/><path d="M132.7918,258.93l1.8085.0742-.0908,2.2227a6.7588,6.7588,0,0,1,1.7881-1.8946,3.1646,3.1646,0,0,1,1.8994-.5742,3.0116,3.0116,0,0,1,1.5469.5821l-.99,1.6113a2.2812,2.2812,0,0,0-.9258-.3027,2.4388,2.4388,0,0,0-1.74.7343,5.2434,5.2434,0,0,0-1.3545,2.4434,26.38,26.38,0,0,0-.543,5.2441l-.21,5.1446-1.8095-.0743Z"/><path d="M161.2419,267.7234l1.5889.68a9.0319,9.0319,0,0,1-1.373,2.7617,6.681,6.681,0,0,1-1.9707,1.7422,6.922,6.922,0,0,1-2.6426.8379,6.3078,6.3078,0,0,1-5.5293-1.7832,9.023,9.023,0,0,1-1.5859-10.5684,6.37,6.37,0,0,1,5.0712-3.5254,6.576,6.576,0,0,1,5.9434,2.248,8.8386,8.8386,0,0,1,2.1416,4.9825l-12.3037,1.5039a6.5652,6.5652,0,0,0,2.05,4.1308,4.68,4.68,0,0,0,3.8428,1.2383,5.5624,5.5624,0,0,0,3.5322-1.92A9.0822,9.0822,0,0,0,161.2419,267.7234Zm-.497-4.0684a6.8417,6.8417,0,0,0-1.33-2.3613,5.0112,5.0112,0,0,0-1.9639-1.2832,5.0623,5.0623,0,0,0-2.3974-.2832,4.7832,4.7832,0,0,0-3.2862,1.8535,6.7054,6.7054,0,0,0-1.2158,3.32Z"/><path d="M185.9119,250.29l1.5947-.7735,1.2207,2.52a7.4059,7.4059,0,0,1,1.13-3.2071,5.9218,5.9218,0,0,1,2.3955-2.0468,6.5013,6.5013,0,0,1,5.5381-.0879,8.1479,8.1479,0,0,1,4.331,4.15,8.3135,8.3135,0,0,1,.626,6.0332,6.4239,6.4239,0,0,1-3.4678,4.2851,6.1844,6.1844,0,0,1-3.0507.6387,7.8348,7.8348,0,0,1-3.2247-.9395l3.57,7.3653-1.5948.7734Zm7.0332-1.7442a4.971,4.971,0,0,0-2.71,3.2852,6.4171,6.4171,0,0,0,.5108,4.66,6.7855,6.7855,0,0,0,1.99,2.4981,5.4147,5.4147,0,0,0,2.7646,1.1,5.1644,5.1644,0,0,0,2.837-.4746,4.847,4.847,0,0,0,2.0595-1.9063,5.7791,5.7791,0,0,0,.8047-2.93,6.7393,6.7393,0,0,0-2.6767-5.5372,5.6515,5.6515,0,0,0-2.7745-1.1621A4.9435,4.9435,0,0,0,192.9451,248.5456Z"/><path d="M212.5222,234.196a6.5409,6.5409,0,0,1,5.7344-1.2031,8.8157,8.8157,0,0,1,6.6719,8.84,6.8049,6.8049,0,0,1-8.1992,6.3145,8.7942,8.7942,0,0,1-6.835-8.6953A6.54,6.54,0,0,1,212.5222,234.196Zm1.1651,1.5215a4.8967,4.8967,0,0,0-1.9092,3.7481,6.3775,6.3775,0,0,0,1.4062,4.4277,6.6962,6.6962,0,0,0,2.4522,1.9961,5.4232,5.4232,0,0,0,2.8945.5527,5.1072,5.1072,0,0,0,4.2881-3.3027,5.4452,5.4452,0,0,0,.2061-2.9395,6.7,6.7,0,0,0-1.3047-2.8808,6.3619,6.3619,0,0,0-3.9278-2.4864A4.9,4.9,0,0,0,213.6873,235.7175Z"/><path d="M224.7781,224.5613l1.168-1.3985,11.1933,3.836-5.6738-10.4551.206-.2461,11.3233,3.6816-5.7324-10.3847,1.1806-1.4161,7.8574,14.3477-.21.252-11.1924-3.6,5.5508,10.3633-.2119.252Z"/><path d="M257.4363,194.6863l1.4551-.9317a9.0208,9.0208,0,0,1,1.5127,2.6875,6.6753,6.6753,0,0,1,.333,2.6094,6.9221,6.9221,0,0,1-.792,2.6562,6.31,6.31,0,0,1-4.584,3.57,9.0242,9.0242,0,0,1-9.6318-4.6289,6.3675,6.3675,0,0,1-.0635-6.1758,6.5781,6.5781,0,0,1,5.1992-3.6524,8.8431,8.8431,0,0,1,5.3242,1.0293l-5.6719,11.0215a6.5678,6.5678,0,0,0,4.5684.627,4.6755,4.6755,0,0,0,3.1846-2.4825,5.3861,5.3861,0,0,0,.5771-2.0058,5.2707,5.2707,0,0,0-.18-1.9942A9.058,9.058,0,0,0,257.4363,194.6863Zm-3.6445-1.877a6.811,6.811,0,0,0-2.7-.2266,4.9859,4.9859,0,0,0-2.1641.9024,5.08,5.08,0,0,0-1.583,1.8242,4.7856,4.7856,0,0,0-.3145,3.76,6.71,6.71,0,0,0,2.0625,2.8711Z"/><path d="M252.7166,179.0359l.5517-1.7227,2.1192.6777a6.7524,6.7524,0,0,1-1.3516-2.2285,3.1488,3.1488,0,0,1-.0488-1.9824,3.0167,3.0167,0,0,1,.9716-1.3379l1.2911,1.3848a2.2731,2.2731,0,0,0-.5391.8105,2.4467,2.4467,0,0,0,.2451,1.8731,5.25,5.25,0,0,0,1.9971,1.9551,26.3578,26.3578,0,0,0,4.91,1.916l4.9043,1.57-.5517,1.7246Z"/><path class="b" d="M18.0581,116.8932a124.2445,124.2445,0,0,0-.1787,46.735"/></svg>