<svg xmlns="http://www.w3.org/2000/svg" width="242.5726mm" height="54.876mm" viewBox="0 0 687.6073 155.5539"><defs><style>.a{fill:#fff;}.b,.g{fill:#f79f79;}.c{fill:#f7d08a;}.c,.d,.e,.g,.h{fill-rule:evenodd;}.d,.f{fill:#5b5941;}.e{fill:#d45113;}.h{fill:#e3f09b;}</style></defs><rect class="a" x="0.3935" width="687.2138" height="155.5539" rx="45.3543"/><path d="M182.2582,96.3991h20.5811v3.5156H185.8471V111.17h16.8457v3.5156H185.8471v14.1113h16.8457v3.5157H182.2582Z"/><path d="M207.8852,105.75h3.4912v3.8818a12.2628,12.2628,0,0,1,3.2959-3.4307,6.5062,6.5062,0,0,1,3.6133-1.1347,6.2429,6.2429,0,0,1,3.0273.9033l-1.7822,2.8808a4.77,4.77,0,0,0-1.8067-.4638,4.9384,4.9384,0,0,0-3.2959,1.4043,8.8659,8.8659,0,0,0-2.417,4.3574q-.6357,2.2706-.6347,9.18v8.9844h-3.4912Z"/><path d="M224.9184,105.75h3.4179V110.51a14.2815,14.2815,0,0,1,4.5411-4.0889,11.1476,11.1476,0,0,1,5.42-1.3554,9.4174,9.4174,0,0,1,5.2851,1.5136,9.0151,9.0151,0,0,1,3.4063,4.0772q1.0986,2.5635,1.0986,7.9834v13.6719h-3.418V119.6413a31.2883,31.2883,0,0,0-.38-6.128,6.732,6.732,0,0,0-2.2793-3.9668,6.8776,6.8776,0,0,0-4.3946-1.331,8.4292,8.4292,0,0,0-5.5556,2.0508,9.6091,9.6091,0,0,0-3.2354,5.0781,35.2689,35.2689,0,0,0-.4883,7.2266v9.7412h-3.4179Z"/><path d="M282.5756,105.75v26.5625h-3.3691v-4.5655a14.6378,14.6378,0,0,1-4.8223,3.9307,13.4687,13.4687,0,0,1-15.4785-2.7715,13.7125,13.7125,0,0,1-3.9912-9.9482,13.4628,13.4628,0,0,1,4.0283-9.8145,13.1353,13.1353,0,0,1,9.6924-4.0771,12.5375,12.5375,0,0,1,5.9209,1.3916,13.4771,13.4771,0,0,1,4.65,4.1748V105.75Zm-13.66,2.6123a10.3066,10.3066,0,0,0-9.1074,5.3408,10.7615,10.7615,0,0,0,.0117,10.73,10.48,10.48,0,0,0,3.8653,3.9873,10.0971,10.0971,0,0,0,5.207,1.4267,10.6766,10.6766,0,0,0,5.3154-1.414,9.8946,9.8946,0,0,0,3.8653-3.8291,10.9256,10.9256,0,0,0,1.3535-5.4375,10.5719,10.5719,0,0,0-3.0361-7.7071A10.0583,10.0583,0,0,0,268.9154,108.362Zm-4.5283-13.11a2.8341,2.8341,0,1,1-2.0019.83A2.7315,2.7315,0,0,1,264.3871,95.2516Zm9.961,0a2.8341,2.8341,0,1,1-2.002.83A2.7314,2.7314,0,0,1,274.3481,95.2516Z"/><path d="M290.9662,95.4958h3.418V110.51a14.5157,14.5157,0,0,1,4.5654-4.0889,11.0977,11.0977,0,0,1,5.3955-1.3554A9.4175,9.4175,0,0,1,309.63,106.58a9.0287,9.0287,0,0,1,3.4062,4.0645q1.0988,2.5518,1.0987,7.9961v13.6719h-3.418V119.6413a32.4055,32.4055,0,0,0-.3662-6.128,6.9489,6.9489,0,0,0-2.3067-3.9668,6.8279,6.8279,0,0,0-4.3828-1.331,8.4309,8.4309,0,0,0-5.5547,2.0508,9.6137,9.6137,0,0,0-3.2343,5.0781,35.0537,35.0537,0,0,0-.4883,7.2266v9.7412h-3.418Z"/><path d="M320.8656,105.75h3.4912v3.8818a12.2656,12.2656,0,0,1,3.2959-3.4307,6.5062,6.5062,0,0,1,3.6133-1.1347,6.2429,6.2429,0,0,1,3.0274.9033l-1.7823,2.8808a4.77,4.77,0,0,0-1.8066-.4638,4.9382,4.9382,0,0,0-3.2959,1.4043,8.8651,8.8651,0,0,0-2.417,4.3574q-.6357,2.2706-.6348,9.18v8.9844h-3.4912Z"/><path d="M337.4594,105.75h3.418V118.152a26.4505,26.4505,0,0,0,.4892,6.25,6.9638,6.9638,0,0,0,2.8,3.8574,8.4938,8.4938,0,0,0,4.9258,1.416,8.3211,8.3211,0,0,0,4.8535-1.3789,7.0521,7.0521,0,0,0,2.751-3.6259,25.577,25.577,0,0,0,.5137-6.5186V105.75h3.4917v13.0371q0,5.4931-1.2813,8.2763a9.8045,9.8045,0,0,1-3.8579,4.3584,12.1988,12.1988,0,0,1-6.458,1.5743,12.3223,12.3223,0,0,1-6.4815-1.5743,9.7233,9.7233,0,0,1-3.8828-4.3945q-1.28-2.8213-1.2812-8.4844Z"/><path d="M368.995,105.75h3.418V110.51a14.2823,14.2823,0,0,1,4.541-4.0889,11.1479,11.1479,0,0,1,5.42-1.3554,9.4175,9.4175,0,0,1,5.2852,1.5136,9.0148,9.0148,0,0,1,3.4062,4.0772q1.0987,2.5635,1.0987,7.9834v13.6719h-3.418V119.6413a31.2775,31.2775,0,0,0-.38-6.128,6.7315,6.7315,0,0,0-2.2793-3.9668,6.8774,6.8774,0,0,0-4.3945-1.331,8.4294,8.4294,0,0,0-5.5557,2.0508,9.61,9.61,0,0,0-3.2353,5.0781,35.2689,35.2689,0,0,0-.4883,7.2266v9.7412h-3.418Z"/><path d="M423.0878,105.75h3.418v21.167a25.0074,25.0074,0,0,1-.9766,8.1787,10.6366,10.6366,0,0,1-4.6631,5.64,15.3279,15.3279,0,0,1-7.9834,1.9776,18.2717,18.2717,0,0,1-6.1406-.9668,12.2987,12.2987,0,0,1-4.4307-2.5957,15.4493,15.4493,0,0,1-3.1494-4.7627h3.711a9.8032,9.8032,0,0,0,3.9111,3.9062,12.5822,12.5822,0,0,0,5.9394,1.2695,12.2854,12.2854,0,0,0,5.9034-1.3017,7.9888,7.9888,0,0,0,3.4345-3.2725q1.0269-1.9716,1.0264-6.3633v-1.3671a12.9359,12.9359,0,0,1-4.7168,3.747,14,14,0,0,1-12.8057-.5117,12.9182,12.9182,0,0,1-4.9853-4.8955,13.3731,13.3731,0,0,1-1.76-6.7627,13.8222,13.8222,0,0,1,13.7344-13.7695,12.73,12.73,0,0,1,5.56,1.2324,15.3379,15.3379,0,0,1,4.9736,4.0654Zm-10.083,2.6123a10.8053,10.8053,0,0,0-5.3955,1.4033,10.172,10.172,0,0,0-3.9063,3.8828,10.6155,10.6155,0,0,0-1.416,5.3584,9.6651,9.6651,0,0,0,2.93,7.2266,11.5412,11.5412,0,0,0,15.1738.0244,9.9982,9.9982,0,0,0,2.8682-7.4463,10.7809,10.7809,0,0,0-1.3184-5.3584,9.608,9.608,0,0,0-3.7353-3.7236A10.3928,10.3928,0,0,0,413.0048,108.362Z"/><path d="M447.8847,108.6549l-2.1973,2.27q-2.7422-2.66-5.36-2.6611a4.049,4.049,0,0,0-2.8516,1.0986,3.3912,3.3912,0,0,0-1.1875,2.5635,3.797,3.797,0,0,0,.9785,2.4658,13.7432,13.7432,0,0,0,4.11,2.8077,15.3427,15.3427,0,0,1,5.1865,3.8086,6.9365,6.9365,0,0,1,1.3457,4.1748,7.4931,7.4931,0,0,1-2.2988,5.5419,7.8459,7.8459,0,0,1-5.7461,2.2706,10.0437,10.0437,0,0,1-4.3887-1.001,9.53,9.53,0,0,1-3.46-2.7588l2.1485-2.4414q2.6177,2.9545,5.5547,2.9541a5.0028,5.0028,0,0,0,3.499-1.3184,4.0715,4.0715,0,0,0,1.4443-3.1006,3.9761,3.9761,0,0,0-.9541-2.6123,15.3725,15.3725,0,0,0-4.3056-2.832,13.7751,13.7751,0,0,1-4.8936-3.6621,6.897,6.897,0,0,1-1.2969-4.126,6.7107,6.7107,0,0,1,2.0664-5.0293,7.2021,7.2021,0,0,1,5.2207-2.0019Q444.167,105.0661,447.8847,108.6549Z"/><path d="M454.8593,132.3122V95.4958h3.418v14.8193a14.4089,14.4089,0,0,1,4.8046-3.9424,13.4632,13.4632,0,0,1,15.45,2.7832A13.6851,13.6851,0,0,1,482.52,119.08a13.496,13.496,0,0,1-4.0244,9.8389,13.1117,13.1117,0,0,1-9.6826,4.0772,12.3874,12.3874,0,0,1-5.8779-1.3916,13.7192,13.7192,0,0,1-4.6582-4.1749v4.8829ZM468.5312,129.7a10.29,10.29,0,0,0,9.0976-5.3467,10.8436,10.8436,0,0,0-.0117-10.7666,10.4728,10.4728,0,0,0-3.8613-3.9912,10.0186,10.0186,0,0,0-5.1758-1.4287,10.6251,10.6251,0,0,0-5.3223,1.4287,9.9453,9.9453,0,0,0-3.873,3.8447,10.96,10.96,0,0,0-1.3516,5.4443,10.5957,10.5957,0,0,0,3.0322,7.7149A10.031,10.031,0,0,0,468.5312,129.7Z"/><path d="M511.81,123.4987l2.8808,1.5137a15.7073,15.7073,0,0,1-3.2744,4.4921,13.01,13.01,0,0,1-4.1787,2.6006,14.5845,14.5845,0,0,1-5.2539.8907q-6.501,0-10.165-4.26a14.3712,14.3712,0,0,1-3.666-9.6318,14.1981,14.1981,0,0,1,3.1035-9.0088,12.6865,12.6865,0,0,1,10.5322-5.0293,13.1044,13.1044,0,0,1,10.8486,5.1513,14.3858,14.3858,0,0,1,2.9327,9.0821H491.6679a10.8125,10.8125,0,0,0,2.958,7.5879,9.4326,9.4326,0,0,0,7.0644,2.9589,11.37,11.37,0,0,0,3.9473-.705,10.4,10.4,0,0,0,3.2627-1.8731A15.9275,15.9275,0,0,0,511.81,123.4987Zm0-7.1533a11.3386,11.3386,0,0,0-1.9922-4.37,9.4468,9.4468,0,0,0-3.459-2.6367,10.5993,10.5993,0,0,0-4.5215-1.0009,9.7413,9.7413,0,0,0-6.7226,2.5146,11.3578,11.3578,0,0,0-3.1045,5.4932Z"/><path d="M521.3476,105.75h3.4912v3.8818a12.2628,12.2628,0,0,1,3.2959-3.4307,6.5062,6.5062,0,0,1,3.6133-1.1347,6.2429,6.2429,0,0,1,3.0273.9033l-1.7822,2.8808a4.77,4.77,0,0,0-1.8067-.4638,4.9384,4.9384,0,0,0-3.2959,1.4043,8.8659,8.8659,0,0,0-2.417,4.3574q-.6357,2.2706-.6347,9.18v8.9844h-3.4912Z"/><path d="M564.8446,105.75v26.5625h-3.3691v-4.5655a14.6368,14.6368,0,0,1-4.8223,3.9307,13.4687,13.4687,0,0,1-15.4785-2.7715,13.7129,13.7129,0,0,1-3.9912-9.9482,13.4632,13.4632,0,0,1,4.0283-9.8145,13.1355,13.1355,0,0,1,9.6924-4.0771,12.5372,12.5372,0,0,1,5.9209,1.3916,13.4771,13.4771,0,0,1,4.65,4.1748V105.75Zm-13.66,2.6123a10.3066,10.3066,0,0,0-9.1074,5.3408,10.7609,10.7609,0,0,0,.0117,10.73,10.4792,10.4792,0,0,0,3.8652,3.9873,10.0974,10.0974,0,0,0,5.207,1.4267,10.6767,10.6767,0,0,0,5.3155-1.414,9.8937,9.8937,0,0,0,3.8652-3.8291,10.9246,10.9246,0,0,0,1.3535-5.4375,10.5719,10.5719,0,0,0-3.0361-7.7071A10.058,10.058,0,0,0,551.1845,108.362Z"/><path d="M576.2138,95.8864h3.418V105.75h5.42v2.9541h-5.42v23.6084h-3.418V108.7038h-4.6631V105.75h4.6631Z"/><path d="M590.4394,105.75h3.4179V118.152a26.449,26.449,0,0,0,.4893,6.25,6.9638,6.9638,0,0,0,2.8,3.8574,8.4938,8.4938,0,0,0,4.9258,1.416,8.3211,8.3211,0,0,0,4.8535-1.3789,7.0521,7.0521,0,0,0,2.751-3.6259,25.5835,25.5835,0,0,0,.5136-6.5186V105.75h3.4913v13.0371q0,5.4931-1.2813,8.2763a9.8034,9.8034,0,0,1-3.8574,4.3584,12.1988,12.1988,0,0,1-6.458,1.5743,12.3223,12.3223,0,0,1-6.4815-1.5743,9.7233,9.7233,0,0,1-3.8828-4.3945q-1.28-2.8213-1.2812-8.4844Z"/><path d="M621.9745,105.75h3.418V110.51a14.2823,14.2823,0,0,1,4.541-4.0889,11.1479,11.1479,0,0,1,5.42-1.3554,9.4175,9.4175,0,0,1,5.2852,1.5136,9.0155,9.0155,0,0,1,3.4062,4.0772q1.0987,2.5635,1.0987,7.9834v13.6719h-3.418V119.6413a31.2857,31.2857,0,0,0-.38-6.128,6.7315,6.7315,0,0,0-2.2793-3.9668,6.8774,6.8774,0,0,0-4.3945-1.331,8.4294,8.4294,0,0,0-5.5557,2.0508,9.61,9.61,0,0,0-3.2353,5.0781,35.2689,35.2689,0,0,0-.4883,7.2266v9.7412h-3.418Z"/><path d="M676.0683,105.75h3.4179v21.167a25.008,25.008,0,0,1-.9765,8.1787,10.6366,10.6366,0,0,1-4.6631,5.64,15.3282,15.3282,0,0,1-7.9834,1.9776,18.2717,18.2717,0,0,1-6.1406-.9668,12.2987,12.2987,0,0,1-4.4307-2.5957,15.4493,15.4493,0,0,1-3.1494-4.7627h3.7109a9.804,9.804,0,0,0,3.9112,3.9062,12.5819,12.5819,0,0,0,5.9394,1.2695,12.2847,12.2847,0,0,0,5.9033-1.3017,7.9891,7.9891,0,0,0,3.4346-3.2725q1.0269-1.9716,1.0264-6.3633v-1.3671a12.9359,12.9359,0,0,1-4.7168,3.747,14,14,0,0,1-12.8057-.5117,12.9175,12.9175,0,0,1-4.9853-4.8955,13.3721,13.3721,0,0,1-1.76-6.7627,13.8222,13.8222,0,0,1,13.7344-13.7695,12.7288,12.7288,0,0,1,5.5595,1.2324,15.3371,15.3371,0,0,1,4.9737,4.0654Zm-10.083,2.6123a10.8053,10.8053,0,0,0-5.3955,1.4033,10.172,10.172,0,0,0-3.9063,3.8828,10.6155,10.6155,0,0,0-1.416,5.3584,9.6651,9.6651,0,0,0,2.93,7.2266,11.5412,11.5412,0,0,0,15.1738.0244,9.9982,9.9982,0,0,0,2.8682-7.4463,10.7819,10.7819,0,0,0-1.3184-5.3584,9.608,9.608,0,0,0-3.7353-3.7236A10.3933,10.3933,0,0,0,665.9853,108.362Z"/><path class="b" d="M175.1833,77.92V73.668H685.8921V77.92Z"/><path class="c" d="M64.251,1.4438c-4.9865-.0946-3.94,11.0608-2.5012,21.3861.0783.5619,1.0979.6269,1.3829-.2923.2929-.9445.6312-1.9781.9877-3.0638C66.6307,11.8156,69.9891,1.568,64.251,1.4438Z"/><path class="c" d="M37.0325,17.4246c-.1878-1.7691-.5266-4.96-2.1306-4.5972-1.6279.3671-2.6543,2.2661-1.1027,3.6173a10.0836,10.0836,0,0,1,2.2534,1.9569c.4617.7667.9855.1426,1.0039-.7638-.0085-.0678-.0155-.14-.024-.2132Z"/><path class="c" d="M132.0231,42.5827c-.309.7027-.4595,1.0475.1088,1.4446.5139.3611.6372.2778,1.4232-.2566.3378-.23.8-.5441,1.468-.9429,11.5678-6.8879,2.31-13.846-.9061-9.4257-1.151,1.5835-1.0678,3.0918-1.2823,6.0284a8.7265,8.7265,0,0,1-.8117,3.1522Z"/><path class="c" d="M113.8032,83.2259a20.6935,20.6935,0,0,1,5.373-1.024C134.581,80.53,131.5,71.0545,127.5484,69.884c-2.1951-.65-4.9878.8673-6.8912,2.5959-4.017,3.6474-6.6947,9.2973-7.2449,10.23C113.3058,82.89,113.5006,83.3524,113.8032,83.2259Z"/><path class="c" d="M91.262,128.4079c2.8558,5.4468,4.9568,12.6208,1.9223,17.989-4.04,7.1454-20.5441-.3226-13.338-22.092,4.748-11.4837,4.561-9.3458,7.9355-14.2215.2252-.3238.6458-.2682,1.1435.0674.3416.2292.3253.2624.0929.745a16.3664,16.3664,0,0,0-1.11,3.0856C86.5355,119.04,87.9338,122.0648,91.262,128.4079Z"/><path class="c" d="M42.9547,108.42c-.2725-1.5982-.49-2.87-.5733-3.6794-.4137-4.0183-.1694-4.04-.7271-4.0649-1.2241-.055-1.3159,1.5319-1.258,2.8507.473,10.6062-3.7839,18.9972-6.924,25.1884-1.7126,3.3773-3.0935,6.0994-3.1951,8.1707-.24,4.9628,6.0232,6.4143,9.88,3.38,7.26-5.7126,4.247-23.3572,2.797-31.8455Z"/><path class="c" d="M118.2967,132.2007c-2.3878-4.0974-1.655-8.3675-2.3163-11.8052-.1593-.8274.9486-.9591,1.3854-.4834a40.548,40.548,0,0,0,5.5607,4.7832c2.72,2.0627,5.1962,3.9412,6.1657,6.4069C131.0349,136.0426,122.0445,138.6312,118.2967,132.2007Z"/><path class="c" d="M53.2723,144.7529c-1.0885-6.218-3.5043-8.6154-3.64-10.7644-.0593-.9389-.4786-1.1662-1.2114-1.0179-.401.08-.3671.3092-.3021.76a4.5439,4.5439,0,0,1-.1356,2.1814c-.2456.81-.5379,1.6152-.8288,2.4171a17.31,17.31,0,0,0-1.42,6.0289c-.0254,2.5951.8048,5.6038,3.3321,6.2335,3.8432.9573,4.8258-2.3,4.206-5.8382Z"/><path class="d" d="M107.83,149.0511c-4.0928,3.7413-8.541-1.5812-10.2668-6.3821a26.1523,26.1523,0,0,1-1.3418-8.7669c-.0426-.4906.19-.7274.4441-.7569a.174.174,0,0,1,.0463-.0017c.049.0105.0728.089.1925.4853.0726.2407.1807.5995.3522,1.1322,1.1448,3.5611,3.4521,4.53,5.8123,5.5224,1.9324.8114,3.9,1.6388,5.2955,3.9138a3.7491,3.7491,0,0,1-.5343,4.8538Z"/><path class="e" d="M35.0873,101.0807c.02-.1807.0452-.1934.048-.1948-.0014,0-.0057-.0014-.0141-.01-.017.0367-.0311.0664-.041.09-.031.0649-.0395.0861-.0339.0946s.02.0085.041.02Z"/><path class="d" d="M129.4667,93.936c6.3554,2.1477,12.1715,4.1146,17.4971,2.32,10.8408-3.6541,8.0642-22.0032-15.2733-15.86a79.7815,79.7815,0,0,0-14.26,5.156q-.7826.3415-1.5791.688c-1.4308.6206-2.5183,1.035-3.33,1.3422-1.98.7529-2.309.878-1.9547,1.851.2894.7932,1.25.82,2.1924.8251,5.9454.0405,11.507,1.92,16.7073,3.6775Z"/><path class="f" d="M90.9765,12.7438a23.9658,23.9658,0,0,1,11.8115,4.5039,30.5313,30.5313,0,0,1,8.22,9.1592,41.076,41.076,0,0,1,4.628,11.9844,46.1058,46.1058,0,0,1,1.0361,12.9765q-1.2437,23.9693-12.7783,40.15Q92.3564,107.7019,70.8075,116.86q.8277,4.5806,1.5879,9.2363.7589,4.6582,1.4512,9.5411a13.599,13.599,0,0,1-.9668,7.9384,8.8156,8.8156,0,0,1-6.0791,4.8858,10.11,10.11,0,0,1-6.5615-.3819,9.3382,9.3382,0,0,1-5.043-4.3505q-3.454-8.09-6.0781-21.6788-2.6265-13.5849-4.4209-29.6162-1.796-16.03-2.7627-32.747-.9682-16.7154-1.1055-31.0664,0-4.8838,2.9014-7.48a10.2591,10.2591,0,0,1,6.5615-2.7481,11.1741,11.1741,0,0,1,6.8389,1.9844,9.3123,9.3123,0,0,1,3.8681,6.7178,50.3811,50.3811,0,0,1,6.1475-6.26A35.625,35.625,0,0,1,74.33,16.026a33.7345,33.7345,0,0,1,8.0127-2.8242A27.1917,27.1917,0,0,1,90.9765,12.7438Zm5.5263,37.708q0-7.0211-2.1416-10.84a9.5306,9.5306,0,0,0-5.3183-4.8086,9.3594,9.3594,0,0,0-6.8389.6875,17.64,17.64,0,0,0-6.7,5.8008,39.917,39.917,0,0,0-6.0781,11.7548,61.152,61.152,0,0,0-2.6943,13.5108,109.1,109.1,0,0,0-.2754,14.5791q.3427,7.4825,1.0361,14.8086a25.3316,25.3316,0,0,1,2.5557-1.374,30.2838,30.2838,0,0,0,2.832-1.5264,32.4514,32.4514,0,0,0,8.98-7.1748,57.446,57.446,0,0,0,7.5283-10.5342,60.5144,60.5144,0,0,0,5.1807-12.2891A44.0077,44.0077,0,0,0,96.5028,50.4518Z"/><path class="d" d="M145.4859,66.13c2.5077-2.9366-6.7712-9.1367-12.1791,3.5278-.4236.9923-.354,1.3036.1645,1.574.5472.2875.7654.1653,1.4235-.2053a17.4948,17.4948,0,0,1,3.5112-1.5155c2.3124-.7527,5.5315-1.5655,7.08-3.3811Z"/><path class="d" d="M120.8,51.2642c2.5574-13.2812-2.662-21.3223.995-28.1248,2.4349-4.5295,8.3487-4.1169,9.859,1.8063,1.2209,5.0778.3077,12.45-5.2157,20.5749-4.4319,6.5187-4.4506,6.5172-4.9608,6.4924-.0132-.0008-.0274-.0013-.0418-.0028-.5743-.0228-.7445-.1788-.6357-.746Z"/><path class="d" d="M14.5079,42.9127C4.62,34.13,19.9,25.3142,20.9838,39.6339c.0287.59.0507,1.0955.07,1.5359a15.0611,15.0611,0,0,0,.5886,4.48c.18.6257.33,1.2469-.2184,1.5863-.3993.2458-.7.0246-.9743-.1774-.0236-.0168-.0456-.0324-.0677-.05a70.1537,70.1537,0,0,1-5.8739-4.0961Z"/><path class="d" d="M52.2794,6.6087c-4.176-2.4316-8.4559,2.3109-7.2489,5.8822,1.1216,3.3175,5.9225,3.246,10.15,4.678.7609.2569,1.5945-.824,1.368-1.7163a4.4146,4.4146,0,0,0-.2361-.6344c-.0567-.1352-.1208-.2851-.1912-.4642a11.3237,11.3237,0,0,1-.39-1.6827c-.3617-1.9721-.8328-4.5362-3.452-6.0626Z"/><path class="d" d="M10.4528,68.99c-16.3019.7257-9.2254-17.0826.2372-4.0267a8.4728,8.4728,0,0,0,2.3282,2.2618c.4914.3332.7257.4928.5831.9474-.2725.8754-1,.86-2.3056.83C11.0373,68.9972,10.7564,68.99,10.4528,68.99Z"/><path class="d" d="M24.5575,132.7331c-3.3536-.1734-6.04-2.3206-5.6913-6.2331C19.9182,114.7132,35.8985,99.6773,39.4,93.9365c.3854-.6329,1.7937-.2565,1.3691.6822-2.1012,4.6484-3.5924,7.1315-4.6819,13.834-.1506.9294-.3,1.966-.4594,3.0718C34.392,120.1181,32.5433,132.9585,24.5575,132.7331Z"/><path class="d" d="M5.0436,104.4541a2.4128,2.4128,0,0,1-2.65-2.4835c-.1525-1.7932,2.0332-2.0388,4.1878-2.28a15.2282,15.2282,0,0,0,2.5442-.4235c.0353-.01.072-.024.11-.0381.1864-.0678.394-.1426.5464.0578a.81.81,0,0,1,.0833.9347c-.0423.0607-.0974.1455-.1651.2471-.7018,1.0561-2.6841,4.0409-4.6565,3.9858Z"/><path class="g" d="M91.5,3.1592c-3.5886-5.0055-9.8062.4207-10.682,4.8976-.11.5629.2273.8534.5942,1.1508.3524.2843.6569.1524,1.0235-.0381a20.3851,20.3851,0,0,1,2.9575-1.0417c3.4529-1.0544,7.932-2.4231,6.1068-4.9685Z"/><path class="g" d="M78.1038,142.7506c.7.7164.0062,11.32-3.5075,12.704-2.6592.6639-5.2331-2.0954-4.6711-5.4441.5522-3.2941,2.6033-2.2362,6.3539-6.6184.6008-.7011,1.2325-1.2477,1.8247-.6416Z"/><path class="g" d="M120.6909,21.1266c-1.0857,2.4551-2.307,5.2164-2.1053,7.7547.0485.6182-.1414.7954-.8264.701-.8055-.112-.6046-.331-1.3175-1.1725-.1764-.2077-.3574-.4187-.5382-.631-2.2582-2.6371-4.77-5.5715-4.3947-8.99.63-8.4481,11.9817-7.2843,10.5988-1.375a23.1167,23.1167,0,0,1-1.4167,3.7128Z"/><path class="g" d="M33.9687,29.3457a10.8592,10.8592,0,0,1,4.5831.2923c.401.168.6551-.1356.8881-.4137l.024-.0283c.288-.343-3.1754-8.5575-6.1573-11.1215-4.024-3.4592-9.906.6043-8.4432,6.3182,1.3949,5.4486,5.4556,5.1874,9.1053,4.953Z"/><path class="g" d="M11.2945,43.0394C3.9159,42.9476-4.1192,59.2028,29.61,71.5669c2.3367.857,4.1679,1.5348,5.6052,2.067,4.5,1.6675,5.1408,1.9061,5.35,1.7014a.91.91,0,0,0,.1186-.2033c.2315-.4292.1962-.8231-.1808-1.0476a22.2563,22.2563,0,0,1-3.0073-2.45C24.1133,60.09,21.2612,43.34,11.2946,43.0394Z"/><path class="g" d="M17.95,94.5631c-4.1058,2.485-9.824,7.77-9.82,12.2794-.14,4.0818,4.3078,6.3338,8.2837,5.65,10.9281-1.8778,16.5645-23.3938,25.715-27.0154.7074-.2809-.3473-1.3865-1.8312-.6494-7.4521,3.7076-15.099,5.3483-22.3477,9.735Z"/><path class="g" d="M5.4632,87.4133c-2.8464-.7469-5.961-1.0787-5.3963,2.0049,1.3456,7.3645,11.2585,5.899,18.49-.4631a.7287.7287,0,0,0-.6028-1.2439A28.4637,28.4637,0,0,1,5.4632,87.4133Z"/><path class="g" d="M99.2691,106.9981a48.9921,48.9921,0,0,1,1.7537-5.9853c.383-1.072,2.0459-1.5605,2.3917-.1054a86.4693,86.4693,0,0,0,4.8486,13.4289c3.134,7.3831,5.961,14.0436,3.6637,18.7133-3.9794,8.09-19.4368,4.3946-12.7291-25.747l.0715-.3045Z"/><path class="g" d="M45.22,138.2682c-.0008-.54-.9833-.3515-1.2488.0716-1.232,1.9729-3.0693,2.4-4.1417,4.7553C38.2805,146.4958,45.2583,147.694,45.22,138.2682Z"/><path class="g" d="M134.303,107.1008c12.2477,12.2638-7.5154,25.4776-16.8951,4.573-1.4344-3.1968-3.3889-9.3082-6.7075-13.5305a12.7642,12.7642,0,0,0-4.4183-3.7376c-.5853-.3076-.7667-.4035-.3354-.6521a1.4108,1.4108,0,0,1,1.51-.214c3.4368,2.0074,17.8725,4.5762,26.8457,13.5612Z"/><path class="g" d="M146.427,77.7973c-2.5659-.6712-5.4519-1.4263-7.9385-.9311-.6056.12-.8048-.0286-.7974-.6554.01-.7373.2516-.584.9948-1.3283.1835-.1841.3695-.3727.557-.5614,2.3262-2.3543,4.9148-4.9736,8.3448-5.0591,8.4395-.48,8.713,9.8589,2.6914,9.3482a24.8626,24.8626,0,0,1-3.8521-.8129Z"/><path class="g" d="M120.4715,62.44a48.9781,48.9781,0,0,0-3.0189,5.4576c-.4922,1.0264.3308,2.5518,1.608,1.7736a86.4743,86.4743,0,0,1,12.9536-6.0041c7.4514-2.9682,14.1732-5.6461,15.8748-10.5642,2.9479-8.52-10.5541-16.9032-27.2514,9.072l-.166.2651Z"/><path class="h" d="M95.7745,111.7871a20.4946,20.4946,0,0,1-.3634-5.3692c.0495-.5871-.2128-.6264-.5981-.6278-.0108-.0008-.0223,0-.0321,0-.2532-.0094-.2884-.0109-2.818,4.9-1.8286,3.5488-3.6436,8.1371-1.5476,9.4646,1.5306.9683,3.944.1985,5.0729-2.4468.9269-2.0573.6312-3.8438.2863-5.92Z"/><path class="h" d="M102.7951,12.1845c8.3153,2.8623,9.8017-.7794,7.2617-3.4408-4.8346-6.032-18.4713-.7039-18.1284,1.0141a1.5355,1.5355,0,0,0,1.4952,1.0959C96.7394,10.3373,99.7847,11.1474,102.7951,12.1845Z"/><path class="h" d="M106.8182,99.37c-1.48-1.2217-1.6874-2.0744-1.9682-2.0237-.2122.0374-.41.5943-.167,1.0407a63.28,63.28,0,0,1,2.7385,6.8891c.6476,1.7988,1.2563,3.4908,1.7161,4.5364,2.85,7.3133,5.4973,2.3919,4.8861-.7458-.6943-3.57-4.4926-7.4564-7.2055-9.6967Z"/><path class="h" d="M18.2839,28.8346c.13,2.0213,3.1031,2.51,4.7556,3.69.2832.2023.5562.3846.9494.1486l.1141-.0674c.3159-.1823.63-.3647.5033-.7417a8.3937,8.3937,0,0,1-.33-1.8757,4.3564,4.3564,0,0,0-1.53-3.4786c-1.6911-1.3332-4.4581.5441-4.4621,2.3247Z"/><path class="h" d="M40.64,66.8146a46.964,46.964,0,0,1-1.0321-12.3387c.0565-5.6829-.7144-18.0187-4.7073-22.1386-2.331-2.4059-4.9925-2.1179-7.2148-.2189C14.3766,43.5,36.0946,66.0225,39.3194,68.7291c.9445.7921,1.6039-.7737,1.32-1.9145Z"/><path class="h" d="M71.1178,12.2337c1.287-1.1493,4.973-3.1078,6.6659-6.4006,2.6638-6.2-6.0182-8.2954-7.6088-2.1207-1.2134,4.7064-.036,7.3262-.2173,7.8444-.0081.0259-.0187.0506-.0286.0771-.0752.2007-.1541.412.1124.5418l.0165.0081c.3382.1666.72.3531,1.06.05Z"/><path class="h" d="M146.4156,110.0888c1.8722-1.39,2.9982-5.9887-2.9419-8.4659-4.1427-1.7291-8.4177-1.82-10.0449-1.3378-.336.034-.449.34-.4787.7125-.0294.349.2189.4363.4631.5226.0248.0093.0507.0181.0754.0273,1.9618.7234,3.5843,2.8248,5.1509,4.8564,2.3829,3.0889,4.6407,6.015,7.7762,3.6849Z"/><path class="h" d="M12.1583,121.6447c3.5891,3.26,6.1093-1.2778,6.8294-4.9981a.5768.5768,0,0,0-.35-.7314c-.49-.2513-.7356-.15-1.9626.3643-.1384.0578-.288.12-.4518.1877-1.5362.6368-4.5449,1.9626-4.63,3.6286a1.8723,1.8723,0,0,0,.5647,1.5489Z"/><path class="h" d="M31.5445,76.4229C18.8331,72.3157,2.2249,66.9491.5264,77.4861c-2.317,14.3746,26.2515,7.277,40.1066,3.5227,1.4966-.4052.5224-1.7437-.1215-1.8976-2.4764-.59-5.584-1.5954-8.967-2.6883Z"/><path class="h" d="M112.954,140.8875c-.6673,3.935,5.0534,4.1863,5.868,1.2558.9649-3.3013-1.6944-8.1851-2.4485-8.0187-.0332.0079-.0687.0136-.1051.0221-.28.0559-.5948.1206-.6433.43a9.836,9.836,0,0,1-1.3236,3.14A10.2484,10.2484,0,0,0,112.954,140.8875Z"/><path class="h" d="M79.9732,146.796c.1086-.5287,1.0337-.1481,1.2092.32.8131,2.1792,2.5282,2.9645,3.1084,5.4868C85.1289,156.2439,78.0525,156.0241,79.9732,146.796Z"/><path d="M183.3793,15.1183h3.8037V33.1945h19.3819V15.1183h3.8037V58.214h-3.8037V37.4132H187.183V58.214h-3.8037Z"/><path d="M248.4643,47.6378l3.0527,1.8165a18.9027,18.9027,0,0,1-3.4707,5.3906,13.6477,13.6477,0,0,1-4.4287,3.12,13.843,13.843,0,0,1-5.5684,1.0693,12.7714,12.7714,0,0,1-10.7744-5.1123,18.6078,18.6078,0,0,1-3.8857-11.5576,18.5245,18.5245,0,0,1,3.289-10.8105,12.9345,12.9345,0,0,1,11.1631-6.0352,13.35,13.35,0,0,1,11.5,6.1816,18.814,18.814,0,0,1,3.1074,10.8985h-25.333a13.9506,13.9506,0,0,0,3.1348,9.1045,9.4641,9.4641,0,0,0,7.4873,3.5517,11.2088,11.2088,0,0,0,7.6426-3.0937A18.9765,18.9765,0,0,0,248.4643,47.6378Zm0-8.5839A14.4914,14.4914,0,0,0,246.352,33.81a10.5831,10.5831,0,0,0-8.459-4.3652,9.6618,9.6618,0,0,0-7.125,3.0176,14.1432,14.1432,0,0,0-3.29,6.5918Z"/><path d="M263.5551,26.339h3.7v4.6582a14.0533,14.0533,0,0,1,3.4941-4.1162,6.3424,6.3424,0,0,1,3.8291-1.3623,6.0529,6.0529,0,0,1,3.209,1.084l-1.8887,3.457a4.5731,4.5731,0,0,0-1.915-.5566,4.9468,4.9468,0,0,0-3.4932,1.6846,11.0727,11.0727,0,0,0-2.5625,5.2294q-.6723,2.7246-.6728,11.0157V58.214h-3.7Z"/><path d="M286.8227,58.214v-44.18h3.623V31.8175a15.8381,15.8381,0,0,1,5.0928-4.7314,12.4931,12.4931,0,0,1,6.1777-1.5674,13.0064,13.0064,0,0,1,10.1983,4.9072,17.6271,17.6271,0,0,1,4.2265,11.9092,17.352,17.352,0,0,1-4.2656,11.8067,13.16,13.16,0,0,1-10.2627,4.8925,11.9023,11.9023,0,0,1-6.23-1.67,15.32,15.32,0,0,1-4.9375-5.01V58.214Zm14.4912-3.1347a9.9309,9.9309,0,0,0,5.5762-1.6846,11.778,11.778,0,0,0,4.0664-4.7315,14.5211,14.5211,0,0,0-.0127-12.92,12.0146,12.0146,0,0,0-4.0928-4.79,9.7063,9.7063,0,0,0-5.4854-1.7139,10.2842,10.2842,0,0,0-5.6416,1.7139,11.3365,11.3365,0,0,0-4.1045,4.6142,14.5555,14.5555,0,0,0-1.4326,6.5332,13.6612,13.6612,0,0,0,3.2139,9.2578A10.0581,10.0581,0,0,0,301.3139,55.0793Z"/><path d="M329.7192,13.214a2.7164,2.7164,0,0,1,2.1123.9961,3.5133,3.5133,0,0,1,.8759,2.4024,3.474,3.474,0,0,1-.8759,2.373,2.7109,2.7109,0,0,1-4.1993,0,3.474,3.474,0,0,1-.8759-2.373,3.5133,3.5133,0,0,1,.8759-2.4024A2.69,2.69,0,0,1,329.7192,13.214ZM327.92,26.339h3.6231V58.214H327.92Z"/><path d="M342.1313,26.339h3.8564l9.45,23.2354,9.3355-23.2354h3.8828L355.769,58.214h-.6729Z"/><path d="M393.2167,25.5187A13.2626,13.2626,0,0,1,404,30.8507a17.88,17.88,0,0,1,3.8887,11.5137,17.8181,17.8181,0,0,1-4.1094,11.6748,13.694,13.694,0,0,1-21.1523,0,17.8282,17.8282,0,0,1-4.1094-11.6748A17.8375,17.8375,0,0,1,382.4062,30.88,13.2641,13.2641,0,0,1,393.2167,25.5187Zm-.0137,4.0137a9.9132,9.9132,0,0,0-7.7636,3.7793,13.5531,13.5531,0,0,0-3.2461,9.1406,14.3036,14.3036,0,0,0,1.48,6.4453,11.3082,11.3082,0,0,0,3.9981,4.6143,10.2215,10.2215,0,0,0,11.0625,0,11.3261,11.3261,0,0,0,4-4.6143,14.3286,14.3286,0,0,0,1.4805-6.4453,13.5251,13.5251,0,0,0-3.26-9.1406A9.9306,9.9306,0,0,0,393.203,29.5324Z"/><path d="M418.9433,26.339h3.6992v4.6582a14.0833,14.0833,0,0,1,3.4941-4.1162,6.3452,6.3452,0,0,1,3.83-1.3623,6.0556,6.0556,0,0,1,3.209,1.084L431.287,30.06a4.5768,4.5768,0,0,0-1.916-.5566,4.9465,4.9465,0,0,0-3.4922,1.6846,11.0543,11.0543,0,0,0-2.5625,5.2294q-.6738,2.7246-.6738,11.0157V58.214h-3.6992Z"/><path d="M465.6816,47.6378l3.0527,1.8165a18.9241,18.9241,0,0,1-3.4707,5.3906,13.6515,13.6515,0,0,1-4.43,3.12,13.84,13.84,0,0,1-5.5684,1.0693,12.7694,12.7694,0,0,1-10.7734-5.1123,18.6026,18.6026,0,0,1-3.8867-11.5576,18.531,18.531,0,0,1,3.289-10.8105,12.9373,12.9373,0,0,1,11.1641-6.0352,13.351,13.351,0,0,1,11.5,6.1816,18.8214,18.8214,0,0,1,3.1074,10.8985h-25.334a13.956,13.956,0,0,0,3.1348,9.1045,9.4675,9.4675,0,0,0,7.4883,3.5517,11.2138,11.2138,0,0,0,7.6426-3.0937A19.0061,19.0061,0,0,0,465.6816,47.6378Zm0-8.5839a14.4735,14.4735,0,0,0-2.1133-5.2442,10.5827,10.5827,0,0,0-8.459-4.3652,9.6618,9.6618,0,0,0-7.125,3.0176,14.1428,14.1428,0,0,0-3.2891,6.5918Z"/><path d="M503.1093,15.1183h7.58a38.6793,38.6793,0,0,1,8.7988.6445,9.6711,9.6711,0,0,1,5.33,3.7354,11.7025,11.7025,0,0,1,2.07,7.1045,11.8393,11.8393,0,0,1-2.0176,7.1045,9.8085,9.8085,0,0,1-5.5644,3.7646q-2.587.7032-9.6778.7032H506.912V58.214h-3.8027Zm3.8027,4.2188V33.9562l6.4434.0879a15.0226,15.0226,0,0,0,5.7187-.8037,6.08,6.08,0,0,0,2.8477-2.6026,7.9167,7.9167,0,0,0,1.0332-4.02,7.807,7.807,0,0,0-1.0332-3.9619,5.9507,5.9507,0,0,0-2.7305-2.5576,14.6441,14.6441,0,0,0-5.5508-.7607Z"/><path d="M552.9511,25.5187a13.2688,13.2688,0,0,1,10.7851,5.332,17.8788,17.8788,0,0,1,3.8868,11.5137,17.8265,17.8265,0,0,1-4.1075,11.6748,13.694,13.694,0,0,1-21.1523,0,17.8181,17.8181,0,0,1-4.1094-11.6748A17.8263,17.8263,0,0,1,542.1425,30.88,13.2634,13.2634,0,0,1,552.9511,25.5187Zm-.0117,4.0137a9.9145,9.9145,0,0,0-7.7657,3.7793,13.5536,13.5536,0,0,0-3.2461,9.1406,14.3286,14.3286,0,0,0,1.4805,6.4453,11.3114,11.3114,0,0,0,4,4.6143,10.2215,10.2215,0,0,0,11.0625,0,11.3221,11.3221,0,0,0,3.9981-4.6143,14.3285,14.3285,0,0,0,1.48-6.4453,13.5157,13.5157,0,0,0-3.26-9.1406A9.9241,9.9241,0,0,0,552.9394,29.5324Z"/><path d="M576.246,26.339h3.7266l8.6289,23.1445,8.9844-23.1445h.6562l9.043,23.1445,8.7968-23.1445h3.7657L607.6171,58.214h-.6719l-9.0019-22.8222L588.9472,58.214h-.6758Z"/><path d="M653.5194,47.6378l3.0528,1.8165a18.9241,18.9241,0,0,1-3.4707,5.3906,13.6515,13.6515,0,0,1-4.43,3.12,13.84,13.84,0,0,1-5.5684,1.0693A12.7694,12.7694,0,0,1,632.33,53.922a18.6026,18.6026,0,0,1-3.8867-11.5576,18.531,18.531,0,0,1,3.289-10.8105,12.9373,12.9373,0,0,1,11.1641-6.0352,13.351,13.351,0,0,1,11.5,6.1816,18.8214,18.8214,0,0,1,3.1074,10.8985H632.17a13.956,13.956,0,0,0,3.1348,9.1045,9.4675,9.4675,0,0,0,7.4883,3.5517,11.2138,11.2138,0,0,0,7.6426-3.0937A19.0033,19.0033,0,0,0,653.5194,47.6378Zm0-8.5839a14.4735,14.4735,0,0,0-2.1132-5.2442,10.5831,10.5831,0,0,0-8.459-4.3652,9.6618,9.6618,0,0,0-7.125,3.0176,14.1428,14.1428,0,0,0-3.2891,6.5918Z"/><path d="M668.6093,26.339h3.6992v4.6582a14.0833,14.0833,0,0,1,3.4941-4.1162,6.3454,6.3454,0,0,1,3.83-1.3623,6.0556,6.0556,0,0,1,3.209,1.084L680.953,30.06a4.5768,4.5768,0,0,0-1.916-.5566,4.9465,4.9465,0,0,0-3.4922,1.6846,11.0543,11.0543,0,0,0-2.5625,5.2294q-.6738,2.7246-.6738,11.0157V58.214h-3.6992Z"/></svg>