<svg xmlns="http://www.w3.org/2000/svg" width="916.81" height="207.405" viewBox="0 0 687.607 155.554"><defs><style>.g{fill:#f79f79}.c{fill:#f7d08a}.c,.d,.g,.h{fill-rule:evenodd}.d{fill:#5b5941}.h{fill:#e3f09b}</style></defs><rect width="687.214" height="155.554" x=".394" rx="45.354" style="fill:#fff"/><path d="M182.258 96.4h20.581v3.515h-16.992v11.255h16.846v3.516h-16.846v14.11h16.846v3.517h-20.435ZM207.885 105.75h3.491v3.882a12.3 12.3 0 0 1 3.296-3.43 6.5 6.5 0 0 1 3.614-1.136 6.24 6.24 0 0 1 3.027.904l-1.782 2.88a4.8 4.8 0 0 0-1.807-.463 4.94 4.94 0 0 0-3.296 1.404 8.87 8.87 0 0 0-2.417 4.357q-.636 2.271-.635 9.18v8.985h-3.49ZM224.918 105.75h3.418v4.76a14.3 14.3 0 0 1 4.541-4.089 11.15 11.15 0 0 1 5.42-1.355 9.4 9.4 0 0 1 5.285 1.513 9 9 0 0 1 3.407 4.078q1.098 2.563 1.098 7.983v13.672h-3.418v-12.67a31.3 31.3 0 0 0-.38-6.129 6.73 6.73 0 0 0-2.279-3.967 6.88 6.88 0 0 0-4.395-1.33 8.43 8.43 0 0 0-5.555 2.05 9.6 9.6 0 0 0-3.236 5.078 35.3 35.3 0 0 0-.488 7.227v9.741h-3.418ZM282.576 105.75v26.563h-3.37v-4.566a14.6 14.6 0 0 1-4.822 3.93 13.47 13.47 0 0 1-15.478-2.77 13.71 13.71 0 0 1-3.991-9.949 13.46 13.46 0 0 1 4.028-9.815 13.14 13.14 0 0 1 9.692-4.077 12.54 12.54 0 0 1 5.921 1.392 13.5 13.5 0 0 1 4.65 4.175v-4.883Zm-13.66 2.612a10.31 10.31 0 0 0-9.108 5.341 10.76 10.76 0 0 0 .012 10.73 10.5 10.5 0 0 0 3.865 3.987 10.1 10.1 0 0 0 5.207 1.427 10.7 10.7 0 0 0 5.316-1.414 9.9 9.9 0 0 0 3.865-3.829 10.9 10.9 0 0 0 1.353-5.437 10.57 10.57 0 0 0-3.036-7.708 10.06 10.06 0 0 0-7.475-3.097Zm-4.529-13.11a2.834 2.834 0 1 1-2.002.83 2.73 2.73 0 0 1 2.002-.83Zm9.961 0a2.834 2.834 0 1 1-2.002.83 2.73 2.73 0 0 1 2.002-.83ZM290.966 95.496h3.418v15.014a14.5 14.5 0 0 1 4.566-4.089 11.1 11.1 0 0 1 5.395-1.355 9.4 9.4 0 0 1 5.285 1.514 9.03 9.03 0 0 1 3.406 4.065q1.099 2.551 1.099 7.996v13.671h-3.418v-12.67a32.4 32.4 0 0 0-.366-6.129 6.95 6.95 0 0 0-2.307-3.967 6.83 6.83 0 0 0-4.383-1.33 8.43 8.43 0 0 0-5.554 2.05 9.6 9.6 0 0 0-3.235 5.078 35 35 0 0 0-.488 7.227v9.741h-3.418ZM320.866 105.75h3.49v3.882a12.3 12.3 0 0 1 3.297-3.43 6.5 6.5 0 0 1 3.613-1.136 6.24 6.24 0 0 1 3.027.904l-1.782 2.88a4.8 4.8 0 0 0-1.807-.463 4.94 4.94 0 0 0-3.295 1.404 8.87 8.87 0 0 0-2.417 4.357q-.636 2.271-.635 9.18v8.985h-3.491ZM337.46 105.75h3.417v12.402a26.5 26.5 0 0 0 .49 6.25 6.96 6.96 0 0 0 2.8 3.857 8.5 8.5 0 0 0 4.925 1.416 8.32 8.32 0 0 0 4.854-1.379 7.05 7.05 0 0 0 2.75-3.625 25.6 25.6 0 0 0 .515-6.519V105.75h3.491v13.037q0 5.493-1.281 8.276a9.8 9.8 0 0 1-3.858 4.359 12.2 12.2 0 0 1-6.458 1.574 12.3 12.3 0 0 1-6.481-1.574 9.72 9.72 0 0 1-3.883-4.395q-1.28-2.821-1.281-8.484ZM368.995 105.75h3.418v4.76a14.3 14.3 0 0 1 4.541-4.089 11.15 11.15 0 0 1 5.42-1.355 9.4 9.4 0 0 1 5.285 1.513 9 9 0 0 1 3.406 4.078q1.1 2.563 1.1 7.983v13.672h-3.419v-12.67a31.3 31.3 0 0 0-.38-6.129 6.73 6.73 0 0 0-2.28-3.967 6.88 6.88 0 0 0-4.394-1.33 8.43 8.43 0 0 0-5.555 2.05 9.6 9.6 0 0 0-3.236 5.078 35.3 35.3 0 0 0-.488 7.227v9.741h-3.418ZM423.088 105.75h3.418v21.167a25 25 0 0 1-.977 8.179 10.64 10.64 0 0 1-4.663 5.64 15.33 15.33 0 0 1-7.983 1.977 18.3 18.3 0 0 1-6.14-.967 12.3 12.3 0 0 1-4.432-2.595 15.5 15.5 0 0 1-3.149-4.763h3.711a9.8 9.8 0 0 0 3.911 3.906 12.6 12.6 0 0 0 5.94 1.27 12.3 12.3 0 0 0 5.903-1.302 8 8 0 0 0 3.434-3.272q1.027-1.972 1.027-6.364v-1.367a12.94 12.94 0 0 1-4.717 3.747 14 14 0 0 1-12.806-.512 12.9 12.9 0 0 1-4.985-4.895 13.4 13.4 0 0 1-1.76-6.763 13.82 13.82 0 0 1 13.734-13.77 12.7 12.7 0 0 1 5.56 1.233 15.3 15.3 0 0 1 4.974 4.066Zm-10.083 2.612a10.8 10.8 0 0 0-5.396 1.404 10.17 10.17 0 0 0-3.906 3.882 10.6 10.6 0 0 0-1.416 5.359 9.66 9.66 0 0 0 2.93 7.226 11.54 11.54 0 0 0 15.174.025 10 10 0 0 0 2.868-7.446 10.8 10.8 0 0 0-1.318-5.359 9.6 9.6 0 0 0-3.736-3.723 10.4 10.4 0 0 0-5.2-1.368ZM447.885 108.655l-2.198 2.27q-2.742-2.66-5.36-2.661a4.05 4.05 0 0 0-2.851 1.098 3.4 3.4 0 0 0-1.188 2.564 3.8 3.8 0 0 0 .979 2.466 13.7 13.7 0 0 0 4.11 2.807 15.3 15.3 0 0 1 5.186 3.809 6.94 6.94 0 0 1 1.346 4.175 7.5 7.5 0 0 1-2.299 5.542 7.85 7.85 0 0 1-5.746 2.27 10.04 10.04 0 0 1-4.389-1 9.5 9.5 0 0 1-3.46-2.76l2.149-2.44q2.618 2.954 5.555 2.953a5 5 0 0 0 3.499-1.318 4.07 4.07 0 0 0 1.444-3.1 3.98 3.98 0 0 0-.954-2.613 15.4 15.4 0 0 0-4.306-2.832 13.8 13.8 0 0 1-4.893-3.662 6.9 6.9 0 0 1-1.297-4.126 6.7 6.7 0 0 1 2.066-5.03 7.2 7.2 0 0 1 5.22-2.001q3.669 0 7.387 3.589M454.86 132.312V95.496h3.417v14.82a14.4 14.4 0 0 1 4.805-3.943 13.46 13.46 0 0 1 15.45 2.783 13.69 13.69 0 0 1 3.988 9.924 13.5 13.5 0 0 1-4.024 9.839 13.11 13.11 0 0 1-9.683 4.077 12.4 12.4 0 0 1-5.878-1.391 13.7 13.7 0 0 1-4.658-4.175v4.883Zm13.671-2.612a10.29 10.29 0 0 0 9.098-5.347 10.84 10.84 0 0 0-.012-10.766 10.5 10.5 0 0 0-3.861-3.992 10 10 0 0 0-5.176-1.428 10.6 10.6 0 0 0-5.322 1.428 9.95 9.95 0 0 0-3.873 3.845 10.96 10.96 0 0 0-1.352 5.444 10.6 10.6 0 0 0 3.032 7.715 10.03 10.03 0 0 0 7.466 3.101M511.81 123.499l2.88 1.513a15.7 15.7 0 0 1-3.274 4.492 13 13 0 0 1-4.178 2.601 14.6 14.6 0 0 1-5.254.89q-6.501 0-10.165-4.26a14.37 14.37 0 0 1-3.666-9.631 14.2 14.2 0 0 1 3.103-9.009 12.69 12.69 0 0 1 10.532-5.03 13.1 13.1 0 0 1 10.85 5.152 14.4 14.4 0 0 1 2.932 9.082h-23.902a10.81 10.81 0 0 0 2.958 7.588 9.43 9.43 0 0 0 7.064 2.96 11.4 11.4 0 0 0 3.948-.706 10.4 10.4 0 0 0 3.262-1.873 16 16 0 0 0 2.91-3.77m0-7.154a11.3 11.3 0 0 0-1.992-4.37 9.45 9.45 0 0 0-3.46-2.636 10.6 10.6 0 0 0-4.52-1.001 9.74 9.74 0 0 0-6.723 2.514 11.36 11.36 0 0 0-3.105 5.494ZM521.348 105.75h3.49v3.882a12.3 12.3 0 0 1 3.297-3.43 6.5 6.5 0 0 1 3.613-1.136 6.24 6.24 0 0 1 3.027.904l-1.782 2.88a4.8 4.8 0 0 0-1.807-.463 4.94 4.94 0 0 0-3.295 1.404 8.87 8.87 0 0 0-2.417 4.357q-.636 2.271-.635 9.18v8.985h-3.491ZM564.845 105.75v26.563h-3.37v-4.566a14.6 14.6 0 0 1-4.822 3.93 13.47 13.47 0 0 1-15.478-2.77 13.71 13.71 0 0 1-3.992-9.949 13.46 13.46 0 0 1 4.029-9.815 13.14 13.14 0 0 1 9.692-4.077 12.54 12.54 0 0 1 5.921 1.392 13.5 13.5 0 0 1 4.65 4.175v-4.883Zm-13.66 2.612a10.31 10.31 0 0 0-9.108 5.341 10.76 10.76 0 0 0 .012 10.73 10.5 10.5 0 0 0 3.865 3.987 10.1 10.1 0 0 0 5.207 1.427 10.7 10.7 0 0 0 5.316-1.414 9.9 9.9 0 0 0 3.865-3.829 10.9 10.9 0 0 0 1.353-5.437 10.57 10.57 0 0 0-3.036-7.708 10.06 10.06 0 0 0-7.475-3.097ZM576.214 95.886h3.418v9.864h5.42v2.954h-5.42v23.609h-3.418v-23.61h-4.663v-2.953h4.663ZM590.44 105.75h3.417v12.402a26.5 26.5 0 0 0 .49 6.25 6.96 6.96 0 0 0 2.8 3.857 8.5 8.5 0 0 0 4.925 1.416 8.32 8.32 0 0 0 4.854-1.379 7.05 7.05 0 0 0 2.75-3.625 25.6 25.6 0 0 0 .514-6.519V105.75h3.492v13.037q0 5.493-1.282 8.276a9.8 9.8 0 0 1-3.857 4.359 12.2 12.2 0 0 1-6.458 1.574 12.3 12.3 0 0 1-6.481-1.574 9.72 9.72 0 0 1-3.883-4.395q-1.28-2.821-1.281-8.484ZM621.975 105.75h3.418v4.76a14.3 14.3 0 0 1 4.54-4.089 11.15 11.15 0 0 1 5.42-1.355 9.4 9.4 0 0 1 5.286 1.513 9 9 0 0 1 3.406 4.078q1.099 2.563 1.099 7.983v13.672h-3.418v-12.67a31.3 31.3 0 0 0-.38-6.129 6.73 6.73 0 0 0-2.28-3.967 6.88 6.88 0 0 0-4.394-1.33 8.43 8.43 0 0 0-5.556 2.05 9.6 9.6 0 0 0-3.235 5.078 35.3 35.3 0 0 0-.488 7.227v9.741h-3.418ZM676.068 105.75h3.418v21.167a25 25 0 0 1-.976 8.179 10.64 10.64 0 0 1-4.663 5.64 15.33 15.33 0 0 1-7.984 1.977 18.3 18.3 0 0 1-6.14-.967 12.3 12.3 0 0 1-4.431-2.595 15.5 15.5 0 0 1-3.15-4.763h3.711a9.8 9.8 0 0 0 3.912 3.906 12.6 12.6 0 0 0 5.939 1.27 12.3 12.3 0 0 0 5.903-1.302 8 8 0 0 0 3.435-3.272q1.027-1.972 1.026-6.364v-1.367a12.94 12.94 0 0 1-4.716 3.747 14 14 0 0 1-12.806-.512 12.9 12.9 0 0 1-4.985-4.895 13.37 13.37 0 0 1-1.76-6.763 13.82 13.82 0 0 1 13.734-13.77 12.7 12.7 0 0 1 5.56 1.233 15.3 15.3 0 0 1 4.973 4.066Zm-10.083 2.612a10.8 10.8 0 0 0-5.395 1.404 10.17 10.17 0 0 0-3.906 3.882 10.6 10.6 0 0 0-1.416 5.359 9.66 9.66 0 0 0 2.93 7.226 11.54 11.54 0 0 0 15.173.025 10 10 0 0 0 2.869-7.446 10.8 10.8 0 0 0-1.319-5.359 9.6 9.6 0 0 0-3.735-3.723 10.4 10.4 0 0 0-5.2-1.368Z"/><path d="M175.183 77.92v-4.252h510.71v4.252Z" style="fill:#f79f79"/><path d="M64.251 1.444c-4.986-.095-3.94 11.06-2.501 21.386.078.562 1.098.627 1.383-.292.293-.945.63-1.979.987-3.064 2.51-7.658 5.87-17.906.131-18.03M37.033 17.425c-.188-1.77-.527-4.96-2.131-4.598-1.628.368-2.654 2.267-1.103 3.618a10 10 0 0 1 2.254 1.957c.461.766.985.142 1.004-.764q-.013-.103-.025-.213M132.023 42.583c-.309.702-.46 1.047.109 1.444.514.361.637.278 1.423-.256.338-.23.8-.544 1.468-.943 11.568-6.888 2.31-13.846-.906-9.426-1.151 1.584-1.068 3.092-1.282 6.029a8.7 8.7 0 0 1-.812 3.152ZM113.803 83.226a20.7 20.7 0 0 1 5.373-1.024c15.405-1.672 12.324-11.147 8.372-12.318-2.195-.65-4.987.867-6.89 2.596-4.018 3.647-6.695 9.297-7.246 10.23-.106.18.089.642.391.516M91.262 128.408c2.856 5.447 4.957 12.62 1.922 17.989-4.04 7.145-20.544-.323-13.338-22.092 4.748-11.484 4.561-9.346 7.936-14.222.225-.323.646-.268 1.143.068.342.229.326.262.093.745a16.4 16.4 0 0 0-1.11 3.085c-1.373 5.059.026 8.084 3.354 14.427M42.955 108.42c-.273-1.598-.49-2.87-.574-3.68-.413-4.018-.169-4.04-.727-4.064-1.224-.055-1.316 1.532-1.258 2.85.473 10.607-3.784 18.998-6.924 25.189-1.712 3.377-3.093 6.1-3.195 8.17-.24 4.963 6.023 6.415 9.88 3.38 7.26-5.712 4.247-23.357 2.797-31.845ZM118.297 132.2c-2.388-4.097-1.655-8.367-2.317-11.804-.159-.828.949-.96 1.386-.484a40.6 40.6 0 0 0 5.56 4.783c2.72 2.063 5.197 3.942 6.166 6.407 1.943 4.94-7.048 7.53-10.795 1.099M53.272 144.753c-1.088-6.218-3.504-8.615-3.64-10.764-.059-.94-.478-1.167-1.211-1.018-.401.08-.367.309-.302.76a4.54 4.54 0 0 1-.136 2.181c-.245.81-.538 1.615-.829 2.417a17.3 17.3 0 0 0-1.42 6.029c-.025 2.595.805 5.604 3.332 6.234 3.844.957 4.826-2.3 4.206-5.839Z" class="c"/><path d="M107.83 149.051c-4.093 3.741-8.541-1.581-10.267-6.382a26.2 26.2 0 0 1-1.342-8.767c-.042-.49.19-.727.444-.757a.2.2 0 0 1 .047-.002c.049.011.073.09.192.486.073.24.181.6.352 1.132 1.145 3.561 3.453 4.53 5.813 5.522 1.932.812 3.9 1.64 5.295 3.914a3.75 3.75 0 0 1-.534 4.854" class="d"/><path d="M35.087 101.08c.02-.18.045-.193.048-.194q-.001.001-.014-.01l-.04.09c-.032.065-.04.086-.035.094s.02.009.041.02Z" style="fill-rule:evenodd;fill:#d45113"/><path d="M129.467 93.936c6.355 2.148 12.171 4.115 17.497 2.32 10.84-3.654 8.064-22.003-15.274-15.86a80 80 0 0 0-14.26 5.156q-.782.342-1.579.688a71 71 0 0 1-3.33 1.342c-1.98.753-2.309.878-1.954 1.851.29.793 1.25.82 2.192.825 5.945.04 11.507 1.92 16.707 3.678Z" class="d"/><path d="M90.977 12.744a23.97 23.97 0 0 1 11.811 4.504 30.5 30.5 0 0 1 8.22 9.159 41 41 0 0 1 4.628 11.984 46.1 46.1 0 0 1 1.036 12.977q-1.244 23.97-12.778 40.15-11.538 16.184-33.086 25.342.827 4.58 1.587 9.236.76 4.658 1.452 9.541a13.6 13.6 0 0 1-.967 7.939 8.82 8.82 0 0 1-6.08 4.886 10.1 10.1 0 0 1-6.56-.382 9.34 9.34 0 0 1-5.044-4.35q-3.454-8.09-6.078-21.68-2.626-13.584-4.42-29.616-1.797-16.03-2.763-32.747-.969-16.715-1.106-31.066 0-4.884 2.901-7.48a10.26 10.26 0 0 1 6.562-2.748 11.17 11.17 0 0 1 6.839 1.984 9.31 9.31 0 0 1 3.868 6.718 50.4 50.4 0 0 1 6.147-6.26 35.6 35.6 0 0 1 7.184-4.809 33.7 33.7 0 0 1 8.013-2.824 27.2 27.2 0 0 1 8.633-.458m5.526 37.708q0-7.021-2.142-10.84a9.53 9.53 0 0 0-5.318-4.809 9.36 9.36 0 0 0-6.839.688 17.64 17.64 0 0 0-6.7 5.8 39.9 39.9 0 0 0-6.078 11.755 61 61 0 0 0-2.694 13.511 109 109 0 0 0-.276 14.58q.343 7.482 1.036 14.808a25 25 0 0 1 2.556-1.374 30 30 0 0 0 2.832-1.527 32.5 32.5 0 0 0 8.98-7.174 57.5 57.5 0 0 0 7.528-10.535 60.5 60.5 0 0 0 5.181-12.289 44 44 0 0 0 1.934-12.594" style="fill:#5b5941"/><path d="M145.486 66.13c2.508-2.937-6.771-9.137-12.18 3.528-.423.992-.353 1.303.165 1.574.547.287.766.165 1.424-.206a17.5 17.5 0 0 1 3.511-1.515c2.312-.753 5.531-1.565 7.08-3.381ZM120.8 51.264c2.557-13.281-2.662-21.322.995-28.125 2.435-4.53 8.349-4.116 9.859 1.807 1.22 5.078.308 12.45-5.216 20.575-4.432 6.518-4.45 6.517-4.96 6.492l-.042-.003c-.575-.023-.745-.179-.636-.746M14.508 42.913c-9.888-8.783 5.392-17.599 6.476-3.28.028.59.05 1.096.07 1.537a15 15 0 0 0 .588 4.48c.18.626.33 1.247-.218 1.586-.4.246-.7.025-.974-.177l-.068-.05a70 70 0 0 1-5.874-4.096ZM52.28 6.609c-4.177-2.432-8.456 2.31-7.25 5.882 1.122 3.317 5.923 3.246 10.15 4.678.761.257 1.595-.824 1.369-1.716a4.4 4.4 0 0 0-.237-.635c-.056-.135-.12-.285-.19-.464a11 11 0 0 1-.39-1.683c-.362-1.972-.834-4.536-3.453-6.062ZM10.453 68.99c-16.302.726-9.226-17.083.237-4.027a8.5 8.5 0 0 0 2.328 2.262c.492.333.726.493.583.947-.272.876-1 .86-2.305.83-.259-.005-.54-.012-.843-.012M24.558 132.733c-3.354-.173-6.04-2.32-5.692-6.233C19.918 114.713 35.9 99.677 39.4 93.936c.385-.632 1.794-.256 1.37.683-2.102 4.648-3.593 7.131-4.683 13.834-.15.93-.3 1.966-.46 3.071-1.235 8.594-3.084 21.434-11.07 21.21M5.044 104.454a2.413 2.413 0 0 1-2.65-2.483c-.153-1.794 2.033-2.04 4.187-2.28a15 15 0 0 0 2.545-.424q.053-.016.11-.038c.186-.068.394-.143.546.058a.81.81 0 0 1 .083.934q-.063.093-.165.248c-.702 1.056-2.684 4.04-4.656 3.985Z" class="d"/><path d="M91.5 3.16c-3.589-5.006-9.806.42-10.682 4.897-.11.563.227.853.594 1.15.353.285.657.153 1.024-.038a20.4 20.4 0 0 1 2.957-1.041c3.453-1.055 7.932-2.423 6.107-4.969M78.104 142.75c.7.717.006 11.32-3.508 12.705-2.659.663-5.233-2.096-4.67-5.445.551-3.294 2.603-2.236 6.353-6.618.6-.701 1.233-1.248 1.825-.641ZM120.69 21.127c-1.085 2.455-2.306 5.216-2.104 7.754.048.618-.142.796-.827.701-.805-.112-.604-.33-1.317-1.172l-.538-.631c-2.259-2.637-4.77-5.572-4.395-8.99.63-8.448 11.981-7.284 10.599-1.375a23 23 0 0 1-1.417 3.713M33.969 29.346a10.9 10.9 0 0 1 4.583.292c.4.168.655-.136.888-.414l.024-.028c.288-.343-3.175-8.557-6.157-11.121-4.024-3.46-9.906.604-8.444 6.318 1.395 5.448 5.456 5.187 9.106 4.953M11.295 43.04C3.914 42.947-4.12 59.202 29.61 71.566c2.337.857 4.168 1.535 5.605 2.067 4.5 1.667 5.141 1.906 5.35 1.701a1 1 0 0 0 .119-.203c.231-.43.196-.823-.181-1.048a22 22 0 0 1-3.007-2.45C24.113 60.09 21.26 43.34 11.295 43.04ZM17.95 94.563c-4.106 2.485-9.824 7.77-9.82 12.28-.14 4.081 4.308 6.333 8.284 5.65 10.928-1.878 16.564-23.394 25.715-27.016.707-.28-.348-1.386-1.832-.65-7.452 3.708-15.099 5.349-22.347 9.736ZM5.463 87.413c-2.846-.747-5.96-1.078-5.396 2.005 1.345 7.365 11.258 5.9 18.49-.463a.729.729 0 0 0-.603-1.244 28.5 28.5 0 0 1-12.49-.298M99.27 106.998a49 49 0 0 1 1.753-5.985c.383-1.072 2.046-1.56 2.391-.106a86.5 86.5 0 0 0 4.85 13.43c3.133 7.382 5.96 14.043 3.663 18.713-3.98 8.09-19.437 4.394-12.73-25.747zM45.22 138.268c0-.54-.983-.351-1.249.072-1.232 1.973-3.07 2.4-4.142 4.755-1.548 3.4 5.43 4.599 5.391-4.827M134.303 107.1c12.248 12.265-7.515 25.478-16.895 4.574-1.435-3.197-3.389-9.308-6.708-13.53a12.8 12.8 0 0 0-4.418-3.738c-.585-.308-.767-.404-.335-.652a1.41 1.41 0 0 1 1.51-.214c3.437 2.007 17.872 4.576 26.845 13.56ZM146.427 77.797c-2.566-.67-5.452-1.426-7.938-.93-.606.12-.805-.03-.798-.656.01-.737.252-.584.995-1.328l.557-.562c2.326-2.354 4.915-4.973 8.345-5.059 8.44-.48 8.713 9.859 2.691 9.348a25 25 0 0 1-3.852-.813M120.472 62.44a49 49 0 0 0-3.02 5.458c-.492 1.026.331 2.551 1.609 1.773a86.5 86.5 0 0 1 12.953-6.004c7.452-2.968 14.173-5.646 15.875-10.564 2.948-8.52-10.554-16.903-27.251 9.072z" class="g"/><path d="M95.775 111.787a20.5 20.5 0 0 1-.364-5.37c.05-.586-.213-.626-.598-.627h-.032c-.253-.01-.289-.01-2.818 4.9-1.829 3.549-3.644 8.137-1.548 9.465 1.53.968 3.944.198 5.073-2.447.927-2.057.631-3.844.287-5.92ZM102.795 12.185c8.315 2.862 9.802-.78 7.262-3.441-4.835-6.032-18.471-.704-18.129 1.014a1.536 1.536 0 0 0 1.496 1.096c3.315-.517 6.36.293 9.371 1.33M106.818 99.37c-1.48-1.222-1.687-2.074-1.968-2.024-.212.038-.41.595-.167 1.041a63 63 0 0 1 2.739 6.89c.647 1.798 1.256 3.49 1.716 4.535 2.85 7.314 5.497 2.392 4.886-.745-.695-3.57-4.493-7.457-7.206-9.697M18.284 28.835c.13 2.02 3.103 2.51 4.756 3.69.283.202.556.384.949.148l.114-.067c.316-.182.63-.365.503-.742a8.4 8.4 0 0 1-.33-1.876 4.36 4.36 0 0 0-1.53-3.478c-1.69-1.333-4.458.544-4.462 2.325ZM40.64 66.815a47 47 0 0 1-1.032-12.34c.056-5.682-.714-18.018-4.707-22.138-2.331-2.406-4.993-2.118-7.215-.219C14.376 43.5 36.095 66.022 39.319 68.73c.945.792 1.604-.774 1.32-1.914ZM71.118 12.234c1.287-1.15 4.973-3.108 6.666-6.4 2.663-6.2-6.019-8.296-7.61-2.122-1.213 4.707-.035 7.327-.216 7.845q-.014.038-.029.077c-.075.2-.154.412.112.542l.017.008c.338.166.72.353 1.06.05ZM146.416 110.089c1.872-1.39 2.998-5.989-2.942-8.466-4.143-1.73-8.418-1.82-10.045-1.338-.336.034-.45.34-.479.713-.03.349.219.436.463.522l.076.028c1.961.723 3.584 2.824 5.15 4.856 2.383 3.089 4.641 6.015 7.777 3.685M12.158 121.645c3.59 3.26 6.11-1.278 6.83-4.998a.577.577 0 0 0-.35-.732c-.49-.251-.736-.15-1.963.365l-.452.187c-1.536.637-4.545 1.963-4.63 3.629a1.87 1.87 0 0 0 .565 1.549ZM31.545 76.423C18.833 72.316 2.224 66.949.526 77.486c-2.317 14.375 26.252 7.277 40.107 3.523 1.497-.405.522-1.744-.122-1.898-2.476-.59-5.584-1.595-8.967-2.688M112.954 140.888c-.667 3.934 5.053 4.186 5.868 1.255.965-3.301-1.694-8.185-2.449-8.018q-.05.01-.105.022c-.28.056-.594.12-.643.43a9.8 9.8 0 0 1-1.323 3.14 10.3 10.3 0 0 0-1.348 3.17M79.973 146.796c.109-.529 1.034-.148 1.21.32.812 2.18 2.528 2.964 3.108 5.487.838 3.64-6.239 3.421-4.318-5.807" class="h"/><path d="M183.38 15.118h3.803v18.077h19.382V15.117h3.804v43.096h-3.804v-20.8h-19.382v20.8h-3.804ZM248.464 47.638l3.053 1.816a18.9 18.9 0 0 1-3.47 5.39 13.65 13.65 0 0 1-4.43 3.12 13.8 13.8 0 0 1-5.568 1.07 12.77 12.77 0 0 1-10.774-5.112 18.6 18.6 0 0 1-3.886-11.558 18.52 18.52 0 0 1 3.29-10.81 12.94 12.94 0 0 1 11.162-6.035 13.35 13.35 0 0 1 11.5 6.181A18.8 18.8 0 0 1 252.45 42.6h-25.333a13.95 13.95 0 0 0 3.134 9.104 9.46 9.46 0 0 0 7.488 3.552 11.2 11.2 0 0 0 7.642-3.094 19 19 0 0 0 3.084-4.523m0-8.584a14.5 14.5 0 0 0-2.112-5.244 10.58 10.58 0 0 0-8.459-4.365 9.66 9.66 0 0 0-7.125 3.017 14.14 14.14 0 0 0-3.29 6.592ZM263.555 26.339h3.7v4.658a14.1 14.1 0 0 1 3.494-4.116 6.34 6.34 0 0 1 3.83-1.362 6.05 6.05 0 0 1 3.208 1.084L275.9 30.06a4.6 4.6 0 0 0-1.915-.557 4.95 4.95 0 0 0-3.494 1.685 11.1 11.1 0 0 0-2.562 5.23q-.672 2.724-.673 11.015v10.781h-3.7ZM286.823 58.214v-44.18h3.623v17.783a15.8 15.8 0 0 1 5.092-4.73 12.5 12.5 0 0 1 6.178-1.568 13 13 0 0 1 10.199 4.907 17.63 17.63 0 0 1 4.226 11.91 17.35 17.35 0 0 1-4.266 11.806 13.16 13.16 0 0 1-10.262 4.892 11.9 11.9 0 0 1-6.23-1.67 15.3 15.3 0 0 1-4.938-5.01v5.86Zm14.49-3.135a9.93 9.93 0 0 0 5.577-1.684 11.8 11.8 0 0 0 4.066-4.732 14.52 14.52 0 0 0-.012-12.92 12 12 0 0 0-4.093-4.79 9.7 9.7 0 0 0-5.485-1.714 10.3 10.3 0 0 0-5.642 1.714 11.34 11.34 0 0 0-4.105 4.614 14.56 14.56 0 0 0-1.432 6.534 13.66 13.66 0 0 0 3.214 9.257 10.06 10.06 0 0 0 7.913 3.721M329.72 13.214a2.72 2.72 0 0 1 2.111.996 3.5 3.5 0 0 1 .876 2.403 3.47 3.47 0 0 1-.875 2.373 2.71 2.71 0 0 1-4.2 0 3.47 3.47 0 0 1-.876-2.373 3.5 3.5 0 0 1 .876-2.403 2.69 2.69 0 0 1 2.087-.996m-1.8 13.125h3.623v31.875h-3.623ZM342.131 26.339h3.857l9.45 23.235 9.335-23.235h3.883l-12.887 31.875h-.673ZM393.217 25.519A13.26 13.26 0 0 1 404 30.85a17.88 17.88 0 0 1 3.889 11.513 17.82 17.82 0 0 1-4.11 11.675 13.694 13.694 0 0 1-21.152 0 17.83 17.83 0 0 1-4.11-11.675 17.84 17.84 0 0 1 3.89-11.484 13.26 13.26 0 0 1 10.81-5.361m-.014 4.013a9.91 9.91 0 0 0-7.764 3.78 13.55 13.55 0 0 0-3.246 9.14 14.3 14.3 0 0 0 1.48 6.446 11.3 11.3 0 0 0 3.998 4.614 10.22 10.22 0 0 0 11.063 0 11.33 11.33 0 0 0 4-4.614 14.3 14.3 0 0 0 1.48-6.446 13.53 13.53 0 0 0-3.26-9.14 9.93 9.93 0 0 0-7.751-3.78M418.943 26.339h3.7v4.658a14.1 14.1 0 0 1 3.494-4.116 6.35 6.35 0 0 1 3.83-1.362 6.06 6.06 0 0 1 3.209 1.084l-1.889 3.457a4.6 4.6 0 0 0-1.916-.557 4.95 4.95 0 0 0-3.492 1.685 11.05 11.05 0 0 0-2.563 5.23q-.674 2.724-.674 11.015v10.781h-3.699ZM465.682 47.638l3.052 1.816a18.9 18.9 0 0 1-3.47 5.39 13.7 13.7 0 0 1-4.43 3.12 13.8 13.8 0 0 1-5.569 1.07 12.77 12.77 0 0 1-10.773-5.112 18.6 18.6 0 0 1-3.887-11.558 18.53 18.53 0 0 1 3.29-10.81 12.94 12.94 0 0 1 11.163-6.035 13.35 13.35 0 0 1 11.5 6.181 18.82 18.82 0 0 1 3.108 10.899h-25.334a13.96 13.96 0 0 0 3.134 9.104 9.47 9.47 0 0 0 7.489 3.552 11.21 11.21 0 0 0 7.642-3.094 19 19 0 0 0 3.085-4.523m0-8.584a14.5 14.5 0 0 0-2.114-5.244 10.58 10.58 0 0 0-8.459-4.366 9.66 9.66 0 0 0-7.125 3.018 14.14 14.14 0 0 0-3.289 6.592ZM503.11 15.118h7.58a38.7 38.7 0 0 1 8.798.645 9.67 9.67 0 0 1 5.33 3.735 11.7 11.7 0 0 1 2.07 7.105 11.84 11.84 0 0 1-2.017 7.104 9.8 9.8 0 0 1-5.565 3.765q-2.587.703-9.678.703h-2.716v20.039h-3.803Zm3.802 4.22v14.618l6.443.088a15 15 0 0 0 5.72-.804 6.08 6.08 0 0 0 2.847-2.602 7.9 7.9 0 0 0 1.033-4.02 7.8 7.8 0 0 0-1.033-3.962 5.95 5.95 0 0 0-2.73-2.558 14.6 14.6 0 0 0-5.551-.76ZM552.951 25.519a13.27 13.27 0 0 1 10.785 5.332 17.88 17.88 0 0 1 3.887 11.513 17.83 17.83 0 0 1-4.107 11.675 13.694 13.694 0 0 1-21.153 0 17.82 17.82 0 0 1-4.11-11.675 17.83 17.83 0 0 1 3.89-11.484 13.26 13.26 0 0 1 10.808-5.361m-.012 4.013a9.91 9.91 0 0 0-7.765 3.78 13.55 13.55 0 0 0-3.246 9.14 14.3 14.3 0 0 0 1.48 6.446 11.3 11.3 0 0 0 4 4.614 10.22 10.22 0 0 0 11.063 0 11.3 11.3 0 0 0 3.998-4.614 14.3 14.3 0 0 0 1.48-6.446 13.52 13.52 0 0 0-3.26-9.14 9.92 9.92 0 0 0-7.75-3.78M576.246 26.339h3.727l8.628 23.145 8.985-23.145h.656l9.043 23.145 8.797-23.145h3.766l-12.23 31.875h-.673l-9.002-22.822-8.996 22.822h-.676ZM653.52 47.638l3.052 1.816a18.9 18.9 0 0 1-3.47 5.39 13.7 13.7 0 0 1-4.43 3.12 13.8 13.8 0 0 1-5.569 1.07 12.77 12.77 0 0 1-10.773-5.112 18.6 18.6 0 0 1-3.887-11.558 18.53 18.53 0 0 1 3.29-10.81 12.94 12.94 0 0 1 11.163-6.035 13.35 13.35 0 0 1 11.5 6.181 18.82 18.82 0 0 1 3.108 10.899H632.17a13.96 13.96 0 0 0 3.135 9.104 9.47 9.47 0 0 0 7.488 3.552 11.21 11.21 0 0 0 7.643-3.094 19 19 0 0 0 3.083-4.523m0-8.584a14.5 14.5 0 0 0-2.114-5.244 10.58 10.58 0 0 0-8.459-4.366 9.66 9.66 0 0 0-7.125 3.018 14.14 14.14 0 0 0-3.289 6.592ZM668.61 26.339h3.698v4.658a14.1 14.1 0 0 1 3.495-4.116 6.35 6.35 0 0 1 3.83-1.362 6.06 6.06 0 0 1 3.209 1.084l-1.889 3.457a4.6 4.6 0 0 0-1.916-.557 4.95 4.95 0 0 0-3.492 1.685 11.05 11.05 0 0 0-2.563 5.23q-.674 2.724-.674 11.015v10.781h-3.699Z"/></svg>