<svg xmlns="http://www.w3.org/2000/svg" width="371.966" height="374.391" viewBox="0 0 278.975 280.793"><defs><style>.b{fill:none;stroke:#000;stroke-miterlimit:10;stroke-width:3px}.b,.c,.d,.e,.h{fill-rule:evenodd}.c{fill:#f79f79}.d{fill:#f7d08a}.e{fill:#5b5941}.h{fill:#e3f09b}.i{fill:#1d1d1b}</style></defs><ellipse cx="139.487" cy="140.397" rx="139.487" ry="140.397" style="fill:#fff"/><path d="M260.385 120.957a66.64 66.64 0 0 1 .158 34.016" class="b"/><path d="M102.744 52.387a93.057 93.057 0 0 0 0 171.392A93.006 93.006 0 0 0 204.712 72.318a93.11 93.11 0 0 0-101.968-19.93Zm2.787 164.804a85.903 85.903 0 0 1 0-158.214 85.851 85.851 0 0 1 94.122 139.812 85.95 85.95 0 0 1-94.122 18.402Z" class="c"/><path d="M127.111 62.055c-4.986-.095-3.94 11.06-2.501 21.386.078.562 1.098.627 1.383-.292.293-.945.631-1.978.988-3.064 2.51-7.658 5.868-17.906.13-18.03M99.893 78.036c-.188-1.77-.527-4.96-2.13-4.597-1.628.367-2.655 2.266-1.103 3.617a10 10 0 0 1 2.253 1.957c.462.766.986.142 1.004-.764zM194.883 103.194c-.309.702-.46 1.047.11 1.444.513.362.636.278 1.422-.256.338-.23.8-.544 1.468-.943 11.568-6.888 2.31-13.846-.906-9.426-1.15 1.584-1.068 3.092-1.282 6.029a8.7 8.7 0 0 1-.812 3.152M176.663 143.837a20.7 20.7 0 0 1 5.373-1.024c15.405-1.672 12.324-11.147 8.373-12.318-2.195-.65-4.988.867-6.892 2.596-4.017 3.647-6.694 9.297-7.245 10.23-.106.18.089.643.391.516M154.122 189.019c2.856 5.447 4.957 12.62 1.923 17.99-4.04 7.144-20.545-.323-13.338-22.093 4.748-11.484 4.56-9.346 7.935-14.221.225-.324.646-.269 1.144.067.341.23.325.262.092.745a16.4 16.4 0 0 0-1.11 3.086c-1.372 5.058.026 8.083 3.354 14.426M105.815 169.031c-.273-1.598-.49-2.87-.573-3.68-.414-4.018-.17-4.04-.728-4.064-1.224-.055-1.315 1.532-1.257 2.85.472 10.607-3.784 18.998-6.925 25.189-1.712 3.377-3.093 6.1-3.195 8.17-.24 4.963 6.024 6.415 9.88 3.38 7.26-5.712 4.247-23.357 2.797-31.845ZM181.157 192.812c-2.388-4.098-1.655-8.368-2.316-11.805-.16-.828.948-.96 1.385-.484a40.6 40.6 0 0 0 5.56 4.783c2.72 2.063 5.197 3.942 6.166 6.407 1.943 4.94-7.047 7.53-10.795 1.099M116.133 205.364c-1.089-6.218-3.505-8.615-3.64-10.764-.06-.94-.48-1.167-1.212-1.018-.4.08-.367.309-.302.76a4.54 4.54 0 0 1-.135 2.181c-.246.81-.538 1.615-.83 2.417a17.3 17.3 0 0 0-1.42 6.03c-.025 2.594.806 5.603 3.333 6.233 3.843.957 4.826-2.3 4.206-5.839Z" class="d"/><path d="M170.69 209.662c-4.093 3.742-8.541-1.58-10.267-6.382a26.2 26.2 0 0 1-1.342-8.767c-.042-.49.19-.727.444-.757a.2.2 0 0 1 .047-.001c.049.01.073.089.192.485.073.24.181.6.352 1.132 1.145 3.561 3.453 4.53 5.813 5.523 1.932.811 3.9 1.638 5.295 3.913a3.75 3.75 0 0 1-.534 4.854" class="e"/><path d="M97.948 161.692c.02-.18.045-.194.048-.195q-.002.002-.015-.01l-.04.09c-.032.065-.04.086-.034.095s.02.008.04.02Z" style="fill-rule:evenodd;fill:#d45113"/><path d="M192.327 154.547c6.355 2.148 12.171 4.115 17.497 2.32 10.84-3.654 8.064-22.003-15.273-15.86a80 80 0 0 0-14.26 5.156l-1.58.688a72 72 0 0 1-3.33 1.342c-1.98.753-2.308.878-1.954 1.851.29.793 1.25.82 2.192.825 5.946.04 11.507 1.92 16.708 3.678Z" class="e"/><path d="M153.836 73.355a23.97 23.97 0 0 1 11.812 4.504 30.5 30.5 0 0 1 8.22 9.16 41 41 0 0 1 4.628 11.983 46 46 0 0 1 1.035 12.977q-1.242 23.97-12.777 40.15-11.537 16.184-33.086 25.342.827 4.58 1.587 9.236.76 4.658 1.451 9.541a13.6 13.6 0 0 1-.966 7.939 8.82 8.82 0 0 1-6.08 4.885 10.1 10.1 0 0 1-6.56-.381 9.34 9.34 0 0 1-5.044-4.351q-3.454-8.09-6.078-21.679-2.626-13.585-4.42-29.616-1.797-16.03-2.764-32.747-.968-16.715-1.105-31.066 0-4.884 2.901-7.48a10.26 10.26 0 0 1 6.562-2.749 11.17 11.17 0 0 1 6.839 1.985 9.31 9.31 0 0 1 3.868 6.718 50.4 50.4 0 0 1 6.147-6.26 35.6 35.6 0 0 1 7.184-4.809 33.7 33.7 0 0 1 8.013-2.824 27.2 27.2 0 0 1 8.633-.458m5.527 37.708q0-7.021-2.142-10.84a9.53 9.53 0 0 0-5.319-4.808 9.36 9.36 0 0 0-6.837.687 17.64 17.64 0 0 0-6.701 5.8 39.9 39.9 0 0 0-6.078 11.756 61 61 0 0 0-2.695 13.51 109 109 0 0 0-.275 14.58q.343 7.482 1.036 14.808a25 25 0 0 1 2.556-1.374 30 30 0 0 0 2.832-1.526 32.4 32.4 0 0 0 8.979-7.175 57.5 57.5 0 0 0 7.529-10.534 60.6 60.6 0 0 0 5.18-12.29 44 44 0 0 0 1.935-12.594" style="fill:#5b5941"/><path d="M208.346 126.74c2.508-2.936-6.771-9.136-12.179 3.529-.423.992-.354 1.303.165 1.574.547.287.765.165 1.423-.206a17.5 17.5 0 0 1 3.511-1.515c2.313-.753 5.532-1.565 7.08-3.381ZM183.66 111.875c2.557-13.28-2.662-21.322.995-28.125 2.435-4.529 8.349-4.116 9.859 1.807 1.22 5.078.308 12.45-5.216 20.575-4.432 6.518-4.45 6.517-4.96 6.492l-.042-.003c-.575-.023-.745-.179-.636-.746M77.368 103.524c-9.888-8.783 5.393-17.599 6.476-3.279.029.59.05 1.095.07 1.536a15 15 0 0 0 .589 4.48c.18.626.33 1.247-.219 1.586-.399.246-.7.025-.974-.177l-.068-.05a70 70 0 0 1-5.874-4.096ZM115.14 67.22c-4.176-2.432-8.456 2.31-7.249 5.882 1.122 3.318 5.923 3.246 10.15 4.678.761.257 1.595-.824 1.368-1.716a4.4 4.4 0 0 0-.236-.634c-.057-.136-.12-.286-.191-.465a11 11 0 0 1-.39-1.682c-.362-1.973-.833-4.537-3.452-6.063ZM73.313 129.601c-16.302.726-9.225-17.082.237-4.026a8.5 8.5 0 0 0 2.329 2.261c.49.334.725.493.583.948-.273.875-1 .86-2.306.83-.258-.006-.54-.013-.843-.013M87.418 193.344c-3.354-.173-6.04-2.32-5.692-6.233 1.053-11.787 17.033-26.823 20.534-32.563.386-.633 1.794-.257 1.37.682-2.102 4.648-3.593 7.131-4.683 13.834-.15.93-.3 1.966-.459 3.072-1.236 8.593-3.084 21.434-11.07 21.208M67.904 165.065a2.413 2.413 0 0 1-2.65-2.483c-.153-1.793 2.033-2.04 4.187-2.28a15 15 0 0 0 2.545-.424q.053-.016.11-.038c.186-.068.394-.143.546.058a.81.81 0 0 1 .083.935q-.063.092-.165.247c-.701 1.056-2.684 4.04-4.656 3.985Z" class="e"/><path d="M154.36 63.77c-3.589-5.006-9.806.42-10.682 4.898-.11.562.227.853.594 1.15.353.285.657.153 1.024-.038a20.4 20.4 0 0 1 2.957-1.041c3.453-1.055 7.932-2.424 6.107-4.969M140.964 203.362c.7.716.006 11.32-3.507 12.704-2.66.664-5.234-2.096-4.672-5.444.553-3.294 2.604-2.236 6.354-6.619.601-.7 1.233-1.247 1.825-.641M183.551 81.738c-1.086 2.455-2.307 5.216-2.105 7.754.048.619-.142.796-.827.701-.805-.112-.604-.33-1.317-1.172l-.538-.631c-2.258-2.637-4.77-5.572-4.395-8.99.63-8.448 11.982-7.284 10.599-1.375a23 23 0 0 1-1.417 3.713M96.829 89.957a10.9 10.9 0 0 1 4.583.292c.401.168.655-.135.888-.414l.024-.028c.288-.343-3.175-8.557-6.157-11.121-4.024-3.46-9.906.604-8.443 6.318 1.395 5.448 5.455 5.187 9.105 4.953ZM74.155 103.65c-7.379-.091-15.414 16.164 18.315 28.528 2.337.857 4.168 1.535 5.605 2.067 4.5 1.668 5.141 1.906 5.35 1.701a1 1 0 0 0 .119-.203c.231-.43.196-.823-.18-1.047a22 22 0 0 1-3.008-2.45c-13.382-11.546-16.234-28.295-26.2-28.596ZM80.81 155.174c-4.105 2.485-9.823 7.77-9.82 12.28-.14 4.081 4.308 6.333 8.284 5.65 10.929-1.878 16.565-23.394 25.715-27.016.708-.28-.347-1.386-1.83-.65-7.453 3.708-15.1 5.349-22.348 9.736ZM68.324 148.025c-2.847-.747-5.962-1.08-5.397 2.004 1.346 7.365 11.259 5.9 18.49-.463a.729.729 0 0 0-.603-1.244 28.5 28.5 0 0 1-12.49-.298M162.13 167.61a49 49 0 0 1 1.753-5.986c.383-1.072 2.046-1.56 2.392-.106a86.5 86.5 0 0 0 4.848 13.43c3.134 7.383 5.961 14.043 3.664 18.713-3.98 8.09-19.437 4.394-12.73-25.747zM108.08 198.88c0-.54-.983-.352-1.249.071-1.232 1.973-3.07 2.4-4.141 4.755-1.55 3.401 5.429 4.6 5.39-4.827M197.163 167.712c12.248 12.264-7.515 25.478-16.895 4.573-1.434-3.197-3.389-9.308-6.707-13.53a12.8 12.8 0 0 0-4.419-3.738c-.585-.307-.766-.403-.335-.652a1.41 1.41 0 0 1 1.51-.214c3.437 2.008 17.873 4.576 26.846 13.561ZM209.287 138.409c-2.566-.672-5.452-1.427-7.938-.932-.606.12-.805-.028-.798-.655.01-.737.252-.584.995-1.328q.276-.277.557-.562c2.326-2.354 4.915-4.973 8.345-5.059 8.44-.48 8.713 9.86 2.691 9.348a25 25 0 0 1-3.852-.812M183.332 123.051a49 49 0 0 0-3.02 5.458c-.491 1.026.332 2.552 1.609 1.773a86.5 86.5 0 0 1 12.953-6.004c7.452-2.968 14.174-5.646 15.875-10.564 2.948-8.52-10.554-16.903-27.251 9.072z" class="c"/><path d="M158.635 172.398a20.5 20.5 0 0 1-.364-5.369c.05-.587-.212-.626-.598-.628h-.032c-.253-.01-.288-.01-2.818 4.9-1.828 3.55-3.643 8.137-1.547 9.465 1.53.968 3.943.198 5.072-2.447.927-2.057.632-3.844.287-5.92ZM165.655 72.796c8.316 2.862 9.802-.78 7.262-3.441-4.835-6.032-18.471-.704-18.128 1.014a1.535 1.535 0 0 0 1.495 1.096c3.316-.517 6.36.293 9.371 1.33M169.678 159.981c-1.48-1.221-1.687-2.074-1.968-2.023-.212.037-.41.594-.167 1.04a63 63 0 0 1 2.739 6.89c.647 1.798 1.256 3.49 1.716 4.536 2.85 7.313 5.497 2.392 4.886-.746-.694-3.57-4.493-7.456-7.205-9.697ZM81.144 89.446c.13 2.021 3.103 2.51 4.756 3.69.283.202.556.384.95.148l.114-.067c.316-.182.63-.365.503-.742a8.4 8.4 0 0 1-.33-1.875 4.36 4.36 0 0 0-1.53-3.479c-1.691-1.333-4.458.544-4.462 2.325ZM103.5 127.426a47 47 0 0 1-1.032-12.339c.056-5.683-.715-18.019-4.707-22.139-2.331-2.405-4.993-2.117-7.215-.218-13.31 11.38 8.409 33.904 11.634 36.61.945.792 1.604-.774 1.32-1.915ZM133.978 72.845c1.287-1.15 4.973-3.108 6.666-6.4 2.664-6.2-6.018-8.296-7.609-2.121-1.213 4.706-.036 7.326-.217 7.844q-.013.038-.029.077c-.075.2-.154.412.113.542l.016.008c.338.167.72.353 1.06.05ZM209.276 170.7c1.872-1.39 2.998-5.989-2.942-8.466-4.143-1.729-8.418-1.82-10.045-1.338-.336.034-.449.34-.479.713-.03.349.22.436.463.522l.076.028c1.962.723 3.584 2.824 5.15 4.856 2.384 3.089 4.641 6.015 7.777 3.685ZM75.019 182.256c3.589 3.26 6.109-1.278 6.829-4.998a.577.577 0 0 0-.35-.732c-.49-.251-.736-.15-1.963.365l-.451.187c-1.537.637-4.545 1.963-4.63 3.629a1.87 1.87 0 0 0 .564 1.549ZM94.405 137.034c-12.712-4.107-29.32-9.474-31.018 1.063-2.317 14.375 26.251 7.277 40.106 3.523 1.497-.405.523-1.744-.121-1.898-2.477-.59-5.584-1.595-8.967-2.688M175.814 201.499c-.667 3.935 5.054 4.186 5.868 1.255.965-3.3-1.694-8.185-2.448-8.018q-.051.01-.105.022c-.28.056-.595.12-.644.43a9.8 9.8 0 0 1-1.323 3.14 10.3 10.3 0 0 0-1.348 3.17M142.833 207.407c.109-.529 1.034-.148 1.21.32.813 2.18 2.528 2.965 3.108 5.487.838 3.641-6.238 3.421-4.318-5.807" class="h"/><path d="m10.786 98.106.642-1.747 8.104 2.975 3.268-8.903-8.104-2.975.64-1.747 19.322 7.092-.641 1.747-9.327-3.423-3.267 8.902 9.326 3.423-.64 1.748ZM40.979 71.157l1.526-.81a9 9 0 0 1 1.288 2.802 6.7 6.7 0 0 1 .12 2.627 6.9 6.9 0 0 1-1.008 2.583 6.3 6.3 0 0 1-4.86 3.185 9.02 9.02 0 0 1-9.222-5.399 6.37 6.37 0 0 1 .44-6.16 6.57 6.57 0 0 1 5.48-3.215 8.83 8.83 0 0 1 5.223 1.46l-6.552 10.522a6.56 6.56 0 0 0 4.502.996 4.68 4.68 0 0 0 3.377-2.213 5.4 5.4 0 0 0 .738-1.952 5.3 5.3 0 0 0-.016-2.004 9 9 0 0 0-1.037-2.422m-3.48-2.168a6.8 6.8 0 0 0-2.672-.446 5 5 0 0 0-2.23.724 5.07 5.07 0 0 0-1.727 1.687 4.79 4.79 0 0 0-.62 3.722 6.7 6.7 0 0 0 1.821 3.03ZM40.524 55.12l1.196-1.36 1.672 1.469a6.7 6.7 0 0 1-.349-2.582 3.15 3.15 0 0 1 .748-1.837 3 3 0 0 1 1.425-.838l.631 1.784a2.3 2.3 0 0 0-.818.528 2.45 2.45 0 0 0-.525 1.816 5.24 5.24 0 0 0 1.049 2.59 26.4 26.4 0 0 0 3.735 3.72l3.867 3.398-1.195 1.36ZM62.16 54.27 48.844 37.901l1.375-1.119 5.36 6.59a7.7 7.7 0 0 1 .506-3.326 6.24 6.24 0 0 1 1.873-2.488 6.42 6.42 0 0 1 5.35-1.331 8.3 8.3 0 0 1 5.193 3.107 8.17 8.17 0 0 1 1.94 5.691 6.5 6.5 0 0 1-2.421 4.982 5.93 5.93 0 0 1-2.869 1.305 7.4 7.4 0 0 1-3.384-.331l1.766 2.17Zm4.555-5.636a4.94 4.94 0 0 0 1.608-2.345 5.67 5.67 0 0 0 .118-3.01 6.78 6.78 0 0 0-3.898-4.781 5.8 5.8 0 0 0-2.997-.512 4.83 4.83 0 0 0-2.599 1.058 5.1 5.1 0 0 0-1.625 2.377 5.46 5.46 0 0 0-.168 2.978 6.8 6.8 0 0 0 1.425 2.862 6.43 6.43 0 0 0 4.011 2.437 4.97 4.97 0 0 0 4.125-1.064ZM71.313 21.268a1.34 1.34 0 0 1 1.132-.108 1.66 1.66 0 0 1 .948.778 1.64 1.64 0 0 1 .197 1.195 1.347 1.347 0 0 1-1.778 1.031 1.63 1.63 0 0 1-.939-.766 1.65 1.65 0 0 1-.205-1.207 1.33 1.33 0 0 1 .644-.923m2.383 5.863 1.534-.889 7.638 13.168-1.533.89ZM85.026 21.015l1.751-.702L95.2 28.89l.11-12 1.763-.707-.186 16.476-.306.123ZM114.672 11.277a6.55 6.55 0 0 1 5.66 1.515 8.4 8.4 0 0 1 2.896 5.046 8.4 8.4 0 0 1-.931 5.853 6.807 6.807 0 0 1-10.168 1.937 8.39 8.39 0 0 1-3.018-5.102 8.38 8.38 0 0 1 .844-5.744 6.55 6.55 0 0 1 4.717-3.505m.351 1.885a4.9 4.9 0 0 0-3.394 2.484 6.38 6.38 0 0 0-.743 4.585 6.7 6.7 0 0 0 1.287 2.888 5.44 5.44 0 0 0 2.334 1.799 5.1 5.1 0 0 0 5.317-1.012 5.45 5.45 0 0 0 1.511-2.531 6.7 6.7 0 0 0 .136-3.16 6.37 6.37 0 0 0-2.384-3.99 4.9 4.9 0 0 0-4.064-1.063M133.24 9.488l1.81-.043.054 2.225a6.7 6.7 0 0 1 1.662-2.007 3.15 3.15 0 0 1 1.857-.694 3 3 0 0 1 1.582.48l-.884 1.672a2.3 2.3 0 0 0-.944-.243 2.45 2.45 0 0 0-1.69.844 5.25 5.25 0 0 0-1.194 2.527 26.5 26.5 0 0 0-.204 5.267l.123 5.148-1.81.043ZM160.626 21.425l1.36 1.066a9 9 0 0 1-2.04 2.315 6.7 6.7 0 0 1-2.352 1.175 6.9 6.9 0 0 1-2.77.127 6.3 6.3 0 0 1-4.883-3.148 8.75 8.75 0 0 1-1.117-5.73 8.7 8.7 0 0 1 2.31-4.89 6.37 6.37 0 0 1 5.808-2.098 6.58 6.58 0 0 1 5.164 3.704 8.84 8.84 0 0 1 .785 5.365l-12.277-1.718a6.56 6.56 0 0 0 .916 4.519 4.68 4.68 0 0 0 3.394 2.188 5.4 5.4 0 0 0 2.083-.116 5.3 5.3 0 0 0 1.825-.828 9.1 9.1 0 0 0 1.794-1.931m.567-4.06a6.8 6.8 0 0 0-.675-2.624 5 5 0 0 0-1.568-1.745 5.06 5.06 0 0 0-2.242-.894 4.79 4.79 0 0 0-3.652.945 6.7 6.7 0 0 0-2.032 2.894ZM193.398 15.436l3.327 1.643a19.4 19.4 0 0 1 3.723 2.183 4.74 4.74 0 0 1 1.548 2.755 5.5 5.5 0 0 1-.595 3.49 5.56 5.56 0 0 1-2.388 2.605 4.8 4.8 0 0 1-3.238.406 21.8 21.8 0 0 1-4.393-1.796l-1.192-.59-4.24 8.58-1.669-.824Zm.777 2.63-3.093 6.26 2.808 1.434a7.5 7.5 0 0 0 2.679.896 2.95 2.95 0 0 0 1.8-.498 3.7 3.7 0 0 0 1.304-1.497 3.66 3.66 0 0 0 .384-1.92 2.87 2.87 0 0 0-.656-1.687 7.3 7.3 0 0 0-2.274-1.53ZM217.462 35.614a6.55 6.55 0 0 1 2.636 5.233 8.82 8.82 0 0 1-6.828 8.72 6.806 6.806 0 0 1-8.21-6.3 8.795 8.795 0 0 1 6.647-8.841 6.55 6.55 0 0 1 5.755 1.188m-1.172 1.517a4.9 4.9 0 0 0-4.113-.881 6.39 6.39 0 0 0-3.918 2.497 6.7 6.7 0 0 0-1.299 2.883 5.44 5.44 0 0 0 .21 2.94 5.1 5.1 0 0 0 4.296 3.294 5.44 5.44 0 0 0 2.893-.556 6.7 6.7 0 0 0 2.449-2.001 6.37 6.37 0 0 0 1.392-4.435 4.9 4.9 0 0 0-1.91-3.741M230.82 47.34l1.17 1.4-5.764 10.332 11.297-3.725.206.246-5.634 10.489 11.238-3.797 1.184 1.414-15.514 5.184-.211-.252 5.53-10.374-11.184 3.62-.212-.252ZM246.663 88.304l-.085 1.725a9 9 0 0 1-3.066-.326 6.7 6.7 0 0 1-2.32-1.241 6.9 6.9 0 0 1-1.705-2.186 6.3 6.3 0 0 1-.252-5.804 9.02 9.02 0 0 1 9.356-5.165 6.37 6.37 0 0 1 5.069 3.528 6.58 6.58 0 0 1-.04 6.354 8.83 8.83 0 0 1-3.924 3.742l-5.693-11.012a6.57 6.57 0 0 0-3.158 3.36 4.68 4.68 0 0 0 .176 4.033 5.4 5.4 0 0 0 1.3 1.633 5.3 5.3 0 0 0 1.73 1.01 9.1 9.1 0 0 0 2.612.349m3.642-1.883a6.8 6.8 0 0 0 1.75-2.069 5 5 0 0 0 .518-2.287 5.05 5.05 0 0 0-.567-2.346 4.79 4.79 0 0 0-2.881-2.436 6.7 6.7 0 0 0-3.536.016ZM260.669 96.12l.556 1.723-2.119.682a6.8 6.8 0 0 1 2.396 1.025 3.16 3.16 0 0 1 1.194 1.584 3 3 0 0 1-.011 1.653l-1.856-.374a2.3 2.3 0 0 0-.034-.972 2.44 2.44 0 0 0-1.29-1.381 5.26 5.26 0 0 0-2.76-.428 26.5 26.5 0 0 0-5.11 1.3l-4.9 1.58-.556-1.725Z"/><path d="m10.786 98.106.642-1.747 8.104 2.975 3.268-8.903-8.104-2.975.64-1.747 19.322 7.092-.641 1.747-9.327-3.423-3.267 8.902 9.326 3.423-.64 1.748ZM40.979 71.157l1.526-.81a9 9 0 0 1 1.288 2.802 6.7 6.7 0 0 1 .12 2.627 6.9 6.9 0 0 1-1.008 2.583 6.3 6.3 0 0 1-4.86 3.185 9.02 9.02 0 0 1-9.222-5.399 6.37 6.37 0 0 1 .44-6.16 6.57 6.57 0 0 1 5.48-3.215 8.83 8.83 0 0 1 5.223 1.46l-6.552 10.522a6.56 6.56 0 0 0 4.502.996 4.68 4.68 0 0 0 3.377-2.213 5.4 5.4 0 0 0 .738-1.952 5.3 5.3 0 0 0-.016-2.004 9 9 0 0 0-1.037-2.422m-3.48-2.168a6.8 6.8 0 0 0-2.672-.446 5 5 0 0 0-2.23.724 5.07 5.07 0 0 0-1.727 1.687 4.79 4.79 0 0 0-.62 3.722 6.7 6.7 0 0 0 1.821 3.03ZM40.524 55.12l1.196-1.36 1.672 1.469a6.7 6.7 0 0 1-.349-2.582 3.15 3.15 0 0 1 .748-1.837 3 3 0 0 1 1.425-.838l.631 1.784a2.3 2.3 0 0 0-.818.528 2.45 2.45 0 0 0-.525 1.816 5.24 5.24 0 0 0 1.049 2.59 26.4 26.4 0 0 0 3.735 3.72l3.867 3.398-1.195 1.36ZM62.16 54.27 48.844 37.901l1.375-1.119 5.36 6.59a7.7 7.7 0 0 1 .506-3.326 6.24 6.24 0 0 1 1.873-2.488 6.42 6.42 0 0 1 5.35-1.331 8.3 8.3 0 0 1 5.193 3.107 8.17 8.17 0 0 1 1.94 5.691 6.5 6.5 0 0 1-2.421 4.982 5.93 5.93 0 0 1-2.869 1.305 7.4 7.4 0 0 1-3.384-.331l1.766 2.17Zm4.555-5.636a4.94 4.94 0 0 0 1.608-2.345 5.67 5.67 0 0 0 .118-3.01 6.78 6.78 0 0 0-3.898-4.781 5.8 5.8 0 0 0-2.997-.512 4.83 4.83 0 0 0-2.599 1.058 5.1 5.1 0 0 0-1.625 2.377 5.46 5.46 0 0 0-.168 2.978 6.8 6.8 0 0 0 1.425 2.862 6.43 6.43 0 0 0 4.011 2.437 4.97 4.97 0 0 0 4.125-1.064ZM71.313 21.268a1.34 1.34 0 0 1 1.132-.108 1.66 1.66 0 0 1 .948.778 1.64 1.64 0 0 1 .197 1.195 1.347 1.347 0 0 1-1.778 1.031 1.63 1.63 0 0 1-.939-.766 1.65 1.65 0 0 1-.205-1.207 1.33 1.33 0 0 1 .644-.923m2.383 5.863 1.534-.889 7.638 13.168-1.533.89ZM85.026 21.015l1.751-.702L95.2 28.89l.11-12 1.763-.707-.186 16.476-.306.123ZM114.672 11.277a6.55 6.55 0 0 1 5.66 1.515 8.4 8.4 0 0 1 2.896 5.046 8.4 8.4 0 0 1-.931 5.853 6.807 6.807 0 0 1-10.168 1.937 8.39 8.39 0 0 1-3.018-5.102 8.38 8.38 0 0 1 .844-5.744 6.55 6.55 0 0 1 4.717-3.505m.351 1.885a4.9 4.9 0 0 0-3.394 2.484 6.38 6.38 0 0 0-.743 4.585 6.7 6.7 0 0 0 1.287 2.888 5.44 5.44 0 0 0 2.334 1.799 5.1 5.1 0 0 0 5.317-1.012 5.45 5.45 0 0 0 1.511-2.531 6.7 6.7 0 0 0 .136-3.16 6.37 6.37 0 0 0-2.384-3.99 4.9 4.9 0 0 0-4.064-1.063M133.24 9.488l1.81-.043.054 2.225a6.7 6.7 0 0 1 1.662-2.007 3.15 3.15 0 0 1 1.857-.694 3 3 0 0 1 1.582.48l-.884 1.672a2.3 2.3 0 0 0-.944-.243 2.45 2.45 0 0 0-1.69.844 5.25 5.25 0 0 0-1.194 2.527 26.5 26.5 0 0 0-.204 5.267l.123 5.148-1.81.043ZM160.626 21.425l1.36 1.066a9 9 0 0 1-2.04 2.315 6.7 6.7 0 0 1-2.352 1.175 6.9 6.9 0 0 1-2.77.127 6.3 6.3 0 0 1-4.883-3.148 8.75 8.75 0 0 1-1.117-5.73 8.7 8.7 0 0 1 2.31-4.89 6.37 6.37 0 0 1 5.808-2.098 6.58 6.58 0 0 1 5.164 3.704 8.84 8.84 0 0 1 .785 5.365l-12.277-1.718a6.56 6.56 0 0 0 .916 4.519 4.68 4.68 0 0 0 3.394 2.188 5.4 5.4 0 0 0 2.083-.116 5.3 5.3 0 0 0 1.825-.828 9.1 9.1 0 0 0 1.794-1.931m.567-4.06a6.8 6.8 0 0 0-.675-2.624 5 5 0 0 0-1.568-1.745 5.06 5.06 0 0 0-2.242-.894 4.79 4.79 0 0 0-3.652.945 6.7 6.7 0 0 0-2.032 2.894ZM193.398 15.436l3.327 1.643a19.4 19.4 0 0 1 3.723 2.183 4.74 4.74 0 0 1 1.548 2.755 5.5 5.5 0 0 1-.595 3.49 5.56 5.56 0 0 1-2.388 2.605 4.8 4.8 0 0 1-3.238.406 21.8 21.8 0 0 1-4.393-1.796l-1.192-.59-4.24 8.58-1.669-.824Zm.777 2.63-3.093 6.26 2.808 1.434a7.5 7.5 0 0 0 2.679.896 2.95 2.95 0 0 0 1.8-.498 3.7 3.7 0 0 0 1.304-1.497 3.66 3.66 0 0 0 .384-1.92 2.87 2.87 0 0 0-.656-1.687 7.3 7.3 0 0 0-2.274-1.53ZM217.462 35.614a6.55 6.55 0 0 1 2.636 5.233 8.82 8.82 0 0 1-6.828 8.72 6.806 6.806 0 0 1-8.21-6.3 8.795 8.795 0 0 1 6.647-8.841 6.55 6.55 0 0 1 5.755 1.188m-1.172 1.517a4.9 4.9 0 0 0-4.113-.881 6.39 6.39 0 0 0-3.918 2.497 6.7 6.7 0 0 0-1.299 2.883 5.44 5.44 0 0 0 .21 2.94 5.1 5.1 0 0 0 4.296 3.294 5.44 5.44 0 0 0 2.893-.556 6.7 6.7 0 0 0 2.449-2.001 6.37 6.37 0 0 0 1.392-4.435 4.9 4.9 0 0 0-1.91-3.741M230.82 47.34l1.17 1.4-5.764 10.332 11.297-3.725.206.246-5.634 10.489 11.238-3.797 1.184 1.414-15.514 5.184-.211-.252 5.53-10.374-11.184 3.62-.212-.252ZM246.663 88.304l-.085 1.725a9 9 0 0 1-3.066-.326 6.7 6.7 0 0 1-2.32-1.241 6.9 6.9 0 0 1-1.705-2.186 6.3 6.3 0 0 1-.252-5.804 9.02 9.02 0 0 1 9.356-5.165 6.37 6.37 0 0 1 5.069 3.528 6.58 6.58 0 0 1-.04 6.354 8.83 8.83 0 0 1-3.924 3.742l-5.693-11.012a6.57 6.57 0 0 0-3.158 3.36 4.68 4.68 0 0 0 .176 4.033 5.4 5.4 0 0 0 1.3 1.633 5.3 5.3 0 0 0 1.73 1.01 9.1 9.1 0 0 0 2.612.349m3.642-1.883a6.8 6.8 0 0 0 1.75-2.069 5 5 0 0 0 .518-2.287 5.05 5.05 0 0 0-.567-2.346 4.79 4.79 0 0 0-2.881-2.436 6.7 6.7 0 0 0-3.536.016ZM260.669 96.12l.556 1.723-2.119.682a6.8 6.8 0 0 1 2.396 1.025 3.16 3.16 0 0 1 1.194 1.584 3 3 0 0 1-.011 1.653l-1.856-.374a2.3 2.3 0 0 0-.034-.972 2.44 2.44 0 0 0-1.29-1.381 5.26 5.26 0 0 0-2.76-.428 26.5 26.5 0 0 0-5.11 1.3l-4.9 1.58-.556-1.725Z" class="i"/><path d="m28.876 166.024 3.056 10.227-1.931.577-2.522-8.444-6.181 1.847 2.5 8.37-1.93.577-2.5-8.371-7.75 2.316 2.501 8.37-1.93.577-3.034-10.154ZM29.095 183.414l.73 1.657-2.036.896a6.8 6.8 0 0 1 2.488.773 3.15 3.15 0 0 1 1.35 1.453 3 3 0 0 1 .159 1.645l-1.883-.18a2.3 2.3 0 0 0-.135-.965 2.44 2.44 0 0 0-1.425-1.24 5.24 5.24 0 0 0-2.79-.14 26.4 26.4 0 0 0-4.948 1.818l-4.713 2.074-.73-1.657ZM34.244 194.504l.92 1.515-2.332 1.417a7.7 7.7 0 0 1 3.227.796 5.36 5.36 0 0 1 2.123 1.999 4.55 4.55 0 0 1 .681 2.793 5.07 5.07 0 0 1-1.08 2.723 13.6 13.6 0 0 1-3.614 2.863l-6.696 4.068-.92-1.514 6.206-3.772a19.7 19.7 0 0 0 2.898-1.992 3.96 3.96 0 0 0 1.33-2.19 3.34 3.34 0 0 0-.532-2.344 4.13 4.13 0 0 0-2.5-1.851 5.6 5.6 0 0 0-3.358.077 22.3 22.3 0 0 0-3.672 1.933l-4.77 2.9-.922-1.515ZM53.797 221.12l-11.48 9.997-1.148-1.317 1.974-1.719a7.8 7.8 0 0 1-3.342-.406 6.23 6.23 0 0 1-2.56-1.79 6.43 6.43 0 0 1-1.513-5.307 8.3 8.3 0 0 1 2.94-5.306 8.15 8.15 0 0 1 5.614-2.118 6.51 6.51 0 0 1 5.064 2.256 6 6 0 0 1 1.415 2.84 7.3 7.3 0 0 1-.22 3.39l2.11-1.837Zm-5.781-4.36a4.95 4.95 0 0 0-2.4-1.532 5.66 5.66 0 0 0-3.01-.02 6.73 6.73 0 0 0-4.634 4.043 5.77 5.77 0 0 0-.406 3.011 4.87 4.87 0 0 0 1.156 2.575 5.15 5.15 0 0 0 2.422 1.546 5.4 5.4 0 0 0 2.97.07 6.8 6.8 0 0 0 2.812-1.517 6.4 6.4 0 0 0 2.297-4.088 4.98 4.98 0 0 0-1.207-4.088m4.124-6.705a1.35 1.35 0 0 1 .323 1.095 1.745 1.745 0 0 1-1.73 1.506 1.37 1.37 0 0 1-1.364-1.565 1.745 1.745 0 0 1 1.73-1.507 1.35 1.35 0 0 1 1.041.471Zm3.392 3.895a1.36 1.36 0 0 1 .324 1.096 1.745 1.745 0 0 1-1.73 1.507 1.37 1.37 0 0 1-1.365-1.567 1.745 1.745 0 0 1 1.73-1.506 1.35 1.35 0 0 1 1.041.47ZM63.003 221.776l1.374 1.121-5.44 6.667a7.8 7.8 0 0 1 3.316-.318 5.33 5.33 0 0 1 2.66 1.167 4.55 4.55 0 0 1 1.575 2.405 5.1 5.1 0 0 1-.105 2.922 13.5 13.5 0 0 1-2.455 3.91l-4.953 6.071-1.374-1.121 4.59-5.626a20.5 20.5 0 0 0 2.074-2.842 4.1 4.1 0 0 0 .51-2.517 3.32 3.32 0 0 0-1.279-2.028 4.14 4.14 0 0 0-2.974-.91 5.6 5.6 0 0 0-3.14 1.194 22 22 0 0 0-2.815 3.05l-3.53 4.325-1.373-1.12ZM74.365 237.753l1.54.953-1.169 1.892a6.8 6.8 0 0 1 2.488-.773 3.15 3.15 0 0 1 1.935.431 3 3 0 0 1 1.064 1.266l-1.655.918a2.3 2.3 0 0 0-.657-.719 2.44 2.44 0 0 0-1.877-.214 5.24 5.24 0 0 0-2.379 1.466 26.4 26.4 0 0 0-3.046 4.302l-2.707 4.38-1.54-.951ZM84.701 243.888l1.616.727-2.913 6.483a16.8 16.8 0 0 0-1.237 3.372 4 4 0 0 0 .419 2.611 4.1 4.1 0 0 0 1.997 1.787 3.954 3.954 0 0 0 4.773-1 16.2 16.2 0 0 0 1.775-3.297l2.913-6.484 1.651.742-3.062 6.816a12.9 12.9 0 0 1-2.551 4.053 5.47 5.47 0 0 1-2.849 1.459 5.85 5.85 0 0 1-3.423-.55 5.9 5.9 0 0 1-2.697-2.202 5.42 5.42 0 0 1-.804-3.122 13.5 13.5 0 0 1 1.386-4.707ZM102.802 251.347l1.714.452-.697 2.638a7.7 7.7 0 0 1 2.875-1.665 5.36 5.36 0 0 1 2.916-.033 4.55 4.55 0 0 1 2.43 1.538 5.1 5.1 0 0 1 1.111 2.71 13.6 13.6 0 0 1-.617 4.57l-2 7.575-1.714-.452 1.854-7.021a20 20 0 0 0 .706-3.447 3.97 3.97 0 0 0-.563-2.5 3.35 3.35 0 0 0-2.01-1.318 4.13 4.13 0 0 0-3.086.4 5.6 5.6 0 0 0-2.364 2.387 22.2 22.2 0 0 0-1.302 3.939l-1.425 5.398-1.714-.453ZM133.494 256.773l1.766.155-1.064 12.084a15.8 15.8 0 0 1-.915 4.625 6 6 0 0 1-2.692 3.008 7.37 7.37 0 0 1-4.224.767 8.7 8.7 0 0 1-3.124-.832 6.3 6.3 0 0 1-2.158-1.683 9 9 0 0 1-1.388-2.862l1.917.169a5.37 5.37 0 0 0 1.825 2.407 6 6 0 0 0 3.004.995 5.9 5.9 0 0 0 3.116-.475 4.37 4.37 0 0 0 1.938-1.712 9.2 9.2 0 0 0 .85-3.586l.069-.78a6.86 6.86 0 0 1-2.625 1.924 6.6 6.6 0 0 1-3.12.478 6.65 6.65 0 0 1-3.47-1.353 7.1 7.1 0 0 1-2.33-3.02 8.3 8.3 0 0 1-.569-3.942 8.4 8.4 0 0 1 1.292-3.84 7.4 7.4 0 0 1 2.873-2.647 6.5 6.5 0 0 1 3.622-.75 6.1 6.1 0 0 1 2.81.957 8.2 8.2 0 0 1 2.366 2.546Zm-5.34 1.033a5.2 5.2 0 0 0-2.858.556 5.6 5.6 0 0 0-2.213 2.039 6.6 6.6 0 0 0-1.001 2.994 5.85 5.85 0 0 0 1.15 4.26 5.564 5.564 0 0 0 7.838.703 6.07 6.07 0 0 0 1.856-4.12 6.7 6.7 0 0 0-.412-3.12 5.27 5.27 0 0 0-1.743-2.295 5 5 0 0 0-2.617-1.017ZM149.781 258.034l-1.063 1.364a3.96 3.96 0 0 0-2.863-1.364 2 2 0 0 0-1.44.712 2.04 2.04 0 0 0-.531 1.502 2.3 2.3 0 0 0 .587 1.382 7.2 7.2 0 0 0 2.22 1.485 8.1 8.1 0 0 1 2.81 2.026 4.27 4.27 0 0 1 .833 2.349 4.54 4.54 0 0 1-1.01 3.239 3.87 3.87 0 0 1-2.901 1.469 4.8 4.8 0 0 1-2.305-.444 5.05 5.05 0 0 1-1.882-1.476l1.034-1.46a3.77 3.77 0 0 0 2.972 1.526 2.57 2.57 0 0 0 2.415-2.675 2.43 2.43 0 0 0-.579-1.465 8 8 0 0 0-2.322-1.495 7.3 7.3 0 0 1-2.653-1.95 4.24 4.24 0 0 1-.806-2.322 4.06 4.06 0 0 1 .905-2.94 3.55 3.55 0 0 1 2.639-1.3 5.41 5.41 0 0 1 3.94 1.837M159.692 270.585l-4.287-20.66 1.737-.36 1.724 8.317a7.7 7.7 0 0 1 1.982-2.72 6.23 6.23 0 0 1 2.807-1.347 6.43 6.43 0 0 1 5.363 1.281 8.3 8.3 0 0 1 3.18 5.149 8.17 8.17 0 0 1-.898 5.945 6.5 6.5 0 0 1-4.442 3.309 5.93 5.93 0 0 1-3.147-.163 7.4 7.4 0 0 1-2.851-1.851l.568 2.74Zm6.638-2.907a4.95 4.95 0 0 0 2.509-1.342 5.66 5.66 0 0 0 1.488-2.617 6.78 6.78 0 0 0-1.259-6.04 5.77 5.77 0 0 0-2.425-1.833 4.83 4.83 0 0 0-2.795-.257 5.13 5.13 0 0 0-2.537 1.363 5.46 5.46 0 0 0-1.518 2.566 6.8 6.8 0 0 0-.053 3.197 6.43 6.43 0 0 0 2.439 4.01 4.97 4.97 0 0 0 4.151.953M191.708 255.82l1.71.249a9 9 0 0 1-.618 3.021 6.7 6.7 0 0 1-1.457 2.19 6.9 6.9 0 0 1-2.339 1.488 6.31 6.31 0 0 1-5.802-.304 9.02 9.02 0 0 1-4.247-9.807 6.37 6.37 0 0 1 3.997-4.708 6.58 6.58 0 0 1 6.322.645 8.84 8.84 0 0 1 3.348 4.266l-11.505 4.613a6.56 6.56 0 0 0 3.042 3.465 4.68 4.68 0 0 0 4.033.211 5.4 5.4 0 0 0 1.749-1.137 5.3 5.3 0 0 0 1.172-1.626 9 9 0 0 0 .595-2.566m-1.525-3.805a6.8 6.8 0 0 0-1.892-1.94 5 5 0 0 0-2.227-.734 5.07 5.07 0 0 0-2.39.34 4.78 4.78 0 0 0-2.7 2.636 6.7 6.7 0 0 0-.323 3.52ZM195.324 242.619l1.574-.895 1.1 1.934a6.8 6.8 0 0 1 .514-2.554 3.15 3.15 0 0 1 1.307-1.491 3 3 0 0 1 1.621-.326l.012 1.892a2.3 2.3 0 0 0-.945.232 2.45 2.45 0 0 0-1.089 1.544 5.24 5.24 0 0 0 .146 2.79 26.4 26.4 0 0 0 2.313 4.737l2.545 4.477-1.574.894ZM216.74 228.042l9.28 12.067-1.385 1.065-1.595-2.074a7.8 7.8 0 0 1-.608 3.31 6.23 6.23 0 0 1-1.944 2.448 6.44 6.44 0 0 1-5.387 1.188 8.3 8.3 0 0 1-5.118-3.258 8.14 8.14 0 0 1-1.773-5.733 6.51 6.51 0 0 1 2.56-4.917 6 6 0 0 1 2.92-1.239 7.3 7.3 0 0 1 3.37.426l-1.706-2.218Zm-4.703 5.505a4.95 4.95 0 0 0-1.676 2.302 5.66 5.66 0 0 0-.202 3.004 6.73 6.73 0 0 0 3.753 4.871 5.8 5.8 0 0 0 2.982.589 4.86 4.86 0 0 0 2.639-.998 5.13 5.13 0 0 0 1.691-2.323 5.4 5.4 0 0 0 .251-2.961 6.8 6.8 0 0 0-1.342-2.899 6.4 6.4 0 0 0-3.942-2.54 4.98 4.98 0 0 0-4.154.955ZM219.313 217.647l1.238-1.269 4.045 3.95 1.964-2.012 1.21 1.183-1.963 2.011 9.68 9.452-1.238 1.269-9.68-9.452-1.69 1.73-1.211-1.183 1.689-1.73ZM230.69 213.726l1.058-1.422 5.703 4.241a16.7 16.7 0 0 0 3.025 1.935 4 4 0 0 0 2.64.154 4.1 4.1 0 0 0 2.176-1.565 3.95 3.95 0 0 0 .053-4.877 16.3 16.3 0 0 0-2.839-2.443l-5.703-4.242 1.08-1.453 5.995 4.46a12.9 12.9 0 0 1 3.41 3.363 5.47 5.47 0 0 1 .81 3.096 5.85 5.85 0 0 1-1.274 3.226 5.9 5.9 0 0 1-2.73 2.159 5.43 5.43 0 0 1-3.223.112 13.5 13.5 0 0 1-4.298-2.368ZM241.886 197.647l.812-1.575 2.425 1.25a7.7 7.7 0 0 1-1.003-3.166 5.36 5.36 0 0 1 .599-2.855 4.55 4.55 0 0 1 2.028-2.038 5.1 5.1 0 0 1 2.887-.498 13.6 13.6 0 0 1 4.327 1.592l6.963 3.593-.813 1.576-6.454-3.33a19.7 19.7 0 0 0-3.21-1.436 3.96 3.96 0 0 0-2.563.008 3.34 3.34 0 0 0-1.723 1.676 4.13 4.13 0 0 0-.277 3.099 5.6 5.6 0 0 0 1.817 2.826 22.4 22.4 0 0 0 3.565 2.124l4.96 2.56-.812 1.575ZM253.843 168.801l.532-1.69 11.571 3.643a15.7 15.7 0 0 1 4.319 1.891 6 6 0 0 1 2.356 3.278 7.36 7.36 0 0 1-.162 4.289 8.6 8.6 0 0 1-1.485 2.871 6.3 6.3 0 0 1-2.109 1.745 9 9 0 0 1-3.094.738l.578-1.835a5.4 5.4 0 0 0 2.745-1.262 6 6 0 0 0 1.619-2.72 5.9 5.9 0 0 0 .208-3.145 4.36 4.36 0 0 0-1.255-2.262 9.15 9.15 0 0 0-3.318-1.603l-.747-.235a6.9 6.9 0 0 1 1.313 2.978 6.56 6.56 0 0 1-.207 3.15 6.64 6.64 0 0 1-2.067 3.096 7.1 7.1 0 0 1-3.453 1.624 8.3 8.3 0 0 1-3.97-.294 8.4 8.4 0 0 1-3.472-2.09 7.4 7.4 0 0 1-1.967-3.376 6.5 6.5 0 0 1 .05-3.698 6.1 6.1 0 0 1 1.54-2.538 8.2 8.2 0 0 1 2.997-1.761Zm-.143 5.438a5.2 5.2 0 0 0-.073 2.91 5.6 5.6 0 0 0 1.514 2.6 6.6 6.6 0 0 0 2.709 1.623 5.85 5.85 0 0 0 4.407-.205 5.563 5.563 0 0 0 2.376-7.502 6.07 6.07 0 0 0-3.623-2.7 6.7 6.7 0 0 0-3.135-.27 5.26 5.26 0 0 0-2.617 1.207 5 5 0 0 0-1.558 2.337Z"/><path d="M16.69 121.022a66.34 66.34 0 0 0-.179 34.015" class="b"/></svg>