<svg xmlns="http://www.w3.org/2000/svg" width="98.416mm" height="99.0577mm" viewBox="0 0 278.9746 280.7935"><defs><style>.a{fill:#fff;}.b{fill:none;stroke:#000;stroke-miterlimit:10;stroke-width:3px;}.b,.c,.d,.e,.f,.h{fill-rule:evenodd;}.c{fill:#f79f79;}.d{fill:#f7d08a;}.e,.g{fill:#5b5941;}.f{fill:#d45113;}.g{font-size:152.6633px;font-family:Pulang;}.h{fill:#e3f09b;}.i,.j{font-size:28.6556px;font-family:CenturyGothic, Century Gothic;}.j{fill:#1d1d1b;}</style></defs><ellipse class="a" cx="139.4873" cy="140.3967" rx="139.4873" ry="140.3967"/><path class="b" d="M260.3855,120.957a66.6419,66.6419,0,0,1,.1576,34.0158"/><path class="c" d="M102.7438,52.3874a93.057,93.057,0,0,0,0,171.3912A93.006,93.006,0,0,0,204.7116,72.3178a93.1062,93.1062,0,0,0-101.9678-19.93Zm2.7872,164.8032a85.9029,85.9029,0,0,1,0-158.2139,85.8514,85.8514,0,0,1,94.1218,139.8126,85.948,85.948,0,0,1-94.1219,18.4013Z"/><path class="d" d="M127.1113,62.0549c-4.9866-.0946-3.94,11.0609-2.5013,21.3861.0784.562,1.0979.6269,1.3829-.2922.2929-.9446.6313-1.9781.9878-3.0639C129.491,72.4268,132.8494,62.1791,127.1113,62.0549Z"/><path class="d" d="M99.8927,78.0357c-.1877-1.7691-.5266-4.96-2.13-4.5971-1.628.3671-2.6544,2.2661-1.1027,3.6173a10.0879,10.0879,0,0,1,2.2534,1.9569c.4617.7666.9855.1426,1.0038-.7639-.0084-.0677-.0155-.14-.024-.2132Z"/><path class="d" d="M194.8833,103.1939c-.309.7026-.4594,1.0474.1089,1.4445.5138.3612.6371.2778,1.4231-.2565.3378-.23.8-.5442,1.468-.9429,11.5678-6.8879,2.31-13.8461-.9061-9.4257-1.151,1.5834-1.0678,3.0918-1.2823,6.0283a8.73,8.73,0,0,1-.8116,3.1523Z"/><path class="d" d="M176.6634,143.837a20.6984,20.6984,0,0,1,5.3731-1.024c15.4047-1.6722,12.3238-11.1474,8.3722-12.3179-2.1951-.65-4.9878.8674-6.8913,2.596-4.017,3.6474-6.6947,9.2973-7.2449,10.2294C176.166,143.5015,176.3608,143.9635,176.6634,143.837Z"/><path class="d" d="M154.1223,189.019c2.8558,5.4469,4.9568,12.6208,1.9223,17.9891-4.04,7.1453-20.5442-.3226-13.3381-22.092,4.748-11.4837,4.5611-9.3458,7.9355-14.2216.2252-.3237.6458-.2682,1.1436.0675.3416.2292.3252.2624.0929.745a16.353,16.353,0,0,0-1.11,3.0856C149.3957,179.6512,150.794,182.6759,154.1223,189.019Z"/><path class="d" d="M105.8149,169.0311c-.2725-1.5983-.49-2.87-.5732-3.6794-.4137-4.0183-.1695-4.04-.7272-4.0649-1.2241-.0551-1.3159,1.5319-1.258,2.8506.473,10.6062-3.7839,18.9972-6.924,25.1884-1.7126,3.3773-3.0934,6.0994-3.1951,8.1707-.24,4.9629,6.0232,6.4143,9.88,3.38,7.26-5.7125,4.247-23.3571,2.797-31.8455Z"/><path class="d" d="M181.157,192.8118c-2.3879-4.0973-1.6551-8.3675-2.3164-11.8052-.1592-.8274.9487-.959,1.3854-.4834a40.56,40.56,0,0,0,5.5607,4.7832c2.72,2.0627,5.1963,3.9412,6.1657,6.4069C193.8951,196.6538,184.9047,199.2423,181.157,192.8118Z"/><path class="d" d="M116.1326,205.3641c-1.0886-6.2181-3.5044-8.6155-3.64-10.7644-.0593-.939-.4787-1.1663-1.2114-1.018-.401.0805-.3671.3092-.3022.76a4.5436,4.5436,0,0,1-.1355,2.1814c-.2457.81-.538,1.6152-.8288,2.4172a17.3065,17.3065,0,0,0-1.42,6.0288c-.0254,2.5951.8048,5.6039,3.3321,6.2336,3.8432.9573,4.8259-2.3,4.2061-5.8382Z"/><path class="e" d="M170.69,209.6622c-4.0927,3.7413-8.541-1.5811-10.2667-6.382a26.15,26.15,0,0,1-1.3418-8.767c-.0426-.4906.19-.7273.444-.7569a.17.17,0,0,1,.0463-.0016c.049.01.0729.089.1925.4853.0727.2406.1808.5995.3522,1.1322,1.1449,3.5611,3.4521,4.53,5.8123,5.5223,1.9324.8115,3.9,1.6388,5.2955,3.9138a3.7493,3.7493,0,0,1-.5343,4.8539Z"/><path class="f" d="M97.9475,161.6919c.02-.1807.0452-.1934.048-.1949-.0014,0-.0056-.0014-.0141-.01-.0169.0367-.0311.0663-.0409.09-.0311.065-.04.0862-.0339.0946s.02.0085.0409.02Z"/><path class="e" d="M192.3269,154.5471c6.3554,2.1478,12.1716,4.1147,17.4971,2.32,10.8408-3.6541,8.0643-22.0032-15.2733-15.86a79.7846,79.7846,0,0,0-14.26,5.1561q-.7826.3414-1.5791.688c-1.4308.62-2.5183,1.0349-3.33,1.3422-1.98.7528-2.3089.8779-1.9547,1.851.2894.7931,1.25.82,2.1925.825,5.9454.0405,11.507,1.92,16.7072,3.6776Z"/><text class="g" transform="translate(99.4067 204.0349) scale(0.9049 1)">P</text><path class="e" d="M208.3462,126.7409c2.5076-2.9366-6.7712-9.1366-12.1791,3.5278-.4236.9924-.3541,1.3036.1644,1.574.5473.2875.7655.1653,1.4235-.2053a17.4923,17.4923,0,0,1,3.5113-1.5154c2.3123-.7527,5.5314-1.5655,7.08-3.3811Z"/><path class="e" d="M183.66,111.8753c2.5574-13.2812-2.6619-21.3222.9951-28.1248,2.4348-4.5295,8.3487-4.1168,9.8589,1.8063,1.2209,5.0778.3078,12.45-5.2157,20.5749-4.4319,6.5187-4.4506,6.5173-4.9608,6.4924-.0132-.0008-.0273-.0013-.0417-.0028-.5744-.0228-.7445-.1788-.6358-.746Z"/><path class="e" d="M77.3681,103.5239c-9.8884-8.7828,5.3924-17.5985,6.4759-3.2788.0288.59.0507,1.0954.07,1.5358a15.0606,15.0606,0,0,0,.5886,4.48c.18.6258.33,1.247-.2183,1.5863-.3993.2459-.7.0246-.9744-.1773-.0236-.0169-.0455-.0325-.0677-.0495a70.1773,70.1773,0,0,1-5.8739-4.0961Z"/><path class="e" d="M115.14,67.22c-4.176-2.4317-8.4558,2.3108-7.2488,5.8821,1.1216,3.3175,5.9224,3.246,10.15,4.6781.7608.2569,1.5945-.824,1.368-1.7164a4.4274,4.4274,0,0,0-.2362-.6343c-.0566-.1352-.1207-.2851-.1911-.4642a11.3141,11.3141,0,0,1-.39-1.6827c-.3618-1.9722-.8329-4.5362-3.4521-6.0627Z"/><path class="e" d="M73.313,129.6013c-16.3018.7257-9.2254-17.0827.2372-4.0268a8.4738,8.4738,0,0,0,2.3283,2.2619c.4913.3332.7257.4927.5831.9474-.2725.8753-1,.86-2.3057.83C73.8976,129.6083,73.6166,129.6013,73.313,129.6013Z"/><path class="e" d="M87.4177,193.3443c-3.3535-.1735-6.04-2.3206-5.6912-6.2331,1.052-11.7868,17.0323-26.8228,20.5338-32.5635.3853-.6329,1.7936-.2565,1.369.6821-2.1012,4.6485-3.5923,7.1316-4.6819,13.8341-.1505.9293-.3,1.966-.4594,3.0717C97.2522,180.7292,95.4036,193.57,87.4177,193.3443Z"/><path class="e" d="M67.9038,165.0653a2.4128,2.4128,0,0,1-2.65-2.4836c-.1525-1.7931,2.0331-2.0388,4.1877-2.28a15.2259,15.2259,0,0,0,2.5442-.4236c.0353-.01.0721-.024.11-.0381.1863-.0678.3939-.1426.5464.0579a.81.81,0,0,1,.0833.9347c-.0424.0607-.0974.1454-.1652.2471-.7017,1.0561-2.684,4.0408-4.6565,3.9858Z"/><path class="c" d="M154.36,63.77c-3.5887-5.0056-9.8063.4206-10.6821,4.8975-.11.5629.2273.8535.5942,1.1508.3524.2844.6569.1524,1.0235-.038a20.39,20.39,0,0,1,2.9576-1.0418c3.4528-1.0543,7.9319-2.4231,6.1067-4.9685Z"/><path class="c" d="M140.964,203.3617c.7.7164.0063,11.32-3.5074,12.704-2.6593.6639-5.2332-2.0954-4.6712-5.4441.5522-3.2941,2.6033-2.2361,6.354-6.6183.6007-.7012,1.2324-1.2478,1.8246-.6416Z"/><path class="c" d="M183.5511,81.7378c-1.0857,2.4551-2.307,5.2164-2.1053,7.7547.0486.6181-.1414.7953-.8264.7009-.8055-.112-.6046-.3309-1.3175-1.1724-.1764-.2078-.3573-.4187-.5381-.631-2.2582-2.6371-4.77-5.5716-4.3947-8.99.63-8.4481,11.9816-7.2843,10.5987-1.3751a23.121,23.121,0,0,1-1.4167,3.7129Z"/><path class="c" d="M96.829,89.9569a10.8574,10.8574,0,0,1,4.583.2922c.401.168.6551-.1355.8881-.4137l.024-.0282c.288-.3431-3.1754-8.5576-6.1573-11.1216-4.0239-3.4592-9.9059.6043-8.4432,6.3183,1.395,5.4485,5.4556,5.1873,9.1054,4.9529Z"/><path class="c" d="M74.1548,103.6505c-7.3786-.0918-15.4138,16.1635,18.3152,28.5276,2.3367.857,4.168,1.5347,5.6053,2.067,4.5,1.6675,5.1407,1.9061,5.35,1.7013a.91.91,0,0,0,.1186-.2033c.2316-.4292.1962-.8231-.1807-1.0476a22.25,22.25,0,0,1-3.0074-2.45c-13.382-11.5452-16.2341-28.2946-26.2007-28.5954Z"/><path class="c" d="M80.8107,155.1743c-4.1059,2.4849-9.8241,7.77-9.82,12.2793-.14,4.0818,4.3077,6.3338,8.2836,5.65,10.9282-1.8779,16.5645-23.3939,25.715-27.0154.7074-.281-.3473-1.3865-1.8312-.6495-7.452,3.7077-15.0989,5.3483-22.3476,9.7351Z"/><path class="c" d="M68.3235,148.0245c-2.8464-.7469-5.9611-1.0787-5.3963,2.0049,1.3455,7.3645,11.2585,5.8989,18.49-.4631a.7287.7287,0,0,0-.6029-1.2439A28.4662,28.4662,0,0,1,68.3235,148.0245Z"/><path class="c" d="M162.1294,167.6092a48.9729,48.9729,0,0,1,1.7536-5.9853c.383-1.0719,2.0459-1.56,2.3917-.1054a86.4862,86.4862,0,0,0,4.8486,13.4289c3.1341,7.3832,5.961,14.0436,3.6638,18.7133-3.98,8.09-19.4369,4.3947-12.7292-25.747l.0715-.3044Z"/><path class="c" d="M108.08,198.8793c-.0008-.54-.9833-.3515-1.2488.0717-1.232,1.9728-3.0693,2.4-4.1416,4.7553C101.1408,207.107,108.1186,208.3052,108.08,198.8793Z"/><path class="c" d="M197.1632,167.7119c12.2478,12.2638-7.5153,25.4777-16.8951,4.573-1.4343-3.1968-3.3888-9.3081-6.7075-13.53a12.7628,12.7628,0,0,0-4.4183-3.7377c-.5853-.3076-.7666-.4034-.3354-.6521a1.411,1.411,0,0,1,1.5106-.214c3.4367,2.0074,17.8724,4.5763,26.8457,13.5612Z"/><path class="c" d="M209.2872,138.4085c-2.5659-.6712-5.4519-1.4264-7.9385-.9311-.6056.12-.8048-.0286-.7974-.6555.01-.7373.2516-.5839.9949-1.3282.1834-.1842.3695-.3728.5569-.5614,2.3262-2.3543,4.9148-4.9736,8.3449-5.0592,8.4394-.48,8.7129,9.859,2.6914,9.3483a24.8636,24.8636,0,0,1-3.8522-.8129Z"/><path class="c" d="M183.3318,123.0511a48.9837,48.9837,0,0,0-3.019,5.4576c-.4921,1.0264.3308,2.5518,1.6081,1.7736a86.4826,86.4826,0,0,1,12.9535-6.004c7.4514-2.9682,14.1732-5.6461,15.8748-10.5643,2.9479-8.52-10.554-16.9031-27.2513,9.0721l-.1661.265Z"/><path class="h" d="M158.6347,172.3983a20.4909,20.4909,0,0,1-.3633-5.3692c.0494-.5871-.2128-.6265-.5981-.6279-.0108-.0007-.0224,0-.0322,0-.2531-.0093-.2883-.0108-2.818,4.9-1.8286,3.5489-3.6436,8.1371-1.5475,9.4646,1.53.9684,3.9439.1985,5.0728-2.4467.9269-2.0573.6312-3.8438.2863-5.92Z"/><path class="h" d="M165.6554,72.7956c8.3153,2.8623,9.8017-.7794,7.2617-3.4407-4.8347-6.032-18.4713-.7039-18.1284,1.014a1.5352,1.5352,0,0,0,1.4952,1.0959C159.6,70.9485,162.6449,71.7585,165.6554,72.7956Z"/><path class="h" d="M169.6784,159.9813c-1.48-1.2216-1.6874-2.0744-1.9681-2.0236-.2123.0374-.41.5943-.1671,1.0406a63.2828,63.2828,0,0,1,2.7385,6.8892c.6476,1.7988,1.2563,3.4908,1.7161,4.5364,2.85,7.3132,5.4973,2.3919,4.8862-.7458-.6944-3.57-4.4926-7.4565-7.2055-9.6968Z"/><path class="h" d="M81.1442,89.4458c.13,2.0212,3.1031,2.51,4.7555,3.69.2832.2022.5562.3846.95.1486l.1141-.0674c.3158-.1824.63-.3647.5032-.7417a8.3945,8.3945,0,0,1-.33-1.8757,4.3565,4.3565,0,0,0-1.53-3.4786c-1.6911-1.3332-4.458.544-4.4621,2.3247Z"/><path class="h" d="M103.5,127.4257a46.9636,46.9636,0,0,1-1.0321-12.3386c.0565-5.6829-.7144-18.0187-4.7073-22.1387-2.331-2.4059-4.9925-2.1178-7.2148-.2188C77.2369,104.1109,98.9548,126.6337,102.18,129.34c.9446.792,1.6039-.7738,1.32-1.9146Z"/><path class="h" d="M133.978,72.8449c1.287-1.1493,4.973-3.1078,6.6659-6.4007,2.6638-6.2-6.0182-8.2954-7.6087-2.1206-1.2135,4.7063-.0361,7.3261-.2174,7.8443-.008.0259-.0186.0506-.0286.0772-.0752.2006-.1541.412.1125.5417l.0164.0081c.3382.1666.72.3532,1.06.05Z"/><path class="h" d="M209.2759,170.7c1.8721-1.39,2.9982-5.9887-2.9419-8.466-4.1428-1.729-8.4178-1.82-10.0449-1.3377-.336.0339-.449.34-.4788.7125-.0294.3489.2189.4362.4631.5226.0248.0092.0507.018.0755.0273,1.9618.7233,3.5842,2.8248,5.1509,4.8563,2.3828,3.089,4.6406,6.015,7.7761,3.6849Z"/><path class="h" d="M75.0186,182.2559c3.589,3.26,6.1093-1.2778,6.8293-4.9982a.5768.5768,0,0,0-.35-.7314c-.49-.2513-.7356-.15-1.9626.3643-.1383.0579-.288.12-.4518.1878-1.5361.6368-4.5449,1.9625-4.63,3.6286a1.8721,1.8721,0,0,0,.5648,1.5488Z"/><path class="h" d="M94.4048,137.0341c-12.7114-4.1072-29.32-9.4739-31.0182,1.0631-2.3169,14.3747,26.2516,7.277,40.1066,3.5228,1.4966-.4053.5224-1.7437-.1214-1.8976-2.4765-.59-5.5841-1.5955-8.967-2.6883Z"/><path class="h" d="M175.8142,201.4987c-.6673,3.935,5.0535,4.1862,5.868,1.2557.9649-3.3012-1.6944-8.1851-2.4484-8.0186-.0333.0078-.0688.0136-.1051.022-.28.0559-.5949.1207-.6434.43a9.837,9.837,0,0,1-1.3235,3.14A10.2492,10.2492,0,0,0,175.8142,201.4987Z"/><path class="h" d="M142.8334,207.4071c.1086-.5287,1.0337-.148,1.2093.32.8131,2.1791,2.5281,2.9644,3.1083,5.4867C147.9892,216.8551,140.9127,216.6353,142.8334,207.4071Z"/><text class="i" transform="matrix(0.3118, -0.8495, 0.9388, 0.3445, 29.3359, 107.3018)">H</text><text class="i" transform="translate(38.0918 85.3486) rotate(-58.0899) scale(0.9049 1)">e</text><text class="i" transform="translate(51.0996 66.1484) rotate(-48.6937) scale(0.9049 1)">r</text><text class="i" transform="translate(60.5381 55.5879) rotate(-39.1256) scale(0.9049 1)">b</text><text class="i" transform="translate(79.8564 41.1572) rotate(-30.1158) scale(0.9049 1)">i</text><text class="i" transform="matrix(0.8399, -0.3368, 0.3722, 0.9282, 90.0693, 35.3936)">v</text><text class="i" transform="translate(109.2461 28.2061) rotate(-10.7793) scale(0.9049 1)">o</text><text class="i" transform="translate(132.2979 24.7383) rotate(-1.3607) scale(0.9049 1)">r</text><text class="i" transform="matrix(0.8962, 0.1254, -0.1386, 0.9903, 146.4834, 24.5459)">e</text><text class="i" transform="translate(169.3066 28.6582) rotate(17.2993) scale(0.9049 1)"> </text><text class="i" transform="translate(182.2607 32.8896) rotate(26.2946) scale(0.9049 1)">P</text><text class="i" transform="translate(201.2158 42.8311) rotate(37.498) scale(0.9049 1)">o</text><text class="i" transform="translate(219.0752 57.0264) rotate(50.0614) scale(0.9049 1)">w</text><text class="i" transform="translate(235.9424 78.5664) rotate(62.66) scale(0.9049 1)">e</text><text class="i" transform="matrix(0.2774, 0.8613, -0.9518, 0.3066, 245.7793, 99.5459)">r</text><text class="j" transform="matrix(0.3118, -0.8495, 0.9388, 0.3445, 29.3359, 107.3018)">H</text><text class="j" transform="translate(38.0918 85.3486) rotate(-58.0899) scale(0.9049 1)">e</text><text class="j" transform="translate(51.0996 66.1484) rotate(-48.6937) scale(0.9049 1)">r</text><text class="j" transform="translate(60.5381 55.5879) rotate(-39.1256) scale(0.9049 1)">b</text><text class="j" transform="translate(79.8564 41.1572) rotate(-30.1158) scale(0.9049 1)">i</text><text class="j" transform="matrix(0.8399, -0.3368, 0.3722, 0.9282, 90.0693, 35.3936)">v</text><text class="j" transform="translate(109.2461 28.2061) rotate(-10.7793) scale(0.9049 1)">o</text><text class="j" transform="translate(132.2979 24.7383) rotate(-1.3607) scale(0.9049 1)">r</text><text class="j" transform="matrix(0.8962, 0.1254, -0.1386, 0.9903, 146.4834, 24.5459)">e</text><text class="j" transform="translate(169.3066 28.6582) rotate(17.2993) scale(0.9049 1)"> </text><text class="j" transform="translate(182.2607 32.8896) rotate(26.2946) scale(0.9049 1)">P</text><text class="j" transform="translate(201.2158 42.8311) rotate(37.498) scale(0.9049 1)">o</text><text class="j" transform="translate(219.0752 57.0264) rotate(50.0614) scale(0.9049 1)">w</text><text class="j" transform="translate(235.9424 78.5664) rotate(62.66) scale(0.9049 1)">e</text><text class="j" transform="matrix(0.2774, 0.8613, -0.9518, 0.3066, 245.7793, 99.5459)">r</text><text class="i" transform="translate(8.5029 169.7319) rotate(73.3666) scale(0.9049 1)">E</text><text class="i" transform="translate(14.6367 188.354) rotate(66.24) scale(0.9049 1)">r</text><text class="i" transform="translate(20.208 200.7212) rotate(58.7173) scale(0.9049 1)">n</text><text class="i" transform="translate(32.0059 219.2769) rotate(48.95) scale(0.9049 1)">ä</text><text class="i" transform="translate(48.1338 236.8765) rotate(39.2107) scale(0.9049 1)">h</text><text class="i" transform="translate(65.2529 250.0181) rotate(31.7155) scale(0.9049 1)">r</text><text class="i" transform="translate(76.8672 257.0581) rotate(24.1981) scale(0.9049 1)">u</text><text class="i" transform="translate(97.0068 265.562) rotate(14.7857) scale(0.9049 1)">n</text><text class="i" transform="matrix(0.9014, 0.0793, -0.0877, 0.9961, 118.3613, 270.7231)">g</text><text class="i" transform="matrix(0.9034, -0.0515, 0.0569, 0.9984, 141.667, 272.0767)">s</text><text class="i" transform="translate(157.6465 271.0093) rotate(-11.7216) scale(0.9049 1)">b</text><text class="i" transform="translate(180.9902 265.5601) rotate(-21.8508) scale(0.9049 1)">e</text><text class="i" transform="translate(201.7139 256.4976) rotate(-29.618) scale(0.9049 1)">r</text><text class="i" transform="translate(213.5752 249.6802) rotate(-37.5633) scale(0.9049 1)">a</text><text class="i" transform="translate(231.79 234.7495) rotate(-45.6833) scale(0.9049 1)">t</text><text class="i" transform="translate(241.8613 224.2134) rotate(-53.3588) scale(0.9049 1)">u</text><text class="i" transform="translate(254.5078 206.3833) rotate(-62.7047) scale(0.9049 1)">n</text><text class="i" transform="translate(264.2031 186.5854) rotate(-72.523) scale(0.9049 1)">g</text><path class="b" d="M16.69,121.0216a66.3414,66.3414,0,0,0-.1787,34.0158"/></svg>