<svg xmlns="http://www.w3.org/2000/svg" width="242.5726mm" height="64.2227mm" viewBox="0 0 687.6073 182.0485"><defs><style>.a{fill:#fff;}.b{font-size:50px;letter-spacing:0.014em;}.b,.j{font-family:CenturyGothic, Century Gothic;}.c,.h{fill:#f79f79;}.d{fill:#f7d08a;}.d,.e,.f,.h,.i{fill-rule:evenodd;}.e,.g{fill:#5b5941;}.f{fill:#d45113;}.g{font-size:152.6633px;font-family:Pulang;}.i{fill:#e3f09b;}.j{font-size:60px;letter-spacing:0.108em;}</style></defs><rect class="a" x="0.3935" width="687.2138" height="155.5539" rx="45.3543"/><text class="b" transform="translate(177.8638 132.3125)">Ernährungsberatung</text><path class="c" d="M175.1833,77.92V73.668H685.8921V77.92Z"/><path class="d" d="M64.251,1.4438c-4.9865-.0946-3.94,11.0608-2.5012,21.3861.0783.5619,1.0979.6269,1.3829-.2923.2929-.9445.6312-1.9781.9877-3.0638C66.6307,11.8156,69.9891,1.568,64.251,1.4438Z"/><path class="d" d="M37.0325,17.4246c-.1878-1.7691-.5266-4.96-2.1306-4.5972-1.6279.3671-2.6543,2.2661-1.1027,3.6173a10.0836,10.0836,0,0,1,2.2534,1.9569c.4617.7667.9855.1426,1.0039-.7638-.0085-.0678-.0155-.14-.024-.2132Z"/><path class="d" d="M132.0231,42.5827c-.309.7027-.4595,1.0475.1088,1.4446.5139.3611.6372.2778,1.4232-.2566.3378-.23.8-.5441,1.468-.9429,11.5678-6.8879,2.31-13.846-.9061-9.4257-1.151,1.5835-1.0678,3.0918-1.2823,6.0284a8.7265,8.7265,0,0,1-.8117,3.1522Z"/><path class="d" d="M113.8032,83.2259a20.6935,20.6935,0,0,1,5.373-1.024C134.581,80.53,131.5,71.0545,127.5484,69.884c-2.1951-.65-4.9878.8673-6.8912,2.5959-4.017,3.6474-6.6947,9.2973-7.2449,10.23C113.3058,82.89,113.5006,83.3524,113.8032,83.2259Z"/><path class="d" d="M91.262,128.4079c2.8558,5.4468,4.9568,12.6208,1.9223,17.989-4.04,7.1454-20.5441-.3226-13.338-22.092,4.748-11.4837,4.561-9.3458,7.9355-14.2215.2252-.3238.6458-.2682,1.1435.0674.3416.2292.3253.2624.0929.745a16.3664,16.3664,0,0,0-1.11,3.0856C86.5355,119.04,87.9338,122.0648,91.262,128.4079Z"/><path class="d" d="M42.9547,108.42c-.2725-1.5982-.49-2.87-.5733-3.6794-.4137-4.0183-.1694-4.04-.7271-4.0649-1.2241-.055-1.3159,1.5319-1.258,2.8507.473,10.6062-3.7839,18.9972-6.924,25.1884-1.7126,3.3773-3.0935,6.0994-3.1951,8.1707-.24,4.9628,6.0232,6.4143,9.88,3.38,7.26-5.7126,4.247-23.3572,2.797-31.8455Z"/><path class="d" d="M118.2967,132.2007c-2.3878-4.0974-1.655-8.3675-2.3163-11.8052-.1593-.8274.9486-.9591,1.3854-.4834a40.548,40.548,0,0,0,5.5607,4.7832c2.72,2.0627,5.1962,3.9412,6.1657,6.4069C131.0349,136.0426,122.0445,138.6312,118.2967,132.2007Z"/><path class="d" d="M53.2723,144.7529c-1.0885-6.218-3.5043-8.6154-3.64-10.7644-.0593-.9389-.4786-1.1662-1.2114-1.0179-.401.08-.3671.3092-.3021.76a4.5439,4.5439,0,0,1-.1356,2.1814c-.2456.81-.5379,1.6152-.8288,2.4171a17.31,17.31,0,0,0-1.42,6.0289c-.0254,2.5951.8048,5.6038,3.3321,6.2335,3.8432.9573,4.8258-2.3,4.206-5.8382Z"/><path class="e" d="M107.83,149.0511c-4.0928,3.7413-8.541-1.5812-10.2668-6.3821a26.1523,26.1523,0,0,1-1.3418-8.7669c-.0426-.4906.19-.7274.4441-.7569a.174.174,0,0,1,.0463-.0017c.049.0105.0728.089.1925.4853.0726.2407.1807.5995.3522,1.1322,1.1448,3.5611,3.4521,4.53,5.8123,5.5224,1.9324.8114,3.9,1.6388,5.2955,3.9138a3.7491,3.7491,0,0,1-.5343,4.8538Z"/><path class="f" d="M35.0873,101.0807c.02-.1807.0452-.1934.048-.1948-.0014,0-.0057-.0014-.0141-.01-.017.0367-.0311.0664-.041.09-.031.0649-.0395.0861-.0339.0946s.02.0085.041.02Z"/><path class="e" d="M129.4667,93.936c6.3554,2.1477,12.1715,4.1146,17.4971,2.32,10.8408-3.6541,8.0642-22.0032-15.2733-15.86a79.7815,79.7815,0,0,0-14.26,5.156q-.7826.3415-1.5791.688c-1.4308.6206-2.5183,1.035-3.33,1.3422-1.98.7529-2.309.878-1.9547,1.851.2894.7932,1.25.82,2.1924.8251,5.9454.0405,11.507,1.92,16.7073,3.6775Z"/><text class="g" transform="translate(36.5468 143.4237) scale(0.9049 1)">P</text><path class="e" d="M145.4859,66.13c2.5077-2.9366-6.7712-9.1367-12.1791,3.5278-.4236.9923-.354,1.3036.1645,1.574.5472.2875.7654.1653,1.4235-.2053a17.4948,17.4948,0,0,1,3.5112-1.5155c2.3124-.7527,5.5315-1.5655,7.08-3.3811Z"/><path class="e" d="M120.8,51.2642c2.5574-13.2812-2.662-21.3223.995-28.1248,2.4349-4.5295,8.3487-4.1169,9.859,1.8063,1.2209,5.0778.3077,12.45-5.2157,20.5749-4.4319,6.5187-4.4506,6.5172-4.9608,6.4924-.0132-.0008-.0274-.0013-.0418-.0028-.5743-.0228-.7445-.1788-.6357-.746Z"/><path class="e" d="M14.5079,42.9127C4.62,34.13,19.9,25.3142,20.9838,39.6339c.0287.59.0507,1.0955.07,1.5359a15.0611,15.0611,0,0,0,.5886,4.48c.18.6257.33,1.2469-.2184,1.5863-.3993.2458-.7.0246-.9743-.1774-.0236-.0168-.0456-.0324-.0677-.05a70.1537,70.1537,0,0,1-5.8739-4.0961Z"/><path class="e" d="M52.2794,6.6087c-4.176-2.4316-8.4559,2.3109-7.2489,5.8822,1.1216,3.3175,5.9225,3.246,10.15,4.678.7609.2569,1.5945-.824,1.368-1.7163a4.4146,4.4146,0,0,0-.2361-.6344c-.0567-.1352-.1208-.2851-.1912-.4642a11.3237,11.3237,0,0,1-.39-1.6827c-.3617-1.9721-.8328-4.5362-3.452-6.0626Z"/><path class="e" d="M10.4528,68.99c-16.3019.7257-9.2254-17.0826.2372-4.0267a8.4728,8.4728,0,0,0,2.3282,2.2618c.4914.3332.7257.4928.5831.9474-.2725.8754-1,.86-2.3056.83C11.0373,68.9972,10.7564,68.99,10.4528,68.99Z"/><path class="e" d="M24.5575,132.7331c-3.3536-.1734-6.04-2.3206-5.6913-6.2331C19.9182,114.7132,35.8985,99.6773,39.4,93.9365c.3854-.6329,1.7937-.2565,1.3691.6822-2.1012,4.6484-3.5924,7.1315-4.6819,13.834-.1506.9294-.3,1.966-.4594,3.0718C34.392,120.1181,32.5433,132.9585,24.5575,132.7331Z"/><path class="e" d="M5.0436,104.4541a2.4128,2.4128,0,0,1-2.65-2.4835c-.1525-1.7932,2.0332-2.0388,4.1878-2.28a15.2282,15.2282,0,0,0,2.5442-.4235c.0353-.01.072-.024.11-.0381.1864-.0678.394-.1426.5464.0578a.81.81,0,0,1,.0833.9347c-.0423.0607-.0974.1455-.1651.2471-.7018,1.0561-2.6841,4.0409-4.6565,3.9858Z"/><path class="h" d="M91.5,3.1592c-3.5886-5.0055-9.8062.4207-10.682,4.8976-.11.5629.2273.8534.5942,1.1508.3524.2843.6569.1524,1.0235-.0381a20.3851,20.3851,0,0,1,2.9575-1.0417c3.4529-1.0544,7.932-2.4231,6.1068-4.9685Z"/><path class="h" d="M78.1038,142.7506c.7.7164.0062,11.32-3.5075,12.704-2.6592.6639-5.2331-2.0954-4.6711-5.4441.5522-3.2941,2.6033-2.2362,6.3539-6.6184.6008-.7011,1.2325-1.2477,1.8247-.6416Z"/><path class="h" d="M120.6909,21.1266c-1.0857,2.4551-2.307,5.2164-2.1053,7.7547.0485.6182-.1414.7954-.8264.701-.8055-.112-.6046-.331-1.3175-1.1725-.1764-.2077-.3574-.4187-.5382-.631-2.2582-2.6371-4.77-5.5715-4.3947-8.99.63-8.4481,11.9817-7.2843,10.5988-1.375a23.1167,23.1167,0,0,1-1.4167,3.7128Z"/><path class="h" d="M33.9687,29.3457a10.8592,10.8592,0,0,1,4.5831.2923c.401.168.6551-.1356.8881-.4137l.024-.0283c.288-.343-3.1754-8.5575-6.1573-11.1215-4.024-3.4592-9.906.6043-8.4432,6.3182,1.3949,5.4486,5.4556,5.1874,9.1053,4.953Z"/><path class="h" d="M11.2945,43.0394C3.9159,42.9476-4.1192,59.2028,29.61,71.5669c2.3367.857,4.1679,1.5348,5.6052,2.067,4.5,1.6675,5.1408,1.9061,5.35,1.7014a.91.91,0,0,0,.1186-.2033c.2315-.4292.1962-.8231-.1808-1.0476a22.2563,22.2563,0,0,1-3.0073-2.45C24.1133,60.09,21.2612,43.34,11.2946,43.0394Z"/><path class="h" d="M17.95,94.5631c-4.1058,2.485-9.824,7.77-9.82,12.2794-.14,4.0818,4.3078,6.3338,8.2837,5.65,10.9281-1.8778,16.5645-23.3938,25.715-27.0154.7074-.2809-.3473-1.3865-1.8312-.6494-7.4521,3.7076-15.099,5.3483-22.3477,9.735Z"/><path class="h" d="M5.4632,87.4133c-2.8464-.7469-5.961-1.0787-5.3963,2.0049,1.3456,7.3645,11.2585,5.899,18.49-.4631a.7287.7287,0,0,0-.6028-1.2439A28.4637,28.4637,0,0,1,5.4632,87.4133Z"/><path class="h" d="M99.2691,106.9981a48.9921,48.9921,0,0,1,1.7537-5.9853c.383-1.072,2.0459-1.5605,2.3917-.1054a86.4693,86.4693,0,0,0,4.8486,13.4289c3.134,7.3831,5.961,14.0436,3.6637,18.7133-3.9794,8.09-19.4368,4.3946-12.7291-25.747l.0715-.3045Z"/><path class="h" d="M45.22,138.2682c-.0008-.54-.9833-.3515-1.2488.0716-1.232,1.9729-3.0693,2.4-4.1417,4.7553C38.2805,146.4958,45.2583,147.694,45.22,138.2682Z"/><path class="h" d="M134.303,107.1008c12.2477,12.2638-7.5154,25.4776-16.8951,4.573-1.4344-3.1968-3.3889-9.3082-6.7075-13.5305a12.7642,12.7642,0,0,0-4.4183-3.7376c-.5853-.3076-.7667-.4035-.3354-.6521a1.4108,1.4108,0,0,1,1.51-.214c3.4368,2.0074,17.8725,4.5762,26.8457,13.5612Z"/><path class="h" d="M146.427,77.7973c-2.5659-.6712-5.4519-1.4263-7.9385-.9311-.6056.12-.8048-.0286-.7974-.6554.01-.7373.2516-.584.9948-1.3283.1835-.1841.3695-.3727.557-.5614,2.3262-2.3543,4.9148-4.9736,8.3448-5.0591,8.4395-.48,8.713,9.8589,2.6914,9.3482a24.8626,24.8626,0,0,1-3.8521-.8129Z"/><path class="h" d="M120.4715,62.44a48.9781,48.9781,0,0,0-3.0189,5.4576c-.4922,1.0264.3308,2.5518,1.608,1.7736a86.4743,86.4743,0,0,1,12.9536-6.0041c7.4514-2.9682,14.1732-5.6461,15.8748-10.5642,2.9479-8.52-10.5541-16.9032-27.2514,9.072l-.166.2651Z"/><path class="i" d="M95.7745,111.7871a20.4946,20.4946,0,0,1-.3634-5.3692c.0495-.5871-.2128-.6264-.5981-.6278-.0108-.0008-.0223,0-.0321,0-.2532-.0094-.2884-.0109-2.818,4.9-1.8286,3.5488-3.6436,8.1371-1.5476,9.4646,1.5306.9683,3.944.1985,5.0729-2.4468.9269-2.0573.6312-3.8438.2863-5.92Z"/><path class="i" d="M102.7951,12.1845c8.3153,2.8623,9.8017-.7794,7.2617-3.4408-4.8346-6.032-18.4713-.7039-18.1284,1.0141a1.5355,1.5355,0,0,0,1.4952,1.0959C96.7394,10.3373,99.7847,11.1474,102.7951,12.1845Z"/><path class="i" d="M106.8182,99.37c-1.48-1.2217-1.6874-2.0744-1.9682-2.0237-.2122.0374-.41.5943-.167,1.0407a63.28,63.28,0,0,1,2.7385,6.8891c.6476,1.7988,1.2563,3.4908,1.7161,4.5364,2.85,7.3133,5.4973,2.3919,4.8861-.7458-.6943-3.57-4.4926-7.4564-7.2055-9.6967Z"/><path class="i" d="M18.2839,28.8346c.13,2.0213,3.1031,2.51,4.7556,3.69.2832.2023.5562.3846.9494.1486l.1141-.0674c.3159-.1823.63-.3647.5033-.7417a8.3937,8.3937,0,0,1-.33-1.8757,4.3564,4.3564,0,0,0-1.53-3.4786c-1.6911-1.3332-4.4581.5441-4.4621,2.3247Z"/><path class="i" d="M40.64,66.8146a46.964,46.964,0,0,1-1.0321-12.3387c.0565-5.6829-.7144-18.0187-4.7073-22.1386-2.331-2.4059-4.9925-2.1179-7.2148-.2189C14.3766,43.5,36.0946,66.0225,39.3194,68.7291c.9445.7921,1.6039-.7737,1.32-1.9145Z"/><path class="i" d="M71.1178,12.2337c1.287-1.1493,4.973-3.1078,6.6659-6.4006,2.6638-6.2-6.0182-8.2954-7.6088-2.1207-1.2134,4.7064-.036,7.3262-.2173,7.8444-.0081.0259-.0187.0506-.0286.0771-.0752.2007-.1541.412.1124.5418l.0165.0081c.3382.1666.72.3531,1.06.05Z"/><path class="i" d="M146.4156,110.0888c1.8722-1.39,2.9982-5.9887-2.9419-8.4659-4.1427-1.7291-8.4177-1.82-10.0449-1.3378-.336.034-.449.34-.4787.7125-.0294.349.2189.4363.4631.5226.0248.0093.0507.0181.0754.0273,1.9618.7234,3.5843,2.8248,5.1509,4.8564,2.3829,3.0889,4.6407,6.015,7.7762,3.6849Z"/><path class="i" d="M12.1583,121.6447c3.5891,3.26,6.1093-1.2778,6.8294-4.9981a.5768.5768,0,0,0-.35-.7314c-.49-.2513-.7356-.15-1.9626.3643-.1384.0578-.288.12-.4518.1877-1.5362.6368-4.5449,1.9626-4.63,3.6286a1.8723,1.8723,0,0,0,.5647,1.5489Z"/><path class="i" d="M31.5445,76.4229C18.8331,72.3157,2.2249,66.9491.5264,77.4861c-2.317,14.3746,26.2515,7.277,40.1066,3.5227,1.4966-.4052.5224-1.7437-.1215-1.8976-2.4764-.59-5.584-1.5954-8.967-2.6883Z"/><path class="i" d="M112.954,140.8875c-.6673,3.935,5.0534,4.1863,5.868,1.2558.9649-3.3013-1.6944-8.1851-2.4485-8.0187-.0332.0079-.0687.0136-.1051.0221-.28.0559-.5948.1206-.6433.43a9.836,9.836,0,0,1-1.3236,3.14A10.2484,10.2484,0,0,0,112.954,140.8875Z"/><path class="i" d="M79.9732,146.796c.1086-.5287,1.0337-.1481,1.2092.32.8131,2.1792,2.5282,2.9645,3.1084,5.4868C85.1289,156.2439,78.0525,156.0241,79.9732,146.796Z"/><text class="j" transform="translate(178.7992 58.214) scale(0.8833 1)">Herbivore Power</text></svg>