<svg xmlns="http://www.w3.org/2000/svg" width="98.416mm" height="99.0577mm" viewBox="0 0 278.9746 280.7935"><defs><style>.a{fill:#fff;}.b{fill:none;stroke:#000;stroke-miterlimit:10;stroke-width:3px;}.b,.c,.d,.e,.f,.h{fill-rule:evenodd;}.c{fill:#f79f79;}.d{fill:#f7d08a;}.e,.g{fill:#5b5941;}.f{fill:#d45113;}.h{fill:#e3f09b;}.i{fill:#1d1d1b;}</style></defs><ellipse class="a" cx="139.4873" cy="140.3967" rx="139.4873" ry="140.3967"/><path class="b" d="M260.3855,120.957a66.6419,66.6419,0,0,1,.1576,34.0158"/><path class="c" d="M102.7438,52.3874a93.057,93.057,0,0,0,0,171.3912A93.006,93.006,0,0,0,204.7116,72.3178a93.1062,93.1062,0,0,0-101.9678-19.93Zm2.7872,164.8032a85.9029,85.9029,0,0,1,0-158.2139,85.8514,85.8514,0,0,1,94.1218,139.8126,85.948,85.948,0,0,1-94.1219,18.4013Z"/><path class="d" d="M127.1113,62.0549c-4.9866-.0946-3.94,11.0609-2.5013,21.3861.0784.562,1.0979.6269,1.3829-.2922.2929-.9446.6313-1.9781.9878-3.0639C129.491,72.4268,132.8494,62.1791,127.1113,62.0549Z"/><path class="d" d="M99.8927,78.0357c-.1877-1.7691-.5266-4.96-2.13-4.5971-1.628.3671-2.6544,2.2661-1.1027,3.6173a10.0879,10.0879,0,0,1,2.2534,1.9569c.4617.7666.9855.1426,1.0038-.7639-.0084-.0677-.0155-.14-.024-.2132Z"/><path class="d" d="M194.8833,103.1939c-.309.7026-.4594,1.0474.1089,1.4445.5138.3612.6371.2778,1.4231-.2565.3378-.23.8-.5442,1.468-.9429,11.5678-6.8879,2.31-13.8461-.9061-9.4257-1.151,1.5834-1.0678,3.0918-1.2823,6.0283a8.73,8.73,0,0,1-.8116,3.1523Z"/><path class="d" d="M176.6634,143.837a20.6984,20.6984,0,0,1,5.3731-1.024c15.4047-1.6722,12.3238-11.1474,8.3722-12.3179-2.1951-.65-4.9878.8674-6.8913,2.596-4.017,3.6474-6.6947,9.2973-7.2449,10.2294C176.166,143.5015,176.3608,143.9635,176.6634,143.837Z"/><path class="d" d="M154.1223,189.019c2.8558,5.4469,4.9568,12.6208,1.9223,17.9891-4.04,7.1453-20.5442-.3226-13.3381-22.092,4.748-11.4837,4.5611-9.3458,7.9355-14.2216.2252-.3237.6458-.2682,1.1436.0675.3416.2292.3252.2624.0929.745a16.353,16.353,0,0,0-1.11,3.0856C149.3957,179.6512,150.794,182.6759,154.1223,189.019Z"/><path class="d" d="M105.8149,169.0311c-.2725-1.5983-.49-2.87-.5732-3.6794-.4137-4.0183-.1695-4.04-.7272-4.0649-1.2241-.0551-1.3159,1.5319-1.258,2.8506.473,10.6062-3.7839,18.9972-6.924,25.1884-1.7126,3.3773-3.0934,6.0994-3.1951,8.1707-.24,4.9629,6.0232,6.4143,9.88,3.38,7.26-5.7125,4.247-23.3571,2.797-31.8455Z"/><path class="d" d="M181.157,192.8118c-2.3879-4.0973-1.6551-8.3675-2.3164-11.8052-.1592-.8274.9487-.959,1.3854-.4834a40.56,40.56,0,0,0,5.5607,4.7832c2.72,2.0627,5.1963,3.9412,6.1657,6.4069C193.8951,196.6538,184.9047,199.2423,181.157,192.8118Z"/><path class="d" d="M116.1326,205.3641c-1.0886-6.2181-3.5044-8.6155-3.64-10.7644-.0593-.939-.4787-1.1663-1.2114-1.018-.401.0805-.3671.3092-.3022.76a4.5436,4.5436,0,0,1-.1355,2.1814c-.2457.81-.538,1.6152-.8288,2.4172a17.3065,17.3065,0,0,0-1.42,6.0288c-.0254,2.5951.8048,5.6039,3.3321,6.2336,3.8432.9573,4.8259-2.3,4.2061-5.8382Z"/><path class="e" d="M170.69,209.6622c-4.0927,3.7413-8.541-1.5811-10.2667-6.382a26.15,26.15,0,0,1-1.3418-8.767c-.0426-.4906.19-.7273.444-.7569a.17.17,0,0,1,.0463-.0016c.049.01.0729.089.1925.4853.0727.2406.1808.5995.3522,1.1322,1.1449,3.5611,3.4521,4.53,5.8123,5.5223,1.9324.8115,3.9,1.6388,5.2955,3.9138a3.7493,3.7493,0,0,1-.5343,4.8539Z"/><path class="f" d="M97.9475,161.6919c.02-.1807.0452-.1934.048-.1949-.0014,0-.0056-.0014-.0141-.01-.0169.0367-.0311.0663-.0409.09-.0311.065-.04.0862-.0339.0946s.02.0085.0409.02Z"/><path class="e" d="M192.3269,154.5471c6.3554,2.1478,12.1716,4.1147,17.4971,2.32,10.8408-3.6541,8.0643-22.0032-15.2733-15.86a79.7846,79.7846,0,0,0-14.26,5.1561q-.7826.3414-1.5791.688c-1.4308.62-2.5183,1.0349-3.33,1.3422-1.98.7528-2.3089.8779-1.9547,1.851.2894.7931,1.25.82,2.1925.825,5.9454.0405,11.507,1.92,16.7072,3.6776Z"/><path class="g" d="M153.8359,73.355a23.9687,23.9687,0,0,1,11.8125,4.5039,30.5271,30.5271,0,0,1,8.2188,9.1592,41.0769,41.0769,0,0,1,4.6289,11.9843,46.0726,46.0726,0,0,1,1.0352,12.9766q-1.2423,23.9693-12.7774,40.15-11.5371,16.1836-33.0864,25.3418.8276,4.5805,1.5879,9.2363.7587,4.6582,1.4511,9.541a13.5993,13.5993,0,0,1-.9668,7.9385,8.8157,8.8157,0,0,1-6.0791,4.8858,10.11,10.11,0,0,1-6.5615-.3819,9.3374,9.3374,0,0,1-5.0429-4.3506q-3.4542-8.09-6.0782-21.6787-2.6264-13.5849-4.4209-29.6162-1.7958-16.03-2.7627-32.7471-.9682-16.7153-1.1054-31.0664,0-4.8837,2.9013-7.48a10.2592,10.2592,0,0,1,6.5616-2.7481,11.1733,11.1733,0,0,1,6.8388,1.9844,9.3124,9.3124,0,0,1,3.8682,6.7178,50.3732,50.3732,0,0,1,6.1474-6.26,35.6237,35.6237,0,0,1,7.1836-4.8086,33.737,33.737,0,0,1,8.0132-2.8242A27.1829,27.1829,0,0,1,153.8359,73.355Zm5.5274,37.708q0-7.0211-2.1426-10.84a9.5275,9.5275,0,0,0-5.3184-4.8085,9.3569,9.3569,0,0,0-6.8378.6875,17.6367,17.6367,0,0,0-6.7007,5.8007,39.9214,39.9214,0,0,0-6.0782,11.7549,61.15,61.15,0,0,0-2.6943,13.5108,109.1168,109.1168,0,0,0-.2754,14.5791q.3427,7.4823,1.0362,14.8086a25.3216,25.3216,0,0,1,2.5556-1.3741,30.2453,30.2453,0,0,0,2.832-1.5263,32.4374,32.4374,0,0,0,8.9791-7.1748,57.4976,57.4976,0,0,0,7.5292-10.5342,60.562,60.562,0,0,0,5.18-12.2891A44.0067,44.0067,0,0,0,159.3633,111.063Z"/><path class="e" d="M208.3462,126.7409c2.5076-2.9366-6.7712-9.1366-12.1791,3.5278-.4236.9924-.3541,1.3036.1644,1.574.5473.2875.7655.1653,1.4235-.2053a17.4923,17.4923,0,0,1,3.5113-1.5154c2.3123-.7527,5.5314-1.5655,7.08-3.3811Z"/><path class="e" d="M183.66,111.8753c2.5574-13.2812-2.6619-21.3222.9951-28.1248,2.4348-4.5295,8.3487-4.1168,9.8589,1.8063,1.2209,5.0778.3078,12.45-5.2157,20.5749-4.4319,6.5187-4.4506,6.5173-4.9608,6.4924-.0132-.0008-.0273-.0013-.0417-.0028-.5744-.0228-.7445-.1788-.6358-.746Z"/><path class="e" d="M77.3681,103.5239c-9.8884-8.7828,5.3924-17.5985,6.4759-3.2788.0288.59.0507,1.0954.07,1.5358a15.0606,15.0606,0,0,0,.5886,4.48c.18.6258.33,1.247-.2183,1.5863-.3993.2459-.7.0246-.9744-.1773-.0236-.0169-.0455-.0325-.0677-.0495a70.1773,70.1773,0,0,1-5.8739-4.0961Z"/><path class="e" d="M115.14,67.22c-4.176-2.4317-8.4558,2.3108-7.2488,5.8821,1.1216,3.3175,5.9224,3.246,10.15,4.6781.7608.2569,1.5945-.824,1.368-1.7164a4.4274,4.4274,0,0,0-.2362-.6343c-.0566-.1352-.1207-.2851-.1911-.4642a11.3141,11.3141,0,0,1-.39-1.6827c-.3618-1.9722-.8329-4.5362-3.4521-6.0627Z"/><path class="e" d="M73.313,129.6013c-16.3018.7257-9.2254-17.0827.2372-4.0268a8.4738,8.4738,0,0,0,2.3283,2.2619c.4913.3332.7257.4927.5831.9474-.2725.8753-1,.86-2.3057.83C73.8976,129.6083,73.6166,129.6013,73.313,129.6013Z"/><path class="e" d="M87.4177,193.3443c-3.3535-.1735-6.04-2.3206-5.6912-6.2331,1.052-11.7868,17.0323-26.8228,20.5338-32.5635.3853-.6329,1.7936-.2565,1.369.6821-2.1012,4.6485-3.5923,7.1316-4.6819,13.8341-.1505.9293-.3,1.966-.4594,3.0717C97.2522,180.7292,95.4036,193.57,87.4177,193.3443Z"/><path class="e" d="M67.9038,165.0653a2.4128,2.4128,0,0,1-2.65-2.4836c-.1525-1.7931,2.0331-2.0388,4.1877-2.28a15.2259,15.2259,0,0,0,2.5442-.4236c.0353-.01.0721-.024.11-.0381.1863-.0678.3939-.1426.5464.0579a.81.81,0,0,1,.0833.9347c-.0424.0607-.0974.1454-.1652.2471-.7017,1.0561-2.684,4.0408-4.6565,3.9858Z"/><path class="c" d="M154.36,63.77c-3.5887-5.0056-9.8063.4206-10.6821,4.8975-.11.5629.2273.8535.5942,1.1508.3524.2844.6569.1524,1.0235-.038a20.39,20.39,0,0,1,2.9576-1.0418c3.4528-1.0543,7.9319-2.4231,6.1067-4.9685Z"/><path class="c" d="M140.964,203.3617c.7.7164.0063,11.32-3.5074,12.704-2.6593.6639-5.2332-2.0954-4.6712-5.4441.5522-3.2941,2.6033-2.2361,6.354-6.6183.6007-.7012,1.2324-1.2478,1.8246-.6416Z"/><path class="c" d="M183.5511,81.7378c-1.0857,2.4551-2.307,5.2164-2.1053,7.7547.0486.6181-.1414.7953-.8264.7009-.8055-.112-.6046-.3309-1.3175-1.1724-.1764-.2078-.3573-.4187-.5381-.631-2.2582-2.6371-4.77-5.5716-4.3947-8.99.63-8.4481,11.9816-7.2843,10.5987-1.3751a23.121,23.121,0,0,1-1.4167,3.7129Z"/><path class="c" d="M96.829,89.9569a10.8574,10.8574,0,0,1,4.583.2922c.401.168.6551-.1355.8881-.4137l.024-.0282c.288-.3431-3.1754-8.5576-6.1573-11.1216-4.0239-3.4592-9.9059.6043-8.4432,6.3183,1.395,5.4485,5.4556,5.1873,9.1054,4.9529Z"/><path class="c" d="M74.1548,103.6505c-7.3786-.0918-15.4138,16.1635,18.3152,28.5276,2.3367.857,4.168,1.5347,5.6053,2.067,4.5,1.6675,5.1407,1.9061,5.35,1.7013a.91.91,0,0,0,.1186-.2033c.2316-.4292.1962-.8231-.1807-1.0476a22.25,22.25,0,0,1-3.0074-2.45c-13.382-11.5452-16.2341-28.2946-26.2007-28.5954Z"/><path class="c" d="M80.8107,155.1743c-4.1059,2.4849-9.8241,7.77-9.82,12.2793-.14,4.0818,4.3077,6.3338,8.2836,5.65,10.9282-1.8779,16.5645-23.3939,25.715-27.0154.7074-.281-.3473-1.3865-1.8312-.6495-7.452,3.7077-15.0989,5.3483-22.3476,9.7351Z"/><path class="c" d="M68.3235,148.0245c-2.8464-.7469-5.9611-1.0787-5.3963,2.0049,1.3455,7.3645,11.2585,5.8989,18.49-.4631a.7287.7287,0,0,0-.6029-1.2439A28.4662,28.4662,0,0,1,68.3235,148.0245Z"/><path class="c" d="M162.1294,167.6092a48.9729,48.9729,0,0,1,1.7536-5.9853c.383-1.0719,2.0459-1.56,2.3917-.1054a86.4862,86.4862,0,0,0,4.8486,13.4289c3.1341,7.3832,5.961,14.0436,3.6638,18.7133-3.98,8.09-19.4369,4.3947-12.7292-25.747l.0715-.3044Z"/><path class="c" d="M108.08,198.8793c-.0008-.54-.9833-.3515-1.2488.0717-1.232,1.9728-3.0693,2.4-4.1416,4.7553C101.1408,207.107,108.1186,208.3052,108.08,198.8793Z"/><path class="c" d="M197.1632,167.7119c12.2478,12.2638-7.5153,25.4777-16.8951,4.573-1.4343-3.1968-3.3888-9.3081-6.7075-13.53a12.7628,12.7628,0,0,0-4.4183-3.7377c-.5853-.3076-.7666-.4034-.3354-.6521a1.411,1.411,0,0,1,1.5106-.214c3.4367,2.0074,17.8724,4.5763,26.8457,13.5612Z"/><path class="c" d="M209.2872,138.4085c-2.5659-.6712-5.4519-1.4264-7.9385-.9311-.6056.12-.8048-.0286-.7974-.6555.01-.7373.2516-.5839.9949-1.3282.1834-.1842.3695-.3728.5569-.5614,2.3262-2.3543,4.9148-4.9736,8.3449-5.0592,8.4394-.48,8.7129,9.859,2.6914,9.3483a24.8636,24.8636,0,0,1-3.8522-.8129Z"/><path class="c" d="M183.3318,123.0511a48.9837,48.9837,0,0,0-3.019,5.4576c-.4921,1.0264.3308,2.5518,1.6081,1.7736a86.4826,86.4826,0,0,1,12.9535-6.004c7.4514-2.9682,14.1732-5.6461,15.8748-10.5643,2.9479-8.52-10.554-16.9031-27.2513,9.0721l-.1661.265Z"/><path class="h" d="M158.6347,172.3983a20.4909,20.4909,0,0,1-.3633-5.3692c.0494-.5871-.2128-.6265-.5981-.6279-.0108-.0007-.0224,0-.0322,0-.2531-.0093-.2883-.0108-2.818,4.9-1.8286,3.5489-3.6436,8.1371-1.5475,9.4646,1.53.9684,3.9439.1985,5.0728-2.4467.9269-2.0573.6312-3.8438.2863-5.92Z"/><path class="h" d="M165.6554,72.7956c8.3153,2.8623,9.8017-.7794,7.2617-3.4407-4.8347-6.032-18.4713-.7039-18.1284,1.014a1.5352,1.5352,0,0,0,1.4952,1.0959C159.6,70.9485,162.6449,71.7585,165.6554,72.7956Z"/><path class="h" d="M169.6784,159.9813c-1.48-1.2216-1.6874-2.0744-1.9681-2.0236-.2123.0374-.41.5943-.1671,1.0406a63.2828,63.2828,0,0,1,2.7385,6.8892c.6476,1.7988,1.2563,3.4908,1.7161,4.5364,2.85,7.3132,5.4973,2.3919,4.8862-.7458-.6944-3.57-4.4926-7.4565-7.2055-9.6968Z"/><path class="h" d="M81.1442,89.4458c.13,2.0212,3.1031,2.51,4.7555,3.69.2832.2022.5562.3846.95.1486l.1141-.0674c.3158-.1824.63-.3647.5032-.7417a8.3945,8.3945,0,0,1-.33-1.8757,4.3565,4.3565,0,0,0-1.53-3.4786c-1.6911-1.3332-4.458.544-4.4621,2.3247Z"/><path class="h" d="M103.5,127.4257a46.9636,46.9636,0,0,1-1.0321-12.3386c.0565-5.6829-.7144-18.0187-4.7073-22.1387-2.331-2.4059-4.9925-2.1178-7.2148-.2188C77.2369,104.1109,98.9548,126.6337,102.18,129.34c.9446.792,1.6039-.7738,1.32-1.9146Z"/><path class="h" d="M133.978,72.8449c1.287-1.1493,4.973-3.1078,6.6659-6.4007,2.6638-6.2-6.0182-8.2954-7.6087-2.1206-1.2135,4.7063-.0361,7.3261-.2174,7.8443-.008.0259-.0186.0506-.0286.0772-.0752.2006-.1541.412.1125.5417l.0164.0081c.3382.1666.72.3532,1.06.05Z"/><path class="h" d="M209.2759,170.7c1.8721-1.39,2.9982-5.9887-2.9419-8.466-4.1428-1.729-8.4178-1.82-10.0449-1.3377-.336.0339-.449.34-.4788.7125-.0294.3489.2189.4362.4631.5226.0248.0092.0507.018.0755.0273,1.9618.7233,3.5842,2.8248,5.1509,4.8563,2.3828,3.089,4.6406,6.015,7.7761,3.6849Z"/><path class="h" d="M75.0186,182.2559c3.589,3.26,6.1093-1.2778,6.8293-4.9982a.5768.5768,0,0,0-.35-.7314c-.49-.2513-.7356-.15-1.9626.3643-.1383.0579-.288.12-.4518.1878-1.5361.6368-4.5449,1.9625-4.63,3.6286a1.8721,1.8721,0,0,0,.5648,1.5488Z"/><path class="h" d="M94.4048,137.0341c-12.7114-4.1072-29.32-9.4739-31.0182,1.0631-2.3169,14.3747,26.2516,7.277,40.1066,3.5228,1.4966-.4053.5224-1.7437-.1214-1.8976-2.4765-.59-5.5841-1.5955-8.967-2.6883Z"/><path class="h" d="M175.8142,201.4987c-.6673,3.935,5.0535,4.1862,5.868,1.2557.9649-3.3012-1.6944-8.1851-2.4484-8.0186-.0333.0078-.0688.0136-.1051.022-.28.0559-.5949.1207-.6434.43a9.837,9.837,0,0,1-1.3235,3.14A10.2492,10.2492,0,0,0,175.8142,201.4987Z"/><path class="h" d="M142.8334,207.4071c.1086-.5287,1.0337-.148,1.2093.32.8131,2.1791,2.5281,2.9644,3.1083,5.4867C147.9892,216.8551,140.9127,216.6353,142.8334,207.4071Z"/><path d="M10.7861,98.1064l.6416-1.747,8.1045,2.9746L22.8,90.4307l-8.1045-2.9746.6406-1.7471,19.3223,7.0918-.6416,1.7471L24.69,91.125l-3.2666,8.9023L30.749,103.45l-.6406,1.748Z"/><path d="M40.9785,71.1572l1.5264-.8105a9.0324,9.0324,0,0,1,1.2881,2.8027,6.69,6.69,0,0,1,.1191,2.627,6.9208,6.9208,0,0,1-1.0068,2.583,6.3052,6.3052,0,0,1-4.8594,3.1845,9.0227,9.0227,0,0,1-9.2227-5.3984,6.3687,6.3687,0,0,1,.4405-6.16,6.5724,6.5724,0,0,1,5.48-3.2159,8.8281,8.8281,0,0,1,5.2227,1.46L33.4141,78.752a6.56,6.56,0,0,0,4.5019.996,4.6782,4.6782,0,0,0,3.377-2.2128,5.39,5.39,0,0,0,.7383-1.9522,5.2832,5.2832,0,0,0-.0167-2.0039A9.045,9.045,0,0,0,40.9785,71.1572Zm-3.48-2.1679a6.835,6.835,0,0,0-2.6718-.4463,4.9859,4.9859,0,0,0-2.23.7236,5.0647,5.0647,0,0,0-1.7266,1.6875,4.7872,4.7872,0,0,0-.62,3.7217,6.705,6.705,0,0,0,1.8213,3.03Z"/><path d="M40.5244,55.12,41.72,53.76l1.6719,1.4687a6.7383,6.7383,0,0,1-.3486-2.582,3.145,3.145,0,0,1,.748-1.8369,3.0213,3.0213,0,0,1,1.4248-.8379l.6309,1.7842a2.2955,2.2955,0,0,0-.8184.5283A2.4489,2.4489,0,0,0,44.5039,54.1a5.243,5.243,0,0,0,1.0488,2.59A26.4017,26.4017,0,0,0,49.2881,60.41l3.8672,3.3984-1.1953,1.36Z"/><path d="M62.1592,54.27,48.8447,37.9014l1.375-1.1192,5.3594,6.5889a7.675,7.675,0,0,1,.5068-3.3252,6.2353,6.2353,0,0,1,1.8731-2.4883,6.4239,6.4239,0,0,1,5.35-1.331A8.2969,8.2969,0,0,1,68.502,39.334a8.1726,8.1726,0,0,1,1.9394,5.6914,6.5019,6.5019,0,0,1-2.4209,4.9814,5.9309,5.9309,0,0,1-2.8682,1.3047,7.4175,7.4175,0,0,1-3.3847-.331l1.7666,2.1709Zm4.5556-5.6357a4.9381,4.9381,0,0,0,1.6084-2.3457,5.67,5.67,0,0,0,.1182-3.0088,6.78,6.78,0,0,0-3.8984-4.7822,5.7806,5.7806,0,0,0-2.9971-.5117,4.8254,4.8254,0,0,0-2.5986,1.0585,5.1165,5.1165,0,0,0-1.625,2.377,5.4639,5.4639,0,0,0-.168,2.9775,6.8176,6.8176,0,0,0,1.4248,2.8623A6.4252,6.4252,0,0,0,62.59,49.6982,4.9673,4.9673,0,0,0,66.7148,48.6338Z"/><path d="M71.3125,21.2676a1.3437,1.3437,0,0,1,1.1328-.1074,1.66,1.66,0,0,1,.9473.7773,1.6384,1.6384,0,0,1,.1972,1.1953,1.3465,1.3465,0,0,1-1.7773,1.0313,1.6338,1.6338,0,0,1-.9395-.7657,1.6531,1.6531,0,0,1-.205-1.207A1.3283,1.3283,0,0,1,71.3125,21.2676Zm2.3838,5.8633,1.5342-.8887L82.8682,39.41l-1.5332.89Z"/><path d="M85.0264,21.0146l1.7509-.7021,8.4219,8.5781.11-12,1.7627-.707L96.8857,32.66l-.3056.123Z"/><path d="M114.6719,11.2773a6.55,6.55,0,0,1,5.6592,1.5147,8.4063,8.4063,0,0,1,2.8974,5.0459,8.3857,8.3857,0,0,1-.9316,5.8535,6.8066,6.8066,0,0,1-10.168,1.9365,8.3854,8.3854,0,0,1-3.0176-5.1015,8.3839,8.3839,0,0,1,.8438-5.7442A6.545,6.545,0,0,1,114.6719,11.2773Zm.3515,1.8848a4.8977,4.8977,0,0,0-3.3945,2.4834,6.383,6.383,0,0,0-.7432,4.5859,6.7012,6.7012,0,0,0,1.2872,2.8877,5.4427,5.4427,0,0,0,2.3339,1.7989,5.1047,5.1047,0,0,0,5.3174-1.0117,5.4454,5.4454,0,0,0,1.5108-2.5313,6.72,6.72,0,0,0,.1357-3.1592,6.3662,6.3662,0,0,0-2.3838-3.99A4.9,4.9,0,0,0,115.0234,13.1621Z"/><path d="M133.24,9.4883l1.81-.043.0537,2.2246a6.7438,6.7438,0,0,1,1.6621-2.0068,3.1536,3.1536,0,0,1,1.8574-.6943,3.01,3.01,0,0,1,1.5821.48l-.8848,1.6719a2.29,2.29,0,0,0-.9433-.2432,2.4455,2.4455,0,0,0-1.69.8448,5.2488,5.2488,0,0,0-1.1943,2.5263,26.4744,26.4744,0,0,0-.2041,5.2676l.123,5.1475-1.8105.0429Z"/><path d="M160.626,21.4248l1.3594,1.0664a9.0148,9.0148,0,0,1-2.0391,2.3145,6.6788,6.6788,0,0,1-2.3525,1.1748,6.9249,6.9249,0,0,1-2.77.1279,6.3062,6.3062,0,0,1-4.8828-3.1484,8.7515,8.7515,0,0,1-1.1172-5.73,8.693,8.693,0,0,1,2.31-4.8907,6.3674,6.3674,0,0,1,5.8086-2.0976,6.577,6.577,0,0,1,5.1631,3.7041,8.8351,8.8351,0,0,1,.7851,5.3652l-12.2763-1.7177a6.5629,6.5629,0,0,0,.916,4.5185A4.6784,4.6784,0,0,0,154.9238,24.3a5.3831,5.3831,0,0,0,2.083-.1162,5.2929,5.2929,0,0,0,1.8252-.8281A9.1041,9.1041,0,0,0,160.626,21.4248Zm.5674-4.0605a6.8134,6.8134,0,0,0-.6758-2.6231,4.9775,4.9775,0,0,0-1.5674-1.7451,5.0613,5.0613,0,0,0-2.2422-.8936,4.7846,4.7846,0,0,0-3.6523.9444,6.6978,6.6978,0,0,0-2.0313,2.8945Z"/><path d="M193.3984,15.4355l3.3262,1.6436a19.4108,19.4108,0,0,1,3.7236,2.1826,4.7386,4.7386,0,0,1,1.5479,2.7549,5.5076,5.5076,0,0,1-.5947,3.4912,5.5636,5.5636,0,0,1-2.3887,2.6045,4.8053,4.8053,0,0,1-3.2373.4053,21.8007,21.8007,0,0,1-4.3936-1.7959l-1.1923-.59L185.95,34.7129l-1.6689-.8252Zm.7764,2.6309-3.0928,6.26L193.89,25.76a7.5075,7.5075,0,0,0,2.6788.8955,2.95,2.95,0,0,0,1.8-.4971,3.709,3.709,0,0,0,1.3047-1.4971,3.6628,3.6628,0,0,0,.3837-1.9209,2.8722,2.8722,0,0,0-.6562-1.6865,7.3345,7.3345,0,0,0-2.2744-1.5293Z"/><path d="M217.4619,35.6143a6.5469,6.5469,0,0,1,2.6358,5.2324,8.8166,8.8166,0,0,1-6.8272,8.7207,6.8055,6.8055,0,0,1-8.2109-6.3008,8.795,8.795,0,0,1,6.6474-8.8408A6.5472,6.5472,0,0,1,217.4619,35.6143ZM216.29,37.1309a4.902,4.902,0,0,0-4.1132-.8809,6.3853,6.3853,0,0,0-3.918,2.4971A6.706,6.706,0,0,0,206.96,41.63a5.4417,5.4417,0,0,0,.2109,2.9394,5.1049,5.1049,0,0,0,4.2949,3.295,5.44,5.44,0,0,0,2.8936-.5567,6.707,6.707,0,0,0,2.4482-2.001A6.37,6.37,0,0,0,218.2,40.8721,4.9071,4.9071,0,0,0,216.29,37.1309Z"/><path d="M230.82,47.3408l1.1709,1.3985-5.7646,10.333,11.2968-3.7256.2061.2461L232.0947,66.082l11.2383-3.7968,1.1836,1.414-15.5137,5.1836-.2109-.2519,5.5293-10.3741-11.1836,3.6211-.2119-.2529Z"/><path d="M246.6631,88.3037l-.085,1.7256a9.024,9.024,0,0,1-3.0664-.3262,6.68,6.68,0,0,1-2.3193-1.2412,6.9228,6.9228,0,0,1-1.7051-2.1855,6.3062,6.3062,0,0,1-.2519-5.8047,9.0218,9.0218,0,0,1,9.3554-5.1651A6.3713,6.3713,0,0,1,253.66,78.835a6.5751,6.5751,0,0,1-.0391,6.3535,8.8292,8.8292,0,0,1-3.9248,3.7422l-5.6934-11.0118a6.5706,6.5706,0,0,0-3.1582,3.36,4.6769,4.6769,0,0,0,.1768,4.0332,5.384,5.384,0,0,0,1.2988,1.6328,5.3,5.3,0,0,0,1.7305,1.0108A9.0984,9.0984,0,0,0,246.6631,88.3037Zm3.6416-1.8828a6.839,6.839,0,0,0,1.75-2.0684,4.975,4.975,0,0,0,.5185-2.2871,5.0519,5.0519,0,0,0-.5673-2.3466,4.7875,4.7875,0,0,0-2.8809-2.4356,6.7046,6.7046,0,0,0-3.5361.0156Z"/><path d="M260.6689,96.12l.5557,1.7227-2.1182.6826A6.76,6.76,0,0,1,261.502,99.55a3.1562,3.1562,0,0,1,1.1943,1.584,3.0233,3.0233,0,0,1-.0117,1.6533l-1.8555-.374a2.27,2.27,0,0,0-.0342-.9727,2.4417,2.4417,0,0,0-1.289-1.3808,5.2549,5.2549,0,0,0-2.7618-.4278,26.4958,26.4958,0,0,0-5.1084,1.3l-4.9013,1.5791-.5557-1.7236Z"/><path class="i" d="M10.7861,98.1064l.6416-1.747,8.1045,2.9746L22.8,90.4307l-8.1045-2.9746.6406-1.7471,19.3223,7.0918-.6416,1.7471L24.69,91.125l-3.2666,8.9023L30.749,103.45l-.6406,1.748Z"/><path class="i" d="M40.9785,71.1572l1.5264-.8105a9.0324,9.0324,0,0,1,1.2881,2.8027,6.69,6.69,0,0,1,.1191,2.627,6.9208,6.9208,0,0,1-1.0068,2.583,6.3052,6.3052,0,0,1-4.8594,3.1845,9.0227,9.0227,0,0,1-9.2227-5.3984,6.3687,6.3687,0,0,1,.4405-6.16,6.5724,6.5724,0,0,1,5.48-3.2159,8.8281,8.8281,0,0,1,5.2227,1.46L33.4141,78.752a6.56,6.56,0,0,0,4.5019.996,4.6782,4.6782,0,0,0,3.377-2.2128,5.39,5.39,0,0,0,.7383-1.9522,5.2832,5.2832,0,0,0-.0167-2.0039A9.045,9.045,0,0,0,40.9785,71.1572Zm-3.48-2.1679a6.835,6.835,0,0,0-2.6718-.4463,4.9859,4.9859,0,0,0-2.23.7236,5.0647,5.0647,0,0,0-1.7266,1.6875,4.7872,4.7872,0,0,0-.62,3.7217,6.705,6.705,0,0,0,1.8213,3.03Z"/><path class="i" d="M40.5244,55.12,41.72,53.76l1.6719,1.4687a6.7383,6.7383,0,0,1-.3486-2.582,3.145,3.145,0,0,1,.748-1.8369,3.0213,3.0213,0,0,1,1.4248-.8379l.6309,1.7842a2.2955,2.2955,0,0,0-.8184.5283A2.4489,2.4489,0,0,0,44.5039,54.1a5.243,5.243,0,0,0,1.0488,2.59A26.4017,26.4017,0,0,0,49.2881,60.41l3.8672,3.3984-1.1953,1.36Z"/><path class="i" d="M62.1592,54.27,48.8447,37.9014l1.375-1.1192,5.3594,6.5889a7.675,7.675,0,0,1,.5068-3.3252,6.2353,6.2353,0,0,1,1.8731-2.4883,6.4239,6.4239,0,0,1,5.35-1.331A8.2969,8.2969,0,0,1,68.502,39.334a8.1726,8.1726,0,0,1,1.9394,5.6914,6.5019,6.5019,0,0,1-2.4209,4.9814,5.9309,5.9309,0,0,1-2.8682,1.3047,7.4175,7.4175,0,0,1-3.3847-.331l1.7666,2.1709Zm4.5556-5.6357a4.9381,4.9381,0,0,0,1.6084-2.3457,5.67,5.67,0,0,0,.1182-3.0088,6.78,6.78,0,0,0-3.8984-4.7822,5.7806,5.7806,0,0,0-2.9971-.5117,4.8254,4.8254,0,0,0-2.5986,1.0585,5.1165,5.1165,0,0,0-1.625,2.377,5.4639,5.4639,0,0,0-.168,2.9775,6.8176,6.8176,0,0,0,1.4248,2.8623A6.4252,6.4252,0,0,0,62.59,49.6982,4.9673,4.9673,0,0,0,66.7148,48.6338Z"/><path class="i" d="M71.3125,21.2676a1.3437,1.3437,0,0,1,1.1328-.1074,1.66,1.66,0,0,1,.9473.7773,1.6384,1.6384,0,0,1,.1972,1.1953,1.3465,1.3465,0,0,1-1.7773,1.0313,1.6338,1.6338,0,0,1-.9395-.7657,1.6531,1.6531,0,0,1-.205-1.207A1.3283,1.3283,0,0,1,71.3125,21.2676Zm2.3838,5.8633,1.5342-.8887L82.8682,39.41l-1.5332.89Z"/><path class="i" d="M85.0264,21.0146l1.7509-.7021,8.4219,8.5781.11-12,1.7627-.707L96.8857,32.66l-.3056.123Z"/><path class="i" d="M114.6719,11.2773a6.55,6.55,0,0,1,5.6592,1.5147,8.4063,8.4063,0,0,1,2.8974,5.0459,8.3857,8.3857,0,0,1-.9316,5.8535,6.8066,6.8066,0,0,1-10.168,1.9365,8.3854,8.3854,0,0,1-3.0176-5.1015,8.3839,8.3839,0,0,1,.8438-5.7442A6.545,6.545,0,0,1,114.6719,11.2773Zm.3515,1.8848a4.8977,4.8977,0,0,0-3.3945,2.4834,6.383,6.383,0,0,0-.7432,4.5859,6.7012,6.7012,0,0,0,1.2872,2.8877,5.4427,5.4427,0,0,0,2.3339,1.7989,5.1047,5.1047,0,0,0,5.3174-1.0117,5.4454,5.4454,0,0,0,1.5108-2.5313,6.72,6.72,0,0,0,.1357-3.1592,6.3662,6.3662,0,0,0-2.3838-3.99A4.9,4.9,0,0,0,115.0234,13.1621Z"/><path class="i" d="M133.24,9.4883l1.81-.043.0537,2.2246a6.7438,6.7438,0,0,1,1.6621-2.0068,3.1536,3.1536,0,0,1,1.8574-.6943,3.01,3.01,0,0,1,1.5821.48l-.8848,1.6719a2.29,2.29,0,0,0-.9433-.2432,2.4455,2.4455,0,0,0-1.69.8448,5.2488,5.2488,0,0,0-1.1943,2.5263,26.4744,26.4744,0,0,0-.2041,5.2676l.123,5.1475-1.8105.0429Z"/><path class="i" d="M160.626,21.4248l1.3594,1.0664a9.0148,9.0148,0,0,1-2.0391,2.3145,6.6788,6.6788,0,0,1-2.3525,1.1748,6.9249,6.9249,0,0,1-2.77.1279,6.3062,6.3062,0,0,1-4.8828-3.1484,8.7515,8.7515,0,0,1-1.1172-5.73,8.693,8.693,0,0,1,2.31-4.8907,6.3674,6.3674,0,0,1,5.8086-2.0976,6.577,6.577,0,0,1,5.1631,3.7041,8.8351,8.8351,0,0,1,.7851,5.3652l-12.2763-1.7177a6.5629,6.5629,0,0,0,.916,4.5185A4.6784,4.6784,0,0,0,154.9238,24.3a5.3831,5.3831,0,0,0,2.083-.1162,5.2929,5.2929,0,0,0,1.8252-.8281A9.1041,9.1041,0,0,0,160.626,21.4248Zm.5674-4.0605a6.8134,6.8134,0,0,0-.6758-2.6231,4.9775,4.9775,0,0,0-1.5674-1.7451,5.0613,5.0613,0,0,0-2.2422-.8936,4.7846,4.7846,0,0,0-3.6523.9444,6.6978,6.6978,0,0,0-2.0313,2.8945Z"/><path class="i" d="M193.3984,15.4355l3.3262,1.6436a19.4108,19.4108,0,0,1,3.7236,2.1826,4.7386,4.7386,0,0,1,1.5479,2.7549,5.5076,5.5076,0,0,1-.5947,3.4912,5.5636,5.5636,0,0,1-2.3887,2.6045,4.8053,4.8053,0,0,1-3.2373.4053,21.8007,21.8007,0,0,1-4.3936-1.7959l-1.1923-.59L185.95,34.7129l-1.6689-.8252Zm.7764,2.6309-3.0928,6.26L193.89,25.76a7.5075,7.5075,0,0,0,2.6788.8955,2.95,2.95,0,0,0,1.8-.4971,3.709,3.709,0,0,0,1.3047-1.4971,3.6628,3.6628,0,0,0,.3837-1.9209,2.8722,2.8722,0,0,0-.6562-1.6865,7.3345,7.3345,0,0,0-2.2744-1.5293Z"/><path class="i" d="M217.4619,35.6143a6.5469,6.5469,0,0,1,2.6358,5.2324,8.8166,8.8166,0,0,1-6.8272,8.7207,6.8055,6.8055,0,0,1-8.2109-6.3008,8.795,8.795,0,0,1,6.6474-8.8408A6.5472,6.5472,0,0,1,217.4619,35.6143ZM216.29,37.1309a4.902,4.902,0,0,0-4.1132-.8809,6.3853,6.3853,0,0,0-3.918,2.4971A6.706,6.706,0,0,0,206.96,41.63a5.4417,5.4417,0,0,0,.2109,2.9394,5.1049,5.1049,0,0,0,4.2949,3.295,5.44,5.44,0,0,0,2.8936-.5567,6.707,6.707,0,0,0,2.4482-2.001A6.37,6.37,0,0,0,218.2,40.8721,4.9071,4.9071,0,0,0,216.29,37.1309Z"/><path class="i" d="M230.82,47.3408l1.1709,1.3985-5.7646,10.333,11.2968-3.7256.2061.2461L232.0947,66.082l11.2383-3.7968,1.1836,1.414-15.5137,5.1836-.2109-.2519,5.5293-10.3741-11.1836,3.6211-.2119-.2529Z"/><path class="i" d="M246.6631,88.3037l-.085,1.7256a9.024,9.024,0,0,1-3.0664-.3262,6.68,6.68,0,0,1-2.3193-1.2412,6.9228,6.9228,0,0,1-1.7051-2.1855,6.3062,6.3062,0,0,1-.2519-5.8047,9.0218,9.0218,0,0,1,9.3554-5.1651A6.3713,6.3713,0,0,1,253.66,78.835a6.5751,6.5751,0,0,1-.0391,6.3535,8.8292,8.8292,0,0,1-3.9248,3.7422l-5.6934-11.0118a6.5706,6.5706,0,0,0-3.1582,3.36,4.6769,4.6769,0,0,0,.1768,4.0332,5.384,5.384,0,0,0,1.2988,1.6328,5.3,5.3,0,0,0,1.7305,1.0108A9.0984,9.0984,0,0,0,246.6631,88.3037Zm3.6416-1.8828a6.839,6.839,0,0,0,1.75-2.0684,4.975,4.975,0,0,0,.5185-2.2871,5.0519,5.0519,0,0,0-.5673-2.3466,4.7875,4.7875,0,0,0-2.8809-2.4356,6.7046,6.7046,0,0,0-3.5361.0156Z"/><path class="i" d="M260.6689,96.12l.5557,1.7227-2.1182.6826A6.76,6.76,0,0,1,261.502,99.55a3.1562,3.1562,0,0,1,1.1943,1.584,3.0233,3.0233,0,0,1-.0117,1.6533l-1.8555-.374a2.27,2.27,0,0,0-.0342-.9727,2.4417,2.4417,0,0,0-1.289-1.3808,5.2549,5.2549,0,0,0-2.7618-.4278,26.4958,26.4958,0,0,0-5.1084,1.3l-4.9013,1.5791-.5557-1.7236Z"/><path d="M28.876,166.0239l3.0556,10.2276-1.9306.5761-2.5225-8.4433-6.1806,1.8467,2.5009,8.37-1.9306.5771-2.501-8.3711-7.749,2.3155,2.5009,8.37-1.9306.5771L9.1553,171.9155Z"/><path d="M29.0947,183.4136l.73,1.6572-2.0361.8965a6.7665,6.7665,0,0,1,2.4883.7724,3.1541,3.1541,0,0,1,1.3506,1.4532,3.0088,3.0088,0,0,1,.1582,1.6455l-1.8829-.1807a2.2824,2.2824,0,0,0-.1347-.9648,2.443,2.443,0,0,0-1.4248-1.24,5.24,5.24,0,0,0-2.791-.1406,26.4079,26.4079,0,0,0-4.9473,1.8184l-4.7129,2.0742-.7295-1.6572Z"/><path d="M34.2441,194.5044l.92,1.5146-2.3321,1.417a7.7223,7.7223,0,0,1,3.2266.7959,5.3571,5.3571,0,0,1,2.123,1.9991,4.5515,4.5515,0,0,1,.6817,2.7929,5.0709,5.0709,0,0,1-1.08,2.7227,13.5578,13.5578,0,0,1-3.6143,2.8633l-6.6962,4.0683-.92-1.5146,6.2061-3.7715A19.67,19.67,0,0,0,35.6572,205.4a3.96,3.96,0,0,0,1.33-2.19,3.3435,3.3435,0,0,0-.5322-2.3438,4.1327,4.1327,0,0,0-2.5-1.8515,5.5968,5.5968,0,0,0-3.3584.0771,22.2955,22.2955,0,0,0-3.6719,1.9336l-4.7705,2.8994-.9209-1.5146Z"/><path d="M53.7969,221.12l-11.48,9.9971-1.1475-1.3174,1.9737-1.7187a7.8,7.8,0,0,1-3.3418-.4063,6.2325,6.2325,0,0,1-2.5606-1.79,6.4315,6.4315,0,0,1-1.5127-5.3067,8.3127,8.3127,0,0,1,2.94-5.3056,8.1476,8.1476,0,0,1,5.6143-2.1182,6.5117,6.5117,0,0,1,5.0634,2.2559,6.0188,6.0188,0,0,1,1.4151,2.84,7.2787,7.2787,0,0,1-.2207,3.3906l2.11-1.8379ZM48.0156,216.76a4.9537,4.9537,0,0,0-2.4-1.5323,5.6629,5.6629,0,0,0-3.01-.02,6.7329,6.7329,0,0,0-4.6338,4.043,5.7657,5.7657,0,0,0-.4063,3.0117,4.87,4.87,0,0,0,1.1563,2.5742,5.1464,5.1464,0,0,0,2.4219,1.5469,5.4247,5.4247,0,0,0,2.9707.07,6.79,6.79,0,0,0,2.8115-1.5176,6.4111,6.4111,0,0,0,2.2969-4.0879A4.9807,4.9807,0,0,0,48.0156,216.76Zm4.124-6.7051a1.354,1.354,0,0,1,.3233,1.0947,1.7449,1.7449,0,0,1-1.73,1.5068,1.37,1.37,0,0,1-1.3642-1.5654,1.7449,1.7449,0,0,1,1.73-1.5068A1.3508,1.3508,0,0,1,52.14,210.0552Zm3.3926,3.8955a1.3562,1.3562,0,0,1,.3233,1.0957,1.7449,1.7449,0,0,1-1.73,1.5068,1.3714,1.3714,0,0,1-1.3643-1.5664,1.7451,1.7451,0,0,1,1.73-1.5068A1.351,1.351,0,0,1,55.5322,213.9507Z"/><path d="M63.0029,221.7759l1.3741,1.1211-5.44,6.667a7.8421,7.8421,0,0,1,3.3164-.3184,5.331,5.331,0,0,1,2.6592,1.167,4.5512,4.5512,0,0,1,1.5752,2.4053,5.0841,5.0841,0,0,1-.1045,2.9218,13.5364,13.5364,0,0,1-2.4551,3.91l-4.9531,6.0713L57.6006,244.6l4.5908-5.626a20.4921,20.4921,0,0,0,2.0732-2.8418,4.0844,4.0844,0,0,0,.5108-2.5176,3.3173,3.3173,0,0,0-1.2793-2.0273,4.1365,4.1365,0,0,0-2.9746-.9111,5.6092,5.6092,0,0,0-3.14,1.1943,22.1178,22.1178,0,0,0-2.8144,3.05l-3.5293,4.3252-1.374-1.12Z"/><path d="M74.3652,237.7534l1.54.9522-1.169,1.8925a6.75,6.75,0,0,1,2.4873-.7734,3.1462,3.1462,0,0,1,1.9356.4316,2.9983,2.9983,0,0,1,1.0635,1.2657l-1.6543.9179a2.2829,2.2829,0,0,0-.6573-.7187,2.4447,2.4447,0,0,0-1.8769-.2139,5.2373,5.2373,0,0,0-2.3789,1.4658,26.4014,26.4014,0,0,0-3.0459,4.3018l-2.7071,4.3809-1.54-.9522Z"/><path d="M84.7012,243.8882l1.6162.7265-2.9131,6.4834A16.7474,16.7474,0,0,0,82.167,254.47a3.9949,3.9949,0,0,0,.4189,2.6113,4.11,4.11,0,0,0,1.9971,1.7872,3.9535,3.9535,0,0,0,4.7734-1,16.19,16.19,0,0,0,1.7745-3.2979l2.913-6.4834,1.6514.7422-3.0625,6.8154a12.9255,12.9255,0,0,1-2.5508,4.0537,5.4659,5.4659,0,0,1-2.8486,1.458,5.8457,5.8457,0,0,1-3.4238-.55,5.9048,5.9048,0,0,1-2.6963-2.2011,5.4217,5.4217,0,0,1-.8047-3.1221,13.4985,13.4985,0,0,1,1.3867-4.707Z"/><path d="M102.8018,251.3472l1.7138.4521-.6963,2.6377a7.7217,7.7217,0,0,1,2.875-1.665,5.3584,5.3584,0,0,1,2.9161-.0332,4.5454,4.5454,0,0,1,2.4287,1.5381,5.0863,5.0863,0,0,1,1.1123,2.71,13.5643,13.5643,0,0,1-.6172,4.5694l-2,7.5761L108.82,268.68l1.8535-7.0215a19.8277,19.8277,0,0,0,.7061-3.4463,3.971,3.971,0,0,0-.5625-2.5,3.3445,3.3445,0,0,0-2.01-1.3184,4.1314,4.1314,0,0,0-3.0859.4,5.6048,5.6048,0,0,0-2.3643,2.3868,22.2393,22.2393,0,0,0-1.3017,3.9394l-1.4248,5.3975-1.7139-.4522Z"/><path d="M133.4941,256.7729l1.7657.1553-1.0635,12.084a15.7542,15.7542,0,0,1-.915,4.625,5.9932,5.9932,0,0,1-2.6924,3.0078,7.3655,7.3655,0,0,1-4.2237.7666,8.682,8.682,0,0,1-3.124-.832,6.261,6.261,0,0,1-2.1582-1.6826,8.9567,8.9567,0,0,1-1.3877-2.8623l1.917.1689a5.3722,5.3722,0,0,0,1.8242,2.4072,6.01,6.01,0,0,0,3.0049.9952,5.8844,5.8844,0,0,0,3.1152-.4747,4.3683,4.3683,0,0,0,1.9385-1.7119,9.1537,9.1537,0,0,0,.85-3.5869l.0684-.78a6.8561,6.8561,0,0,1-2.625,1.9249,6.5689,6.5689,0,0,1-3.12.4775,6.65,6.65,0,0,1-3.47-1.3525,7.0748,7.0748,0,0,1-2.3291-3.0206A8.3017,8.3017,0,0,1,120.3,263.14a8.3976,8.3976,0,0,1,1.292-3.84,7.3786,7.3786,0,0,1,2.873-2.6475,6.51,6.51,0,0,1,3.6221-.749,6.081,6.081,0,0,1,2.8106.9561,8.1768,8.1768,0,0,1,2.3652,2.5468Zm-5.34,1.0333a5.1868,5.1868,0,0,0-2.8584.5556,5.5808,5.5808,0,0,0-2.2129,2.0391,6.58,6.58,0,0,0-1.001,2.9941,5.8532,5.8532,0,0,0,1.15,4.26,5.5639,5.5639,0,0,0,7.8379.7031,6.069,6.069,0,0,0,1.8565-4.12,6.7106,6.7106,0,0,0-.4122-3.12,5.27,5.27,0,0,0-1.7431-2.2949A4.989,4.989,0,0,0,128.1543,257.8062Z"/><path d="M149.7813,258.0337l-1.0635,1.3642a3.955,3.955,0,0,0-2.8623-1.3642,1.9919,1.9919,0,0,0-1.4405.7119,2.0374,2.0374,0,0,0-.5312,1.502,2.31,2.31,0,0,0,.5869,1.3828,7.1833,7.1833,0,0,0,2.22,1.4843,8.0989,8.0989,0,0,1,2.8106,2.0264,4.267,4.267,0,0,1,.833,2.3486,4.5347,4.5347,0,0,1-1.01,3.2393,3.8726,3.8726,0,0,1-2.9013,1.4688,4.8025,4.8025,0,0,1-2.3047-.4434,5.0484,5.0484,0,0,1-1.8819-1.4766l1.0332-1.46a3.7738,3.7738,0,0,0,2.9727,1.5263,2.5683,2.5683,0,0,0,2.415-2.6748,2.43,2.43,0,0,0-.5791-1.4658,7.9824,7.9824,0,0,0-2.3222-1.4941,7.2926,7.2926,0,0,1-2.6534-1.95,4.2443,4.2443,0,0,1-.8056-2.3223,4.056,4.056,0,0,1,.9052-2.9394,3.55,3.55,0,0,1,2.6387-1.3A5.4122,5.4122,0,0,1,149.7813,258.0337Z"/><path d="M159.6924,270.5845l-4.2871-20.6592,1.7363-.36,1.7246,8.3164a7.6964,7.6964,0,0,1,1.9815-2.72,6.2333,6.2333,0,0,1,2.8076-1.3467,6.4264,6.4264,0,0,1,5.3623,1.2813,8.2938,8.2938,0,0,1,3.18,5.1484A8.1693,8.1693,0,0,1,171.3,266.19a6.5,6.5,0,0,1-4.4424,3.3086,5.9318,5.9318,0,0,1-3.1465-.1621,7.4014,7.4014,0,0,1-2.8515-1.8515l.5683,2.74Zm6.6377-2.9063a4.9458,4.9458,0,0,0,2.5088-1.3418,5.6631,5.6631,0,0,0,1.4882-2.6172,6.7827,6.7827,0,0,0-1.2587-6.04,5.77,5.77,0,0,0-2.4258-1.833,4.8307,4.8307,0,0,0-2.7949-.2568,5.1278,5.1278,0,0,0-2.5362,1.3623,5.463,5.463,0,0,0-1.5185,2.5664,6.8,6.8,0,0,0-.0528,3.1972,6.4258,6.4258,0,0,0,2.4385,4.01A4.9674,4.9674,0,0,0,166.33,267.6782Z"/><path d="M191.708,255.82l1.71.249A9.009,9.009,0,0,1,192.8,259.09a6.68,6.68,0,0,1-1.457,2.19,6.93,6.93,0,0,1-2.3389,1.4882,6.3086,6.3086,0,0,1-5.8018-.3046,9.0241,9.0241,0,0,1-4.247-9.8067,6.37,6.37,0,0,1,3.997-4.708,6.5761,6.5761,0,0,1,6.3213.6455,8.8366,8.8366,0,0,1,3.3487,4.2656l-11.5049,4.6133a6.5592,6.5592,0,0,0,3.042,3.4649,4.6776,4.6776,0,0,0,4.0322.2109,5.3894,5.3894,0,0,0,1.749-1.1367,5.2871,5.2871,0,0,0,1.1719-1.626A9.0662,9.0662,0,0,0,191.708,255.82Zm-1.5254-3.8047a6.8307,6.8307,0,0,0-1.8916-1.94,4.9872,4.9872,0,0,0-2.2275-.7344,5.0649,5.0649,0,0,0-2.39.34,4.7825,4.7825,0,0,0-2.6992,2.6357,6.6879,6.6879,0,0,0-.3232,3.52Z"/><path d="M195.3242,242.6187l1.5742-.8946,1.0987,1.9336a6.7832,6.7832,0,0,1,.5146-2.5537,3.1523,3.1523,0,0,1,1.3076-1.4912,3.0127,3.0127,0,0,1,1.6211-.3262l.0117,1.8926a2.2755,2.2755,0,0,0-.9453.2314,2.4465,2.4465,0,0,0-1.0888,1.544,5.2422,5.2422,0,0,0,.1455,2.791,26.358,26.358,0,0,0,2.3135,4.7363l2.5449,4.4766-1.5742.8945Z"/><path d="M216.74,228.0415l9.28,12.0674-1.3848,1.0654L223.04,239.1a7.7948,7.7948,0,0,1-.6084,3.31,6.2336,6.2336,0,0,1-1.9433,2.4482,6.4369,6.4369,0,0,1-5.3877,1.1875,8.3108,8.3108,0,0,1-5.1172-3.2578,8.1444,8.1444,0,0,1-1.7734-5.7324,6.5116,6.5116,0,0,1,2.56-4.917,5.9978,5.9978,0,0,1,2.92-1.2393,7.2774,7.2774,0,0,1,3.37.4258l-1.706-2.2178Zm-4.7031,5.5059a4.95,4.95,0,0,0-1.6758,2.3017,5.6635,5.6635,0,0,0-.2021,3.0039,6.7344,6.7344,0,0,0,3.7529,4.8711,5.7871,5.7871,0,0,0,2.9824.5889,4.8636,4.8636,0,0,0,2.6387-.9981,5.1272,5.1272,0,0,0,1.6914-2.3232,5.42,5.42,0,0,0,.251-2.9609,6.7873,6.7873,0,0,0-1.3428-2.8985,6.412,6.412,0,0,0-3.9414-2.541A4.9807,4.9807,0,0,0,212.0371,233.5474Z"/><path d="M219.3125,217.647l1.2383-1.2686,4.0449,3.9492,1.9639-2.0117,1.2109,1.1836-1.9639,2.0108,9.6807,9.4521-1.2383,1.2686-9.6806-9.4522-1.69,1.7305-1.2109-1.1836,1.6894-1.73Z"/><path d="M230.69,213.7261l1.0576-1.4219,5.7031,4.2412a16.6916,16.6916,0,0,0,3.0254,1.9346,3.9907,3.9907,0,0,0,2.6406.1543,4.1094,4.1094,0,0,0,2.1758-1.5655,3.9534,3.9534,0,0,0,.0527-4.8769,16.2753,16.2753,0,0,0-2.8388-2.4424l-5.7032-4.2422,1.08-1.4531,5.9951,4.459a12.94,12.94,0,0,1,3.4092,3.3642,5.4689,5.4689,0,0,1,.8106,3.0957,5.85,5.85,0,0,1-1.2745,3.2256,5.9208,5.9208,0,0,1-2.73,2.1592,5.43,5.43,0,0,1-3.2227.1123,13.4785,13.4785,0,0,1-4.2978-2.3681Z"/><path d="M241.8857,197.647l.8125-1.5752,2.4248,1.251a7.7184,7.7184,0,0,1-1.0029-3.167,5.3609,5.3609,0,0,1,.5987-2.8545,4.55,4.55,0,0,1,2.0283-2.0381,5.0837,5.0837,0,0,1,2.8867-.4981,13.5693,13.5693,0,0,1,4.3271,1.5918l6.9629,3.5928-.8125,1.5762-6.4541-3.33a19.6589,19.6589,0,0,0-3.2109-1.4355,3.9551,3.9551,0,0,0-2.5625.0078,3.338,3.338,0,0,0-1.7227,1.6757,4.1329,4.1329,0,0,0-.2773,3.0987,5.6047,5.6047,0,0,0,1.8174,2.8262,22.37,22.37,0,0,0,3.5644,2.124l4.961,2.56-.8125,1.5752Z"/><path d="M253.8428,168.8013l.5322-1.69,11.5713,3.6426a15.7335,15.7335,0,0,1,4.3183,1.8916,5.9894,5.9894,0,0,1,2.3565,3.2774,7.3573,7.3573,0,0,1-.1621,4.289,8.6413,8.6413,0,0,1-1.4854,2.8711,6.2664,6.2664,0,0,1-2.1084,1.7451,8.9589,8.9589,0,0,1-3.0937.7383l.5771-1.8359a5.3884,5.3884,0,0,0,2.7452-1.2617,6.0214,6.0214,0,0,0,1.6191-2.72,5.8874,5.8874,0,0,0,.208-3.1445,4.3628,4.3628,0,0,0-1.2549-2.2627,9.1469,9.1469,0,0,0-3.3183-1.6025l-.7471-.2354a6.8747,6.8747,0,0,1,1.3135,2.9785,6.561,6.561,0,0,1-.2071,3.15,6.6364,6.6364,0,0,1-2.0674,3.0957,7.0786,7.0786,0,0,1-3.4521,1.6241,8.3023,8.3023,0,0,1-3.9707-.294,8.3937,8.3937,0,0,1-3.4717-2.09,7.39,7.39,0,0,1-1.9668-3.376,6.5183,6.5183,0,0,1,.05-3.6983,6.0808,6.0808,0,0,1,1.54-2.538,8.1583,8.1583,0,0,1,2.997-1.7608Zm-.1426,5.4375a5.1916,5.1916,0,0,0-.0732,2.91,5.5794,5.5794,0,0,0,1.5136,2.6006,6.5765,6.5765,0,0,0,2.709,1.6231,5.8528,5.8528,0,0,0,4.4072-.2051,5.5629,5.5629,0,0,0,2.376-7.502,6.0679,6.0679,0,0,0-3.623-2.7,6.7093,6.7093,0,0,0-3.1348-.2705,5.2636,5.2636,0,0,0-2.6172,1.2071A4.9955,4.9955,0,0,0,253.7,174.2388Z"/><path class="b" d="M16.69,121.0216a66.3414,66.3414,0,0,0-.1787,34.0158"/></svg>